<?xml version="1.0" encoding="utf-8"?>
<!-- Generator: Adobe Illustrator 26.3.1, SVG Export Plug-In . SVG Version: 6.00 Build 0)  -->
<svg version="1.1" id="Layer_2_00000161606580891685477880000013015350132295040897_"
	 xmlns="http://www.w3.org/2000/svg" xmlns:xlink="http://www.w3.org/1999/xlink" x="0px" y="0px" viewBox="0 0 400 200"
	 style="enable-background:new 0 0 400 200;" xml:space="preserve">
<style type="text/css">
	.st0{fill:none;}
	.st1{fill:#444444;}
</style>
<g>
	<g>
		<rect x="-0.1" y="0.3" class="st0" width="400" height="200"/>
	</g>
	<g>
		<polygon class="st1" points="94.3,129.7 83.4,129.7 83.4,104.6 82.9,101.2 81.9,98.6 81.6,98.2 81.3,97.8 79.4,96.4 77.3,95.8 
			75.5,95.8 72.5,96.8 72.1,96.9 71.8,97.1 68.4,99.8 68.1,100.1 67.8,100.4 65.6,104.3 65.5,104.7 65.5,129.7 54.6,129.7 
			54.6,86.9 64.4,86.9 64.4,94.8 64.7,94.4 68.2,90.5 68.6,90.1 69,89.8 73.9,87.4 74.4,87.2 75,87 79.8,86.2 82.3,86.2 85.1,86.5 
			87.6,87.4 88,87.6 88.4,87.8 90.2,89.3 91.7,91 91.9,91.4 92.1,91.8 93.7,96.4 93.8,96.9 93.9,97.4 94.3,101.6 		"/>
		<polygon class="st1" points="143.6,129.7 132.7,129.7 132.7,104.6 132.2,101.2 131.2,98.6 130.9,98.2 130.6,97.8 128.7,96.4 
			126.6,95.8 124.8,95.8 121.8,96.8 121.4,96.9 121.1,97.1 117.7,99.8 117.4,100.1 117.1,100.4 114.9,104.3 114.8,104.7 
			114.8,129.7 103.9,129.7 103.9,86.9 113.7,86.9 113.7,94.8 114,94.4 117.5,90.5 117.9,90.1 118.3,89.8 123.2,87.4 123.7,87.2 
			124.3,87 129.1,86.2 131.6,86.2 134.3,86.5 136.8,87.4 137.3,87.6 137.7,87.8 139.5,89.3 141,91 141.2,91.4 141.4,91.8 143,96.4 
			143.1,96.9 143.1,97.4 143.6,101.6 		"/>
		<path class="st1" d="M240.7,130.3l2.9-0.3c0.2,0,0.5-0.1,0.7-0.1l3.2-0.8l0.3-0.1l0.3-0.1l2-0.7l0.1-0.1l-1.5-8.8
			c-0.5,0.2-2,0.7-2.5,0.8l-2.1,0.4h-1.4l-1.8-1l-0.1-0.2l-0.2-0.2l-0.5-1.3l-0.2-1.7V83.7l-1.1-4.9l-2.6-4.4l-0.7-0.7l-0.6-0.6
			l-2-1.4l-3.1-1.4l-3.7-0.8l-3.3-0.3h-2.4l-3.9,0.5l-3.7,1.1l-0.7,0.3l-0.7,0.3l-2.9,2l-2.3,2.6l-0.4,0.6l-0.4,0.6l-1.3,3.4
			l-0.5,3.7v4.8h-5.6v8.3h5.6v32.2h10.9V97.5h7.1v-8.3h-7.1v-2.6l0.6-3.3l0.1-0.3l0.1-0.3l1.9-2.7l0.3-0.2l0.3-0.2l1.6-0.7l1.8-0.3
			h1.2l1.8,0.3l1.6,0.7l0.2,0.2l0.2,0.2l1.7,2.7l0.1,0.3l0.1,0.3l0.5,3v35.4l0.7,2.8l1.7,2.6l0.5,0.5l0.5,0.4l2.9,1.6l3.3,0.7H240.7
			z"/>
		<polygon class="st1" points="357.3,86.9 367.7,86.9 349.8,129.7 340.7,129.7 333.5,111.3 326.5,129.7 317.3,129.7 299.5,86.9 
			309.7,86.9 322.5,119.2 327.5,105.3 320,87 329.1,87 333.5,100.1 338,87 347,87 339.6,105.3 344.7,119.2 		"/>
		<rect x="32.3" y="71.7" class="st1" width="11.3" height="57.9"/>
		<path class="st1" d="M297,108.3c0,12.4-10,22.4-22.4,22.4c-12.4,0-22.4-10-22.4-22.4s10-22.4,22.4-22.4
			C286.9,85.9,297,95.9,297,108.3z M274.5,95.7c-6.1,0-11.1,5.7-11.1,12.8s5,12.8,11.1,12.8s11.1-5.7,11.1-12.8
			S280.7,95.7,274.5,95.7z"/>
		<path class="st1" d="M195.2,108.3c0,12.4-10,22.4-22.4,22.4c-12.4,0-22.4-10-22.4-22.4s10-22.4,22.4-22.4
			C185.2,85.9,195.2,95.9,195.2,108.3z M172.8,95.7c-6.1,0-11.1,5.7-11.1,12.8c0,7.1,5,12.8,11.1,12.8s11.1-5.7,11.1-12.8
			C184,101.4,179,95.7,172.8,95.7z"/>
	</g>
</g>
</svg>
