<?xml version="1.0" encoding="utf-8"?>
<!-- Generator: Adobe Illustrator 26.3.1, SVG Export Plug-In . SVG Version: 6.00 Build 0)  -->
<svg version="1.1" id="Layer_2_00000161606580891685477880000013015350132295040897_"
	 xmlns="http://www.w3.org/2000/svg" xmlns:xlink="http://www.w3.org/1999/xlink" x="0px" y="0px" viewBox="0 0 400 200"
	 style="enable-background:new 0 0 400 200;" xml:space="preserve">
<style type="text/css">
	.st0{fill:none;}
	.st1{fill:#444444;}
</style>
<g>
	<rect class="st0" width="400" height="200"/>
	<g>
		<path class="st1" d="M242.8,123.8c-2.2,2.3-0.5,3.9,0.7,5.6c0.9,1.3,1.8,2.6,2.7,4c1.3,2,1.1,3.4-0.6,5c-0.4,0.4-0.8,0.4-1.2,0.3
			c-0.4-0.1-0.7-0.2-1.1-0.3c-2.7-0.5-5.7-1.9-8-1.2c-2.2,0.7-3.6,3.6-5.6,5.4c-1,0.9-1.1,1.8-0.8,3c0.6,2.3,1,4.6,1.7,6.8
			c0.5,1.5-0.1,2.3-1.3,3.2c-1.1,0.8-2,1.1-3.2,0.2c-1.8-1.3-3.8-2.3-5.5-3.6c-1.2-0.9-2.1-1-3.4-0.2c-1.9,1.2-4,2.2-6.1,3
			c-1.4,0.5-1.8,1.3-2,2.6c-0.3,2.4-0.8,4.8-1.1,7.2c-0.1,1.3-0.6,1.8-1.9,2c-1.2,0.2-2.4,0.8-3.3-0.7c-1.3-2.1-2.9-3.9-4.2-6
			c-0.7-1.1-1.4-1.5-2.6-1.2c-0.7,0.2-1.5,0.4-2.3,0.3c-4.6-0.8-7.2,1.5-8.7,5.5c-0.3,0.7-0.9,1.3-1.1,2c-0.8,2.4-2.7,1.7-4.3,1.7
			c-1.7,0-1.3-1.5-1.5-2.3c-0.9-2.6-0.6-6.1-2.5-7.8c-1.8-1.7-5.1-1.7-7.6-2.6c-0.9-0.3-1.4,0-2,0.5c-2.1,1.7-4.2,3.3-6.2,5
			c-0.9,0.8-1.7,1.1-2.8,0.3c-1-0.7-2.4-0.9-2-2.8c0.5-2.4,0.6-5,0.9-7.5c0.2-1.2,0-2-1.1-2.6c-0.7-0.3-1.4-0.8-1.8-1.3
			c-2.8-3.4-6.2-3.7-9.9-1.7c-0.8,0.4-1.8,0.5-2.6,0.9c-1.6,0.8-2.7,0.4-3.8-1c-0.8-1.1-1.1-1.9-0.3-3c0.2-0.3,0.3-0.7,0.5-1
			c1.2-2.4,3.4-4.7,3.3-7.1c-0.1-2.3-2.4-4.6-3.7-6.9c-0.4-0.8-1-1-1.8-1c-2.6-0.1-5.2-0.5-7.7-0.4c-2,0-2.4-1.1-3-2.6
			c-0.7-1.6,0.2-2.2,1.2-3c1.8-1.5,3.5-3.2,5.3-4.6c1-0.8,1.3-1.5,1-2.7c-0.3-1.2-0.8-2.4-0.7-3.6c0.3-3.5-1.9-4.7-4.5-5.7
			c-1.4-0.5-2.7-1.4-4.2-1.8c-1.6-0.5-2.2-1.4-2.1-3.2c0.1-1.4,0.4-2.2,1.9-2.6c2.4-0.7,4.7-1.7,7.1-2.5c1.2-0.4,1.8-1,1.8-2.2
			c0-0.7,0.1-1.6,0.4-2.2c1.7-3.8,0.6-6.6-2.6-8.9c-0.9-0.7-1.5-1.7-2.4-2.4c-1.7-1.2-1.6-2.5-0.7-4.3c0.6-1,1.1-1.4,2.2-1.4
			c2.5,0.1,5,0.1,7.5,0.3c1.4,0.1,2.3-0.2,2.9-1.5c0.5-1.1,1.1-2.2,1.9-3.1c2-2.1,1.9-4.1,0.5-6.5c-0.9-1.6-1.4-3.5-2.3-5.2
			c-0.7-1.3-0.4-2.1,0.5-3.1c1.1-1.3,2.1-1.5,3.7-0.8c2.2,1.1,4.5,1.8,6.7,2.8c1.1,0.5,2,0.5,2.8-0.5c1.7-2.1,5.4-2.3,5.8-5.5
			c0.3-2.7,0-5.5-0.2-8.2c-0.1-1.6,0.4-2.2,1.8-2.9c1.5-0.7,2.4-0.4,3.5,0.7c1.7,1.8,3.7,3.4,5.4,5.2c0.7,0.8,1.4,1,2.4,0.5
			c0.9-0.4,1.9-0.8,2.8-0.9c3.9-0.1,5.5-2.4,6.1-5.9c0.2-1.2,1-2.3,1.2-3.4c0.4-2.6,2-2.8,4.1-2.7c0.7,0,1.1,0.3,1.4,0.9
			c1.3,2.7,2.7,5.4,3.9,8.2c0.9,2,0.6,2.5-1.8,2.5c-21.8,0.6-41.9,15.7-47.3,38.7c-6.8,28.6,12.7,57.1,41.9,60.9
			c18.9,2.4,34.4-4.2,46.4-19c0.9-1.1,1.7-1.5,3.2-1.2C235.4,123.2,238.9,123.4,242.8,123.8z"/>
		<path class="st1" d="M174.1,54.1c0.4-1.4-1.1-3.4,1.2-4.4c2.3-0.9,2.9,1.2,3.9,2.2c3,2.8,2.7,3.9-0.9,6
			c-10.7,6.2-16.3,15.4-16.8,27.8c-0.6,15.2,9.9,28.7,24.6,32.2c7.1,1.7,14,1.2,20.7-1.7c1.2-0.5,2.2-0.5,3.4,0
			c2.3,1.1,4.8,1.9,7.2,2.8c0.7,0.2,1.2,0.4,1.3,1.3c0.2,1.7,0.6,3.4,0.9,5.1c0.2,1.1,0.1,1.8-1,2.4c-1,0.7-1.6,0.3-2.4-0.2
			c-0.1,0-0.1-0.1-0.2-0.1c-3-3.4-6.2-2.2-9.5-0.4c-0.7,0.4-1,0.8-1.1,1.5c-0.2,1.5-0.7,3-0.8,4.4c-0.1,1-0.6,1.3-1.6,1.5
			c-1,0.2-1.6,0.1-2.1-0.8c-0.1-0.2-0.3-0.4-0.4-0.6c-1.3-3.5-3.9-4.5-7.5-3.8c-1,0.2-1.7,0.3-2.2,1.2c-0.7,1.2-1.4,2.3-2.2,3.5
			c-0.4,0.7-0.8,1.5-1.9,1.1c-0.9-0.3-2-0.4-1.9-1.8c0-0.4-0.3-0.7-0.3-1.1c0.2-4.1-2.8-4.9-5.8-5.9c-0.9-0.3-1.5,0.2-2.1,0.6
			c-1.2,0.8-2.4,1.7-3.4,2.6c-0.8,0.7-1.4,0.7-2.2,0.1c-0.9-0.5-1.4-1.1-1.1-2.2c0.1-0.5,0.2-1.1,0.4-1.5c1.4-3.5-0.8-5.2-3.1-7
			c-0.9-0.7-1.7-0.6-2.6-0.3c-1.2,0.3-2.3,0.7-3.5,1c-0.9,0.3-1.8,0.7-2.6-0.4c-0.8-1-0.8-1.8-0.1-2.8c0.6-0.8,0.9-1.8,1.5-2.6
			c1.2-1.5,0.7-2.7,0-4.3c-1.2-2.8-3.3-3.3-5.9-3.4c-0.6,0-1.2,0-1.8,0c-1,0-1.4-0.5-1.7-1.5c-0.3-0.9-0.4-1.6,0.5-2.1
			c0.6-0.4,1.1-1.1,1.8-1.4c3.2-1.4,2.6-4.1,2.3-6.7c-0.1-1.1-0.7-1.8-1.7-2.2c-1.3-0.6-2.6-1.3-3.9-1.9c-1-0.4-1.2-1.2-1.2-2.2
			c0-1,0.5-1.5,1.5-1.7c0.5-0.1,1-0.4,1.5-0.5c3.7-0.3,4.7-2.9,5.1-6c0.1-0.8-0.1-1.3-0.6-1.8c-1.1-1.2-2.1-2.4-3.2-3.5
			c-0.7-0.7-1-1.3-0.5-2.2c0.5-0.9,0.9-1.6,2-1.4c0.7,0.1,1.4-0.2,2,0.1c4,1.6,5-1.7,6.7-3.9c0.5-0.7,0.1-1.3-0.1-1.9
			c-0.5-1.4-1-2.7-1.6-4c-0.5-1-0.4-1.7,0.5-2.6c0.9-0.9,1.7-0.8,2.6-0.2c0.4,0.2,0.9,0.3,1.2,0.6c3,2.4,5.4,0.7,7.8-1.2
			C174.8,57,173.6,55.4,174.1,54.1z"/>
		<path class="st1" d="M215.9,57.8c-1.3,1.2-2.4,1.8-4.4,0.6c-3.9-2.3-8.4-2.5-12.8-1.3c-2.2,0.6-4.1,1.9-4.5,4.3
			c-0.4,2.4,1,4,2.8,5.4c1.9,1.5,4.2,2.3,6.6,3.1c3.4,1.1,6.7,2.3,9.5,4.7c5.7,4.8,4.7,12.9-2.1,15.8c-6.8,2.8-13.8,2.5-20.6-0.4
			c-0.7-0.3-1.4-0.7-1.9-1.2c-0.5-0.5-1.8-1-0.9-1.8c0.7-0.6,1.6-2,3.2-0.5c3.5,3.4,11.6,4.3,15.9,2.1c4-2.1,4.6-6,1.3-9.1
			c-2-1.9-4.5-2.8-7-3.6c-3-1-6-2.2-8.6-4c-1.8-1.3-3.4-2.8-4.2-5c-1.3-3.3-0.7-6.6,1.9-9C195.6,52.6,210.1,52.6,215.9,57.8z"/>
		<path class="st1" d="M229.6,74.3c0-5.1,0-10.2,0-15.3c0-1.4-0.3-2.1-1.8-1.9c-1.8,0.1-3.6,0-5.5,0c-0.8,0-1.4,0-1.4-1.1
			c0-1.1,0.4-1.4,1.4-1.4c7.1,0,14.3,0,21.4,0c1.1,0,1.4,0.3,1.5,1.4c0,1.2-0.6,1.2-1.4,1.1c-1.5,0-3.1,0.1-4.6,0
			c-2.1-0.2-2.8,0.3-2.8,2.6c0.2,9.9,0,19.8,0.1,29.6c0,1.9-0.5,2.4-2.4,2.3c-4.6-0.1-4.6,0-4.6-4.6
			C229.6,82.8,229.6,78.5,229.6,74.3z"/>
		<path class="st1" d="M227.4,99.9c-3.3,0.3-3.3,0.3-3.3,3.6c0,1.1,0,2.1,0,3.2c0.1,1-0.3,1.5-1.4,1.5c-1.1,0-1.2-0.5-1.2-1.4
			c0-3.3,0-6.7,0-10c0-0.7-0.2-1.5,1-1.4c0.8,0.1,1.8,0,1.6,1.1c-0.6,3,1.3,2.7,3.2,2.6c0.8-0.1,1.7-0.2,2.4,0.4
			C229,100.3,228.1,99.5,227.4,99.9z"/>
		<path class="st1" d="M261.4,100.6c-1,0.8-1.7-0.2-2.5-0.4c-1.6-0.4-3.4-0.7-4.4,0.8c-1,1.5-0.9,3.4-0.1,5c0.4,0.9,1.4,1.1,2.3,1.2
			c1.4,0.1,2.7-0.2,3.9-1c0.4-0.3,0.7-0.2,1,0.1c0.4,0.4,0,0.6-0.3,0.9c-1.7,1.5-7.2,1.4-8.9-0.2c-2-1.9-0.9-6.7,1.7-7.6
			C256.8,98.5,259.9,99,261.4,100.6z"/>
		<path class="st1" d="M189.3,95.6c2.7,0,5.5,0,8.3,0c-0.2,0.3-0.2,0.6-0.3,0.6c-2.7-0.3-2.9,1.3-2.8,3.4c0.2,2.4,0,4.8,0,7.3
			c0,0.9-0.2,1.4-1.2,1.4c-1.1,0-1.2-0.6-1.2-1.4c0-2.2,0-4.4,0-6.6c-0.1-2,1.1-4.9-3.6-3.7C188.8,96.1,189.1,95.8,189.3,95.6z"/>
		<path class="st1" d="M275.8,101.8c0-1.7,0-3.3,0-5c0-0.6-0.3-1.5,0.9-1.4c0.9,0,1.7,0,1.7,1.3c0,3.5,0,6.9,0,10.4
			c0,1-0.6,1-1.4,1.1c-0.8,0-1.3-0.2-1.3-1.1C275.8,105.3,275.8,103.6,275.8,101.8z"/>
		<path class="st1" d="M219.4,100.7c-2.2-0.1-4.5-1.8-6.6,0c-0.9,0.7-0.9,1.9-0.8,3c0.5,6.2,4.7,2.7,7.7,2.7c-2.3,2-6.2,2.4-8.5,1
			c-2-1.2-2.2-6-0.3-7.5C212.8,98.5,217.3,98.7,219.4,100.7z"/>
		<path class="st1" d="M240.2,99.9c-3.2,0.3-3.2,0.3-3.2,3.6c0,1.1,0,2.1,0,3.2c0,0.9-0.1,1.4-1.2,1.4c-1.1,0-1.5-0.4-1.4-1.4
			c0.1-0.6,0-1.2,0-1.8c0.2-1.8-0.8-4.7,0.4-5.1c2.3-0.7,5.1-1.6,7.7-0.3C241.8,100.4,240.9,99.5,240.2,99.9z"/>
		<path class="st1" d="M247.1,103.5c0-0.9,0-1.8,0-2.7c0-0.7-0.2-1.6,1.1-1.4c0.9,0.1,1.6,0.2,1.5,1.4c-0.1,2,0,4.1,0,6.1
			c0,0.9-0.3,1.2-1.2,1.2c-0.9,0-1.5-0.2-1.4-1.2C247.1,105.8,247.1,104.7,247.1,103.5z"/>
		<path class="st1" d="M227.4,99.9c0.7-0.7,1.5-0.3,2.3-0.4c1.9,0.2,2.8,1.4,2.8,3.2c0,1.3,0,2.6,0,3.9c0,0.9,0,1.6-1.3,1.6
			c-1.4,0-1.1-0.9-1.1-1.7c0-1,0-2,0-3C230,101.7,229.5,100.3,227.4,99.9z"/>
		<path class="st1" d="M240.2,99.9c0.7-0.7,1.5-0.3,2.3-0.4c1.9,0.2,2.8,1.3,2.8,3.2c0,1.3,0,2.6,0,3.9c0,0.9,0,1.6-1.3,1.6
			c-1.2,0-1.1-0.7-1.1-1.5c0-1,0-2,0-3C243,101.7,242.3,100.3,240.2,99.9z"/>
		<path class="st1" d="M248.5,98.1c-1-0.1-1.5-0.4-1.5-1.4c0-1,0.6-1.3,1.5-1.3c0.9,0,1.4,0.4,1.4,1.3
			C249.8,97.8,249.2,98,248.5,98.1z"/>
		<path class="st1" d="M250.2,74.8c0-4.8,0.1-9.6-0.1-14.3c-0.1-1.8,0.7-2.8,2.1-3.6c4.7-2.8,9.9-3.1,15.2-2.7
			c0.8,0.1,1.5,0.2,2.3,0.3c7.3,1.2,9.9,3.6,10.3,10.9c0.4,8.3,0.5,16.7,0,25c-0.1,2.8-3.3,0.7-5.1,1.3c-1,0.3-1.9,0.1-1.8-1.4
			c0.1-4,0-8,0.1-12.1c0-1.4-0.4-1.8-1.8-1.8c-4.1,0.1-8.2,0.1-12.3,0c-1.7-0.1-2,0.6-1.9,2.1c0.1,3.8,0,7.6,0.1,11.4
			c0,1.5-0.5,1.9-1.9,1.9c-5.1,0-5.1,0-5.1-5C250.2,82.7,250.2,78.7,250.2,74.8z M257.2,72.1c0,1,0.1,1.6,1.3,1.6
			c4.5-0.1,9,0,13.4,0c0.8,0,1.3-0.2,1.2-1.1c-0.1-3.3,0.1-6.7-0.3-10c-0.3-2.8-2-4.5-4.6-5.4c-3.4-1.1-6.7-0.7-10.1,0
			c-0.9,0.2-1.1,0.9-1.1,1.7c0,2.2,0,4.4,0,6.6C257.2,67.7,257.2,69.9,257.2,72.1z"/>
		<path class="st1" d="M202.7,108.2c-3.6,0-5.1-0.8-5.5-3c-0.3-2-0.6-4.2,1.6-5.5c2.3-1.3,7.1-0.8,8.4,0.7c0.8,0.9,0.9,2.2,0.7,3.2
			c-0.3,1.3-1.5,0.7-2.3,0.7c-1.5,0.1-3,0-4.6,0c-0.5,0-1.2-0.3-1.3,0.5c-0.2,0.7,0.2,1.4,0.8,1.8c1.6,1.1,3.3,0.7,5,0
			c0.6-0.2,1.2-1.2,1.6-0.2c0.3,0.7-0.7,1-1.3,1.3C204.8,108.3,203.6,108.2,202.7,108.2z M205.4,102.4c0.2-1.7-1.3-2.4-2.9-2.4
			c-1.5,0-2.9,0.6-2.8,2.2c0.1,2.1,1.9,0.5,2.8,1.2C203.4,102.7,205.2,104.3,205.4,102.4z"/>
		<path class="st1" d="M274.1,105.2c0.4,1.9,0.1,3.4-2.8,2.9c-1.1-0.2-2.3,0.2-3.4,0.1c-4.1-0.1-6-3.3-4.4-7.1
			c0.4-0.8,1-1.3,1.8-1.6c1.9-0.7,3.9-0.7,5.8-0.3C273.7,99.9,274.1,100.7,274.1,105.2z M268.6,100c-2.2,0-2.9,1-2.9,3.8
			c0,2.7,0.8,3.5,3.2,3.5c2.5,0,2.8-0.3,2.8-3.1C271.6,101.1,270.9,100,268.6,100z"/>
	</g>
</g>
</svg>
