<?xml version="1.0" encoding="utf-8"?>
<!-- Generator: Adobe Illustrator 26.3.1, SVG Export Plug-In . SVG Version: 6.00 Build 0)  -->
<svg version="1.1" id="Layer_2_00000172438913424985308070000003373233307120966581_"
	 xmlns="http://www.w3.org/2000/svg" xmlns:xlink="http://www.w3.org/1999/xlink" x="0px" y="0px" viewBox="0 0 400 200"
	 style="enable-background:new 0 0 400 200;" xml:space="preserve">
<style type="text/css">
	.st0{fill:#444444;}
	.st1{fill:none;}
</style>
<g>
	<g id="Layer_1-2">
		<g>
			<path class="st0" d="M158.9,67.2v6.5h12v24h6.5v-24h12v-6.5C189.3,67.2,158.9,67.2,158.9,67.2z"/>
			<path class="st0" d="M240.2,73.7v-6.5h-30.5v30.5h30.5v-6.5h-24v-5.5h21.8v-6.5h-21.8v-5.4L240.2,73.7L240.2,73.7z"/>
			<path class="st0" d="M280.2,91.1h-8.7c-2.9,0-4.4-1.5-4.4-4.4v-8.7c0-2.9,1.5-4.4,4.4-4.4h8.7c2.9,0,4.4,1.5,4.4,4.4h6.5
				c0-7.3-3.6-10.9-10.9-10.9h-8.7c-7.3,0-10.9,3.6-10.9,10.9v8.7c0,7.3,3.6,10.9,10.9,10.9h8.7c7.3,0,10.9-3.6,10.9-10.9h-6.5
				C284.6,89.7,283.1,91.1,280.2,91.1z"/>
			<path class="st0" d="M335.5,67.2v12h-17.4v-12h-6.5v30.5h6.5v-12h17.4v12h6.5V67.2H335.5z"/>
			<path class="st0" d="M392.9,75.9c0-5.8-2.9-8.7-8.7-8.7h-13.1c-5.8,0-8.7,2.9-8.7,8.7v1.1c0,2.2,0.4,4.1,1.3,5.5
				c-0.9,1.4-1.3,3.2-1.3,5.4v1.1c0,5.8,2.9,8.7,8.7,8.7h13.1c5.8,0,8.7-2.9,8.7-8.7v-1.1c0-2.2-0.4-4.1-1.3-5.4
				c0.9-1.4,1.3-3.2,1.3-5.5V75.9z M386.4,88.9c0,1.4-0.7,2.2-2.2,2.2h-13.1c-1.5,0-2.2-0.7-2.2-2.2v-1.1c0-1.5,0.7-2.2,2.2-2.2
				h13.1c1.5,0,2.2,0.7,2.2,2.2V88.9z M386.4,77c0,1.5-0.7,2.2-2.2,2.2h-13.1c-1.5,0-2.2-0.7-2.2-2.2v-1.1c0-1.5,0.7-2.2,2.2-2.2
				h13.1c1.5,0,2.2,0.7,2.2,2.2V77z"/>
			<g>
				<path class="st0" d="M182.8,111.3v19.6c0,2.9-1.5,4.4-4.4,4.4h-8.7c-2.9,0-4.4-1.5-4.4-4.4v-19.6h-6.5v19.6
					c0,7.3,3.6,10.9,10.9,10.9h8.7c7.3,0,10.9-3.6,10.9-10.9v-19.6H182.8L182.8,111.3z"/>
				<path class="st0" d="M231.5,123.3h-13.1c-1.5,0-2.2-0.7-2.2-2.2V120c0-1.5,0.7-2.2,2.2-2.2h13.1c1.4,0,2.2,0.7,2.2,2.2h6.5
					c0-5.8-2.9-8.7-8.7-8.7h-13.1c-5.8,0-8.7,2.9-8.7,8.7v1.1c0,5.8,2.9,8.7,8.7,8.7h13.1c1.4,0,2.2,0.7,2.2,2.2v1.1
					c0,1.4-0.7,2.2-2.2,2.2h-13.1c-1.5,0-2.2-0.7-2.2-2.2h-6.5c0,5.8,2.9,8.7,8.7,8.7h13.1c5.8,0,8.7-2.9,8.7-8.7V132
					C240.2,126.2,237.3,123.3,231.5,123.3L231.5,123.3z"/>
			</g>
			<g>
				<rect x="84.1" y="69.1" class="st0" width="48.6" height="15.4"/>
				<rect x="84.1" y="100" class="st0" width="48.6" height="15.5"/>
				<rect x="22.5" y="130.9" class="st0" width="31.9" height="15.4"/>
				<rect x="69.9" y="130.9" class="st0" width="62.8" height="15.4"/>
				<rect x="7.1" y="53.6" class="st0" width="15.4" height="15.4"/>
				<rect x="132.7" y="115.4" class="st0" width="15.4" height="15.5"/>
				<path class="st0" d="M22.5,69.1v46.4h47.7V69.1H22.5z M49.7,78.2l1-3.2l1,3.2h3.4l-2.8,2l1,3.2l-2.8-2l-2.8,2l1-3.2l-2.8-2H49.7
					z M41.9,83.7l1,3.2h3.4l-2.8,2l1,3.2l-2.8-2l-2.8,2l1-3.2l-2.8-2h3.4C40.8,86.9,41.9,83.7,41.9,83.7z M31.9,78.2l1-3.2l1,3.2
					h3.4l-2.8,2l1,3.2l-2.8-2l-2.7,2l1-3.2l-2.8-2C28.5,78.2,31.9,78.2,31.9,78.2z M33,98.8l-2.8,2l1-3.2l-2.8-2h3.4l1-3.2l1.1,3.2
					h3.4l-2.8,2l1,3.2C35.7,100.8,33,98.8,33,98.8z M44.6,109.5l-2.8-2l-2.8,2l1-3.2l-2.8-2h3.4l1-3.2l1,3.2h3.4l-2.8,2L44.6,109.5z
					 M50.8,98.8l-2.8,2l1-3.2l-2.8-2h3.4l1-3.2l1,3.2h3.4l-2.8,2l1,3.2L50.8,98.8z M62.4,109.5l-2.8-2l-2.8,2l1-3.2l-2.8-2h3.4
					l1-3.2l1,3.2h3.4l-2.7,2L62.4,109.5z M61.4,88.9l1,3.2l-2.8-2l-2.8,2l1-3.2l-2.8-2h3.4l1-3.2l1,3.2h3.4L61.4,88.9z"/>
			</g>
			<path class="st0" d="M275.9,109.1L257,141.8h7.5l2.5-4.4l0.1-0.2h17.4l0.1,0.2l2.5,4.4h7.6L275.9,109.1L275.9,109.1z
				 M280.8,130.7h-9.9l5-8.6L280.8,130.7L280.8,130.7z"/>
		</g>
	</g>
	<rect class="st1" width="400" height="200"/>
</g>
</svg>
