<svg id="Layer_1" data-name="Layer 1" xmlns="http://www.w3.org/2000/svg" xmlns:xlink="http://www.w3.org/1999/xlink" viewBox="0 0 500 500"><defs><style>.cls-1{fill:none;}.cls-2{clip-path:url(#clip-path);}.cls-3{fill:#923b00;}.cls-4{fill:#ff6b00;}.cls-5{fill:#ff9447;}.cls-6{fill:#fff;}</style><clipPath id="clip-path"><rect class="cls-1" width="500" height="500"/></clipPath></defs><g class="cls-2"><path class="cls-3" d="M68.7,500H485.3V79H53.7V485A15,15,0,0,0,68.7,500Z"/><path class="cls-4" d="M450.4,352H88.9V0H435.4a15,15,0,0,1,15,15Z"/><polygon class="cls-5" points="88.9 352 14.6 397.1 14.6 46 88.9 0 88.9 352"/><polygon class="cls-6" points="342 79 216.6 79 216.6 274.7 265.2 274.7 265.2 195.3 330.7 195.3 330.7 160.6 266.3 160.6 266.3 113.6 342 113.6 342 79"/><path class="cls-6" d="M335.8,463.9c18.4,0,27.9-10.2,27.9-26.1v-24c0-16.2-9.6-26.3-27.9-26.3s-28.4,10.1-28.4,26.3v24C307.4,453.6,317.5,463.9,335.8,463.9Zm0-13.4c-6.6,0-10.3-3.8-10.3-12.8v-24c0-9.4,3.6-13.2,10.3-13.2,6.3,0,9.9,3.9,9.9,13.2v24C345.7,446.8,342,450.5,335.8,450.5Z"/><path class="cls-6" d="M203.9,463.9c16,0,27.7-8.7,27.7-20.4v-4.9c0-9.5-8.7-14.4-15.9-15.6,7.2-1.7,13-7,13-13.1v-4c0-10.7-10.6-18.2-25.4-18.2-17.3,0-27,10-27.5,21.2h17.1c.4-4.6,3.2-8.4,9.4-8.4,5.3,0,8.6,2.4,8.6,7.2v2.5c0,6-5.3,7.7-10.5,7.7h-5.6v12.2h5.6c5.2,0,13.1,1.4,13.1,9.3v2.2c0,6.6-4.2,9.6-10.5,9.6-7.3,0-10.3-4.2-10.8-8.6H175C176.1,453.1,183.4,463.9,203.9,463.9Z"/><path class="cls-6" d="M274.5,414.8c-7.5,0-12.3,2.1-16.1,6.2v-8.2c0-8,3.4-12.3,10.6-12.3,6.3,0,9.8,2.8,10,7.9h16.1c-.5-13.5-10.3-20.9-26.7-20.9-19.9,0-27.9,13.2-27.9,26.4v25.7c0,13.2,9.4,24.3,27.8,24.3,19.2,0,28.4-11.8,28.4-23.4v-4.6C296.8,424.7,288.6,414.8,274.5,414.8Zm4.3,25.3c0,6.2-3.2,10.4-10.4,10.4-7,0-9.9-4.4-9.9-9.9V433a14.91,14.91,0,0,1,11.9-5.4c5.7,0,8.4,3.5,8.4,9Z"/></g></svg>