<svg xmlns="http://www.w3.org/2000/svg" xmlns:xlink="http://www.w3.org/1999/xlink" viewBox="0 0 454.24 500.01"><defs><style>.cls-1{fill:url(#linear-gradient);}.cls-2{fill:url(#linear-gradient-2);}.cls-3{fill:url(#linear-gradient-3);}.cls-4{fill:url(#linear-gradient-4);}.cls-5{fill:url(#linear-gradient-5);}.cls-6{fill:#e02b2b;}.cls-7{fill:url(#linear-gradient-6);}.cls-8{fill:url(#linear-gradient-7);}.cls-9{fill:url(#linear-gradient-8);}.cls-10{fill:url(#linear-gradient-9);}.cls-11{fill:#d97871;}</style><linearGradient id="linear-gradient" x1="55.2" y1="501.74" x2="98.29" y2="391.57" gradientUnits="userSpaceOnUse"><stop offset="0" stop-color="#f38981"/><stop offset="1" stop-color="#974c48"/></linearGradient><linearGradient id="linear-gradient-2" x1="395.93" y1="491.13" x2="338.35" y2="353" gradientUnits="userSpaceOnUse"><stop offset="0" stop-color="#e48078"/><stop offset="1" stop-color="#984c48"/></linearGradient><linearGradient id="linear-gradient-3" x1="140.22" y1="475.31" x2="108.47" y2="434.29" gradientUnits="userSpaceOnUse"><stop offset="0" stop-color="#b82b33"/><stop offset="1" stop-color="#75272b"/></linearGradient><linearGradient id="linear-gradient-4" x1="303.08" y1="374.68" x2="362.06" y2="496.38" gradientUnits="userSpaceOnUse"><stop offset="0" stop-color="#bd2c34"/><stop offset="1" stop-color="#83282d"/></linearGradient><linearGradient id="linear-gradient-5" x1="21.66" y1="374.17" x2="181.7" y2="1.57" gradientUnits="userSpaceOnUse"><stop offset="0" stop-color="#682427"/><stop offset="1" stop-color="#d42323"/></linearGradient><linearGradient id="linear-gradient-6" x1="91.12" y1="349.93" x2="91.77" y2="317.84" gradientUnits="userSpaceOnUse"><stop offset="0" stop-color="#7e2326"/><stop offset="1" stop-color="#d62222"/></linearGradient><linearGradient id="linear-gradient-7" x1="226.93" y1="493.76" x2="236.22" y2="39.61" xlink:href="#linear-gradient-6"/><linearGradient id="linear-gradient-8" x1="162.22" y1="338.03" x2="276.71" y2="88.23" gradientUnits="userSpaceOnUse"><stop offset="0" stop-color="#d77570"/><stop offset="1" stop-color="#722c30"/></linearGradient><linearGradient id="linear-gradient-9" x1="80.64" y1="376.06" x2="347.23" y2="312.12" gradientUnits="userSpaceOnUse"><stop offset="0" stop-color="#702326"/><stop offset="1" stop-color="#bc2324"/></linearGradient></defs><g id="Layer_2" data-name="Layer 2"><g id="Layer_1-2" data-name="Layer 1"><path class="cls-1" d="M66.66,393.68c24.89-4.81,42.19-9.13,65.18-13-20.42,52-38.84,102.08-45.11,119.24l-57.83-4C35.1,474.15,59.84,411.39,66.13,395l.54-1.42Z"/><path class="cls-2" d="M411.17,449.9c7,16.5,13.19,35.9,15.6,43.76l-.31.15-59.77,4.79h-.08c-10.85-31.11-33.27-88.14-55.32-143.08v-.09c22.86-2.5,35.64-4.43,52.94-5.9.85,1.89,1.5,3.35,1.93,4.34,6.25,14.41,35.93,74.76,45,96"/><path class="cls-3" d="M131.85,380.67l6.77-1.13c-3,15.63-5.34,28.59-6.2,32-2.09,8.24-3.48,63.11-3.48,63.11L87.94,500l-1.19-.08c6.27-17.15,24.69-67.19,45.11-119.26"/><path class="cls-4" d="M311.25,355.5c22.09,54.92,44.47,112,55.32,143.07l-31.2-21.22a237.45,237.45,0,0,0-4.86-42.52A763.57,763.57,0,0,0,310,355.65h-.06Z"/><path class="cls-5" d="M170.23,0h30A2571.94,2571.94,0,0,0,44,335.81c-3.61,9.47-6.77,17.9-9.48,25.2-6.93,18.7-10.93,29.82-12.07,31.71,2.67-9.73,5.48-19.88,8.4-30.26,2.07-7.33,4.17-14.79,6.34-22.33,16.29-57,37.8-117.82,51.91-159A1385.42,1385.42,0,0,1,170.23,0"/><path class="cls-6" d="M416.66,346.89c-6.7-24.44-14.17-51.22-22-78-8.85-30.31-22.59-60.6-31.64-87.48-6.75-20.1-14.88-38.28-21.1-53.16A916.1,916.1,0,0,0,279.76,0h-27.2C266.26,26,304,99,345,189.65c11.67,25.79,23.6,53,35.33,81,10.53,25.09,20.87,50.78,30.7,76.6,8,20.87,15.55,41.82,22.64,62.59-4.6-17.24-10.41-39-17-63"/><path class="cls-7" d="M83.76,350.22c5.79-15.5,14.78-33.92,15.42-35.05-.36.65-10.69,22.37-15.42,35.05"/><path class="cls-8" d="M444.48,449.26h0c-1.16-3.09-5.06-17.7-10.85-39.4-7.08-20.76-14.64-41.7-22.64-62.59-9.83-25.82-20.18-51.51-30.7-76.6-11.73-28-23.66-55.21-35.33-81C304,99.06,266.25,26.06,252.56,0H200.27A2572.37,2572.37,0,0,0,44.07,335.81c-3.61,9.47-6.76,17.9-9.48,25.2-6.93,18.66-10.92,29.82-12.06,31.71l-1.62,5.94C10.4,437.38,2.47,469.09,0,483.56l28.19,12.35h.74C35.16,474.15,59.87,411.39,66.16,395l.54-1.42c4.14-11,11.07-27.16,17.78-42.79C164,319,245.29,293.64,329.08,276c14.1,30.28,29.4,61.08,35.15,73.66.83,1.84,1.5,3.26,1.93,4.33,6.29,14.38,36,74.75,45,96,7,16.5,13.19,35.9,15.59,43.76l27.49-8.77S447.33,456.81,444.48,449.26ZM100.91,313.87c15.19-27.6,113.76-230.65,120.48-243.2h0c3.08-5.76,7.23-7.41,12.51,1.36,4.66,7.77,48.67,98.72,62.92,130.56C282.81,209.69,132.57,288.89,100.91,313.87Z"/><path class="cls-9" d="M233.85,72c5.3,7.81,48.82,99,62.92,130.56-12.5,7-19,11.15-33.19,18.44-13.64-37.74-25.77-70.59-29-78.32-4.6-11-12-10-16,1.36-21.7,61.47-38.44,101.5-47.73,127.08-30.69,17-51.23,30.21-70.52,44.1C114.89,280.67,214.6,82.72,221.39,70.66h-.06c2.93-5.2,4.72-4.12,6.09-4.12,1.93,0,3.16.72,6.41,5.48"/><path class="cls-10" d="M329.12,276c14.12,30.25,29.41,61.07,35.15,73.65-17.29,1.46-30.08,3.4-52.94,5.9l-1.31.14c-47,5.15-104.89,12.73-171.4,23.85l-6.77,1.15c-23,3.93-40.29,8.24-65.18,13,7.27-20,11.61-27.63,17.75-43.29l-.09.47C163.39,317.73,245,292.36,329.12,276"/><path class="cls-11" d="M101.55,313.75c3.74-2.82,7.59-5.5,11.48-8.1,1.94-1.3,3.91-2.57,5.87-3.86l5.92-3.78q6-3.74,11.93-7.37t12.07-7.2L161,276.36l12.19-7q12.19-7,24.47-13.82,24.56-13.66,49.26-27.06l24.7-13.39c8.24-4.48,16.48-8.92,24.66-13.45l-.46,1.39L289,188.33l-7-14.66c-2.32-4.89-4.69-9.77-7-14.64l-7.07-14.6-14.25-29.19L239.36,86.09l-3.59-7.29L234,75.16l-.9-1.82-.23-.46-.11-.23-.06-.11c-.16-.3-.34-.59-.5-.83A10.45,10.45,0,0,0,229.85,69,4,4,0,0,0,227,68a4.49,4.49,0,0,0-2.78,1.36,11.23,11.23,0,0,0-2.17,2.9c-.17.27-.29.55-.44.83l-.44.91-.89,1.83-1.81,3.64-3.66,7.26-7.35,14.48Q192.58,130.07,177.9,159t-29.12,58.05l-14.4,29.1q-7.17,14.57-14.24,29.17t-14,29.34c-4.6,9.75-9.2,19.59-13.7,29.42S83.51,353.8,79.16,363.7s-8.51,19.9-12.52,30c3.8-10.13,7.81-20.2,11.93-30.19S87,343.56,91.41,333.66c2.16-5,4.4-9.89,6.6-14.84L104.8,304q6.81-14.76,13.74-29.44t14-29.29c4.7-9.77,9.39-19.53,14.19-29.23Q161,186.9,175.64,157.9t29.29-58l7.38-14.45L216,78.21l1.82-3.61.9-1.83.44-.91c.17-.32.32-.64.5-1a14.38,14.38,0,0,1,2.7-3.55,7.12,7.12,0,0,1,4.41-2,6.24,6.24,0,0,1,2.53.38,8.11,8.11,0,0,1,2.1,1.2,13.48,13.48,0,0,1,2.93,3.41c.21.33.38.62.54.91l.07.11.1.19.1.22.22.46.89,1.82L238,77.71,241.59,85l14.24,29.18L270,143.38,277,158c2.34,4.88,4.7,9.76,7,14.65l7,14.69,6.74,14.79.41.92-.89.48c-8.23,4.49-16.51,8.87-24.78,13.28L247.7,230.06q-24.78,13.24-49.45,26.69l-12.33,6.76-12.29,6.79-12.25,6.85-12.08,6.9q-6.09,3.49-12.14,7.05t-12,7.22l-6,3.68c-2,1.26-4,2.5-5.92,3.77-3.93,2.55-7.81,5.16-11.6,7.91"/><path class="cls-11" d="M84.85,350.65l14.84-5.93,7.44-3,3.7-1.47,3.74-1.43,14.94-5.68c2.5-.94,5-1.91,7.48-2.84l7.52-2.71,15.05-5.43L174.67,317c2.51-.87,5-1.76,7.59-2.6l7.59-2.51,7.6-2.51c2.52-.83,5.06-1.67,7.59-2.45l15.28-4.75,15.33-4.56c2.55-.77,5.11-1.5,7.68-2.16l7.71-2.19,3.85-1.08,3.86-1.09,7.72-2.05q3.87-1.07,7.75-2l7.76-2c2.58-.65,5.18-1.25,7.77-1.9s5.19-1.25,7.8-1.82l7.8-1.74,7.83-1.65c5.24-1.09,10.47-2.07,15.74-3l.78-.12.33.71,10.23,21.75L350.63,319l5.21,10.85c1.73,3.61,3.47,7.23,5.15,10.85l2.55,5.43c.84,1.8,1.7,3.64,2.49,5.46,1.63,3.66,3.25,7.33,4.92,11q5,10.85,10.18,21.78l5.12,10.84L391.34,406l5,10.91,5,10.91,4.94,11c1.63,3.67,3.17,7.37,4.76,11.05-1.67-3.64-3.31-7.3-5-10.93l-5-10.86-5.22-10.85-5.25-10.85L380,384.94q-5.24-10.85-10.43-21.71-2.56-5.42-5-10.91c-.81-1.83-1.67-3.62-2.55-5.42l-2.59-5.43-10.5-21.62-10.46-21.69-10.3-21.71,1.08.59c-5.24.93-10.46,2-15.67,3l-7.79,1.66L298,283.49c-2.61.57-5.19,1.2-7.78,1.8s-5.18,1.22-7.77,1.86l-7.75,2c-2.58.63-5.16,1.28-7.73,2l-7.72,2-3.87,1-3.85,1.09-7.69,2.17c-2.57.71-5.13,1.42-7.68,2.17l-15.33,4.5-15.27,4.7c-2.55.76-5.09,1.57-7.6,2.38l-7.59,2.42L182.74,316c-2.54.81-5.06,1.68-7.6,2.51L160,323.57l-15.09,5.26-7.6,2.63c-2.52.86-5,1.8-7.52,2.69l-15,5.41L111,340.93l-3.74,1.4-7.48,2.82-14.89,5.5"/></g></g></svg>