<svg xmlns="http://www.w3.org/2000/svg" xmlns:xlink="http://www.w3.org/1999/xlink" viewBox="0 0 318.85 500"><defs><style>.cls-1{fill:url(#linear-gradient);}.cls-2{fill:url(#linear-gradient-2);}.cls-3{fill:url(#radial-gradient);}.cls-4{fill:#fdbc5f;}.cls-5{fill:url(#radial-gradient-2);}.cls-6{fill:url(#radial-gradient-3);}</style><linearGradient id="linear-gradient" x1="14729.61" y1="252.31" x2="45972.46" y2="252.31" gradientTransform="matrix(1, 0, 0, -1, 0, 502)" gradientUnits="userSpaceOnUse"><stop offset="0" stop-color="#a75726"/><stop offset="0.28" stop-color="#c5702b"/><stop offset="0.52" stop-color="#d7802f"/><stop offset="0.69" stop-color="#de8530"/><stop offset="0.76" stop-color="#da832f"/><stop offset="0.84" stop-color="#ce7c2e"/><stop offset="0.91" stop-color="#b9702b"/><stop offset="0.99" stop-color="#9d5f26"/><stop offset="0.99" stop-color="#9a5e26"/><stop offset="1" stop-color="#9a5e26"/></linearGradient><linearGradient id="linear-gradient-2" x1="-3981.28" y1="252" x2="1713.56" y2="252" xlink:href="#linear-gradient"/><radialGradient id="radial-gradient" cx="224.08" cy="173.63" r="236.46" gradientTransform="matrix(1, 0, 0, -1, 0, 502)" gradientUnits="userSpaceOnUse"><stop offset="0" stop-color="#ab8052"/><stop offset="0.34" stop-color="#ab8052"/><stop offset="0.37" stop-color="#b18453"/><stop offset="0.65" stop-color="#daa259"/><stop offset="0.87" stop-color="#f4b55e"/><stop offset="1" stop-color="#fdbc5f"/></radialGradient><radialGradient id="radial-gradient-2" cx="6677.69" cy="3748.6" r="1429.58" xlink:href="#radial-gradient"/><radialGradient id="radial-gradient-3" cx="280.74" cy="141.27" r="81.84" gradientTransform="matrix(1, 0, 0, -1, 0, 502)" gradientUnits="userSpaceOnUse"><stop offset="0" stop-color="#de8530"/><stop offset="0.23" stop-color="#da832f"/><stop offset="0.45" stop-color="#ce7c2d"/><stop offset="0.68" stop-color="#ba702a"/><stop offset="0.9" stop-color="#9e6026"/><stop offset="1" stop-color="#8f5723"/></radialGradient></defs><g id="Layer_2" data-name="Layer 2"><g id="Layer_1-2" data-name="Layer 1"><g id="Layer_2-2" data-name="Layer 2"><g id="Layer_1-2-2" data-name="Layer 1-2"><path class="cls-1" d="M55.62,212.64c0-1.14.1-2.28.16-3.41,0-.89.08-1.79.13-2.68.08-1.12.17-2.23.26-3.35.08-.88.14-1.76.22-2.63.11-1.11.24-2.19.37-3.28.1-.87.19-1.74.3-2.6.14-1.08.32-2.14.48-3.21.13-.84.25-1.7.39-2.54.18-1.06.39-2.1.6-3.15.16-.83.3-1.66.48-2.47.22-1,.47-2.09.72-3.12.19-.79.36-1.59.56-2.37.27-1.06.58-2.09.88-3.13.21-.74.4-1.48.62-2.21.33-1.07.69-2.1,1.05-3.15.23-.68.44-1.38.68-2.05.41-1.14.86-2.25,1.3-3.36.22-.56.42-1.13.66-1.68.69-1.66,1.42-3.28,2.19-4.88v-.44l1.3-2.38.24-.45A152.2,152.2,0,0,1,87,127.83a120.8,120.8,0,0,1,31.49-23.48C146.17,89.83,178.7,85,209.45,85c55.42,0,109.35,17.33,109.39,17.54a4.21,4.21,0,0,0-.15-.74c-1.76-8.71-10-48.95-15.76-66.26A25.22,25.22,0,0,0,290,22.63,1196.83,1196.83,0,0,0,95.35.18c-1.5,0-3-.14-4.5-.18-.14,0-65.33,61.54-60.1,191.38h0q.32,16.78,2.42,35.08V227q.39,3.25.84,6.55c.07.46.13.92.19,1.38q.45,3.14.94,6.33c.08.54.17,1.07.26,1.61.34,2.13.69,4.27,1.07,6.43.08.44.17.9.25,1.35q2.6,14.16,6.28,29.18c.22.84.42,1.69.64,2.54q.73,2.87,1.52,5.78c.29,1.09.58,2.18.89,3.27.51,1.85,1,3.72,1.57,5.59.35,1.2.71,2.42,1.07,3.63.54,1.83,1.08,3.66,1.65,5.5.4,1.29.81,2.58,1.22,3.88.58,1.82,1.15,3.64,1.75,5.48.45,1.36.92,2.74,1.38,4.11q1.47,4.35,3,8.78c.68,1.91,1.35,3.81,2.05,5.74.59,1.59,1.2,3.21,1.81,4.82s1.28,3.43,2,5.17,1.28,3.26,1.93,4.89,1.39,3.51,2.11,5.29c.65,1.62,1.33,3.25,2,4.89.76,1.83,1.53,3.68,2.32,5.53.68,1.6,1.36,3.2,2.06,4.81.85,1.95,1.71,3.91,2.6,5.9.69,1.54,1.37,3.07,2.07,4.62,1,2.24,2.06,4.49,3.11,6.75.61,1.31,1.2,2.6,1.82,3.92q2.5,5.3,5.14,10.67c.46.94,1,1.89,1.42,2.83,1.35,2.74,2.72,5.48,4.13,8.25.71,1.39,1.45,2.81,2.18,4.21,1.22,2.35,2.44,4.71,3.7,7.09l2.43,4.56q1.86,3.46,3.78,7c.84,1.55,1.7,3.1,2.56,4.65,1.33,2.39,2.67,4.79,4,7.2l2.57,4.53q2.28,4,4.64,8c.75,1.29,1.49,2.57,2.26,3.86q3.53,6,7.21,12c3.5,5.45,6.78,10.83,9.7,15.57,1.73,2.75,3.45,5.48,5.24,8.26-.15-.34-.37-.79-.6-1.28h0c-4.14-8.61-20.42-40-37.9-81.48,0-.09-.08-.18-.11-.27-.76-1.81-1.53-3.63-2.29-5.48-.07-.16-.14-.33-.2-.49q-1.11-2.67-2.21-5.38c-.1-.23-.19-.47-.29-.7-.7-1.74-1.41-3.49-2.11-5.25l-.39-1c-.67-1.69-1.33-3.39-2-5.1L96,391.75c-.65-1.66-1.3-3.32-1.94-5l-.53-1.38c-.61-1.61-1.23-3.23-1.84-4.87-.2-.52-.39-1.05-.59-1.57l-1.77-4.78-.62-1.68L87,367.72c-.21-.59-.43-1.19-.64-1.79-.55-1.56-1.11-3.13-1.66-4.71-.22-.62-.43-1.25-.65-1.88q-.81-2.32-1.6-4.66c-.22-.67-.45-1.34-.67-2q-.78-2.28-1.53-4.58l-.67-2.1c-.49-1.51-1-3-1.46-4.54-.24-.74-.47-1.47-.7-2.21-.47-1.49-.93-3-1.39-4.48-.24-.77-.47-1.53-.7-2.29-.45-1.48-.89-3-1.33-4.45l-.69-2.35c-.43-1.46-.85-2.93-1.27-4.4-.23-.81-.45-1.62-.68-2.43-.4-1.45-.8-2.9-1.19-4.35-.23-.82-.45-1.64-.67-2.47-.38-1.44-.76-2.89-1.13-4.34-.22-.83-.43-1.66-.64-2.49-.36-1.43-.71-2.86-1.06-4.29-.21-.86-.42-1.71-.62-2.57-.34-1.4-.66-2.8-1-4.2q-.31-1.32-.6-2.64c-.31-1.38-.61-2.76-.91-4.13L63,284.64c-.28-1.37-.55-2.73-.82-4.09-.18-.9-.36-1.8-.53-2.7-.26-1.35-.51-2.7-.75-4-.17-.91-.33-1.82-.49-2.72-.23-1.33-.45-2.66-.67-4l-.45-2.75c-.2-1.31-.39-2.61-.58-3.92-.14-.92-.27-1.84-.4-2.76-.18-1.3-.34-2.59-.5-3.89-.12-.91-.23-1.83-.34-2.74-.15-1.28-.28-2.55-.42-3.83-.1-.92-.19-1.85-.28-2.77-.12-1.25-.23-2.49-.33-3.74-.08-.92-.16-1.85-.22-2.77-.09-1.23-.17-2.45-.24-3.68,0-.92-.11-1.85-.16-2.77-.06-1.21-.1-2.41-.14-3.61,0-.92-.07-1.84-.09-2.76v-6.28c0-1.17,0-2.32.06-3.47A25.34,25.34,0,0,1,55.62,212.64Z"/><path class="cls-2" d="M144.7,499.56c-1.58-2.41-3.38-5.29-5.34-8.48-2.92-4.74-6.2-10.12-9.7-15.57q-3.69-6.06-7.21-12c-.77-1.29-1.51-2.57-2.26-3.86q-2.35-4-4.64-8c-.87-1.52-1.71-3-2.57-4.53-1.33-2.41-2.67-4.81-4-7.2-.86-1.55-1.72-3.1-2.56-4.65q-1.92-3.51-3.78-7l-2.43-4.56c-1.26-2.38-2.48-4.74-3.7-7.09-.73-1.4-1.47-2.82-2.18-4.21-1.41-2.77-2.78-5.51-4.13-8.25-.47-.94-1-1.89-1.42-2.83Q86.1,396,83.6,390.69c-.62-1.32-1.21-2.61-1.82-3.92-1-2.26-2.1-4.51-3.11-6.75-.7-1.55-1.38-3.08-2.07-4.62L74,369.5c-.7-1.61-1.38-3.21-2.06-4.81-.79-1.85-1.56-3.7-2.32-5.53-.68-1.64-1.36-3.27-2-4.89s-1.42-3.53-2.11-5.29-1.3-3.27-1.93-4.89-1.31-3.45-2-5.17-1.22-3.23-1.81-4.82c-.7-1.93-1.37-3.83-2.05-5.74-1-2.95-2-5.87-3-8.78-.46-1.37-.93-2.75-1.38-4.11-.6-1.84-1.17-3.66-1.75-5.48-.41-1.3-.82-2.59-1.22-3.88-.57-1.84-1.11-3.67-1.65-5.5-.36-1.21-.72-2.42-1.07-3.63-.54-1.87-1.06-3.74-1.57-5.59-.31-1.09-.6-2.18-.89-3.27q-.78-2.91-1.52-5.78c-.22-.85-.42-1.7-.64-2.54q-3.73-15-6.27-29.18c-.08-.45-.17-.91-.25-1.35-.38-2.16-.73-4.3-1.07-6.43-.09-.54-.18-1.07-.26-1.61q-.49-3.19-.94-6.33c-.06-.46-.12-.92-.19-1.38q-.45-3.3-.84-6.55v-.51c-1.44-12.2-2.21-23.89-2.42-35.08C25.52,61.54,90.71,0,90.85,0l-.66.18A833.37,833.37,0,0,0,0,30.75c0,55,3.22,352.75,12.89,456.3,11.43,8.61,106.35,12.13,127.82,12.82l4.18.13Z"/><path class="cls-3" d="M135.35,163.4H70.9l-3-5.94-.15-.3-.11.21c-.77,1.6-1.5,3.22-2.19,4.88-.24.55-.44,1.12-.66,1.68-.44,1.11-.89,2.22-1.3,3.36-.24.67-.45,1.37-.68,2.05-.36,1-.72,2.08-1.05,3.15-.22.73-.41,1.47-.62,2.21-.3,1-.61,2.07-.88,3.13-.2.78-.37,1.58-.56,2.37-.24,1-.5,2.07-.72,3.12-.18.81-.32,1.64-.48,2.47-.21,1.05-.42,2.09-.6,3.15-.14.84-.26,1.7-.39,2.54-.16,1.07-.34,2.13-.48,3.21-.11.86-.2,1.73-.3,2.6-.13,1.09-.26,2.17-.37,3.28-.08.87-.14,1.75-.22,2.63-.09,1.12-.18,2.23-.26,3.35,0,.89-.09,1.79-.13,2.68-.06,1.13-.12,2.27-.16,3.41v2.72c0,1.15,0,2.3-.06,3.47v6.28c0,.92.06,1.84.09,2.76,0,1.2.08,2.4.14,3.61,0,.92.11,1.85.16,2.77.07,1.23.15,2.45.24,3.68.06.92.14,1.85.22,2.77.1,1.25.21,2.49.33,3.74.09.92.18,1.85.28,2.77.14,1.28.27,2.55.42,3.83.11.91.22,1.83.34,2.74.16,1.29.32,2.59.5,3.89.13.92.26,1.84.4,2.76.19,1.31.38,2.61.58,3.92l.45,2.75c.22,1.33.44,2.66.67,4,.16.9.32,1.81.49,2.72.24,1.34.49,2.69.75,4,.17.9.35,1.8.53,2.7.27,1.36.54,2.72.82,4.09l.57,2.69c.3,1.37.6,2.75.91,4.13q.28,1.32.6,2.64c.32,1.4.64,2.8,1,4.2.2.86.41,1.71.62,2.57.35,1.43.7,2.86,1.06,4.29.21.83.42,1.66.64,2.49.37,1.45.75,2.9,1.13,4.34.22.82.44,1.65.67,2.47.39,1.45.79,2.9,1.19,4.35.23.81.45,1.62.68,2.43.42,1.47.84,2.94,1.27,4.4L74,328c.44,1.48.88,3,1.33,4.45.23.76.46,1.52.7,2.29.46,1.49.92,3,1.39,4.48.23.74.46,1.47.7,2.21.48,1.51,1,3,1.46,4.54l.69,2.12q.75,2.3,1.53,4.58c.22.68.45,1.35.67,2,.53,1.56,1.07,3.11,1.6,4.66.22.63.43,1.26.65,1.88.55,1.58,1.11,3.15,1.66,4.71.21.6.43,1.2.64,1.79l1.71,4.75.62,1.68,1.77,4.78c.2.52.39,1.05.59,1.57.61,1.64,1.23,3.26,1.84,4.87l.53,1.38c.64,1.68,1.29,3.34,1.94,5l.45,1.16c.67,1.71,1.33,3.41,2,5.1l.39,1c.7,1.76,1.41,3.51,2.11,5.25.1.23.19.47.29.7.73,1.81,1.46,3.6,2.21,5.38.06.16.13.33.2.49.76,1.84,1.53,3.67,2.29,5.48a.77.77,0,0,0,.11.27c17.49,41.53,33.76,72.87,37.9,81.48h0c.24.49.45.94.6,1.28l.38.59a663.78,663.78,0,0,1,0-112.79c3.22-35.6,6.45-64.73,51.56-77.67a897.5,897.5,0,0,1,116-16.13h0c-3.29-.06-22.76-9.66-128-9.71h-.9c-34.25,0-49.39-18.28-48.81-35.89.51-15.55,13.25-30.58,35.92-32.1,3.71-.12,7.43-.2,11.14-.27,1.17,0,2.33-.07,3.5-.09h2.7c4.3-.06,8.6-.11,12.9-.11h3c2.35,0,4.7,0,7,.06,3,0,6,.07,8.94.14s5.9.13,8.84.22c2.51.08,5,.18,7.52.27,3,.12,6.06.23,9.09.38q8,.41,16,.92l3.28.22c4.64.33,9.27.71,13.91,1.11,1.53.13,3.41.25,4.94.39-4.69-.75-62.26-10.89-103.23-18.38-22.78-4.64-41.31-20.76-41.73-43.68v.12Z"/><path class="cls-4" d="M138.6,154.34v-.24H69.21c-.12.22-.22.47-.33.71-.37.78-.72,1.61-1.1,2.35l.15.3,3,5.94h64.45l3.25-6.47v-.12C138.61,156,138.56,155.17,138.6,154.34Z"/><path class="cls-5" d="M209.45,85c-30.75,0-63.28,4.8-90.95,19.32A120.9,120.9,0,0,0,87,127.83,152.26,152.26,0,0,0,69.2,154.1h69.4v2.71c3.29-19.43,25.91-51.65,103.1-48.43h0c61.34,5.14,74-1.94,76.65-5.09a3.77,3.77,0,0,0,.5-.75C318.8,102.36,264.87,85,209.45,85Z"/><path class="cls-4" d="M283.59,218.9c-1.65-.16-3.3-.28-4.94-.42-4.64-.4-9.27-.78-13.91-1.11l-3.28-.22q-8-.53-16-.92c-3-.15-6.06-.26-9.09-.38-2.5-.09-5-.19-7.52-.27-2.94-.09-5.89-.17-8.84-.22s-6-.11-8.94-.14c-2.35,0-4.7-.06-7-.06q-8,0-15.89.08h-2.7c-1.17,0-2.33.06-3.5.09-3.71.08-7.43.17-11.14.3-22.66,1.52-35.4,16.53-35.92,32.07-.57,17.6,14.58,35.87,48.81,35.87h.9c105.23-3.15,124.68,6.45,128,9.71h0l-29-74.44h-.34Z"/><path class="cls-6" d="M184.59,283.6c105.21,0,124.68,9.65,128,9.71C309.27,290.05,289.82,280.45,184.59,283.6Z"/></g></g></g></g></svg>