<?xml version="1.0" encoding="utf-8"?>
<!-- Generator: Adobe Illustrator 26.3.1, SVG Export Plug-In . SVG Version: 6.00 Build 0)  -->
<svg version="1.1" id="Layer_1" xmlns="http://www.w3.org/2000/svg" xmlns:xlink="http://www.w3.org/1999/xlink" x="0px" y="0px"
	 viewBox="0 0 500 500" style="enable-background:new 0 0 500 500;" xml:space="preserve">
<style type="text/css">
	.st0{fill:#358CCB;}
	.st1{fill:none;}
</style>
<g>
	<path class="st0" d="M112.2,250c0,0-1.3,17.3,16.8,17.3h29.7c1.5,0,2.7,1.2,2.8,2.8c0,1.5-1.2,2.7-2.8,2.8h-30.2
		c0,0-22.3,1.2-22.3-22.8s22.3-22.8,22.3-22.8h30.2c1.5,0,2.7,1.2,2.8,2.8c0,1.5-1.2,2.7-2.8,2.8H129
		C110.7,232.7,112.2,250,112.2,250 M330.1,234.3c0.8-0.6,3-1.7,4.9-1.7h32.3c1.5,0,2.7-1.2,2.8-2.8c0-1.5-1.2-2.7-2.8-2.8h-33.2
		c-4.8,0-8.2,1.9-10.6,4.8c-2.3,2.8-2.9,6.2-2.9,8.1h6.2C327.1,236.9,329,235.2,330.1,234.3 M363.9,265.7c-0.8,0.6-3,1.7-4.9,1.7
		h-35.3c-1.5,0-2.7,1.2-2.7,2.8c0,1.5,1.2,2.7,2.7,2.8h36.2c4.8,0,8.2-1.9,10.6-4.8c2.3-2.8,2.9-6.2,2.9-8.1h-6.2
		C367,263.1,365.1,264.9,363.9,265.7 M359.8,247.3H335c-1.9,0-4.1-1.1-4.9-1.7c-1.2-0.8-3.1-2.6-3.1-5.7h-6.2c0,1.8,0.6,5.3,2.9,8.1
		c2.4,2.8,5.8,4.8,10.6,4.8h24.8c1.9,0,4.1,1.1,4.9,1.7c1.2,0.8,3.1,2.6,3.1,5.7h6.2c0-1.8-0.6-5.3-2.9-8.1
		C367.9,249.2,364.5,247.3,359.8,247.3 M497.2,267.4h-37.4V230c0-1.5-1.2-2.7-2.7-2.8c-1.5,0-2.7,1.2-2.8,2.8v42.8h42.9
		c1.5,0,2.7-1.2,2.8-2.8C500,268.5,498.8,267.4,497.2,267.4 M306.8,227.2c-0.8,0-1.5,0.3-2,0.9l-29.1,29.1l-29.3-29.3
		c-0.5-0.4-1.1-0.7-1.8-0.7c-1.5,0-2.7,1.2-2.7,2.8v42.8h5.5v-36.2l26.5,26.5l0.3,0.2l0.2,0.2l0.2,0.1l0.2,0.1c0.8,0.3,1.5,0.2,2,0
		h0.1l0.4-0.2l0.1-0.1l0.4-0.3l26.4-26.4v36.3h5.5V230C309.6,228.5,308.3,227.2,306.8,227.2 M232.4,250c0,24-22.3,22.8-22.3,22.8
		h-18.7c0,0-22.3,1.2-22.3-22.8s22.3-22.8,22.3-22.8h18.7C210.1,227.2,232.4,226,232.4,250 M209.7,232.7h-17.8
		c-18.2,0-16.8,17.3-16.8,17.3s-1.3,17.3,16.8,17.3h17.8c18.2,0,16.8-17.3,16.8-17.3S227.8,232.7,209.7,232.7 M444.4,250
		c0,24-22.3,22.8-22.3,22.8h-18.7c0,0-22.3,1.2-22.3-22.8s22.3-22.8,22.3-22.8h18.7C422.1,227.2,444.4,226,444.4,250 M421.6,232.7
		h-17.7c-18.2,0-16.8,17.3-16.8,17.3s-1.3,17.3,16.8,17.3h17.7c18.2,0,16.8-17.3,16.8-17.3S439.7,232.7,421.6,232.7 M84.2,233.9
		c0-3.7-3-6.7-6.7-6.7H51.8c-3.7,0-6.7,3-6.7,6.7v32.3c0,3.7,3,6.7,6.7,6.7h25.7c3.7,0,6.7-3,6.7-6.7V233.9z M32.3,227.2H6.7
		c-3.7,0-6.7,3-6.7,6.7c0,1.6,0.6,3,1.5,4.2v0.1l25.7,32.3h0.1c1.2,1.4,3,2.4,5.1,2.4c3.7,0,6.7-3,6.7-6.7v-32.3
		C39,230.2,36,227.2,32.3,227.2"/>
	<rect class="st1" width="500" height="500"/>
</g>
</svg>
