<svg xmlns="http://www.w3.org/2000/svg" viewBox="0 0 450 450"><defs><style>.cls-1{fill:#fff;}</style></defs><g id="Layer_2" data-name="Layer 2"><g id="Layer_1-2" data-name="Layer 1"><path class="cls-1" d="M180.72,293.11h0c-2,6-12.51,37.6-15.88,47.49-5.62,16.53-20.25,26.46-37.21,25.39-17.69-1.12-31.8-14.12-33.54-33a38.16,38.16,0,0,1,1.85-15.25q30.28-93.08,61.35-185.9c10.61-31.56,40.74-50.49,74-47.61,13.37,1.15,25.77,5.39,37.49,11.71,10.14,5.46,16.8,14.06,20.36,24.84q32.63,98.67,65,197.43c6.87,21-4.83,42.5-25.71,47.06-10.54,2.3-20.47-.54-29.76-5.81-17.34-9.83-93.74-52.85-114.57-64.59C183.07,294.31,182.07,293.82,180.72,293.11Zm165.15,20.57h0c-3.1,2.71-5.84,1.4-8.69-.24q-52.14-30-104.31-60c-12.58-7.28-25.33-13.77-40.13-15.25-19.32-1.93-37.21,1.53-52.93,13.47a50.46,50.46,0,0,0-13.31,15.08h0a37.88,37.88,0,0,1,27.77,4.28c36.75,20.77,136.87,77.49,150.44,84.58,15.37,8,31.34,4.53,39.92-8.2C351.91,336.63,351.16,325.39,345.87,313.68Zm-3.33-4.31-1.56-.89c4.76,2.7.44-9.08-1.06-13.76-6.72-21-44.62-135.45-56.54-171.84-3.46-10.54-9.68-17.37-21.35-19.06-8.39-1.22-14.78.75-19.25,7.94a48.29,48.29,0,0,0-4.45,9c-3.06,8.54-5.93,17.15-8.68,25.8a8.7,8.7,0,0,0,.12,5q18.36,55.82,37,111.55a9.16,9.16,0,0,0,3.8,4.56c20.62,12.09,41.33,24,62,36C335.88,305.57,339.22,307.46,342.54,309.37Zm-87-213.07h0c-4.48-1.39-8.92-3-13.45-4.15a65.41,65.41,0,0,0-79.53,43q-20.85,62.66-41.5,125.38c-.31.94-.5,1.92-.74,2.88,18.23-26,44-33.75,74.1-31.22h0c.46-1.22.88-2.23,1.23-3.27q14.28-42.81,28.56-85.61c3.16-9.43,6-19,9.81-28.17C237.94,105.65,244.17,98.21,255.57,96.3ZM130,360c13.19,0,24.45-8,28.86-20.83,5.35-15.61,10.4-31.31,15.71-46.93a2.93,2.93,0,0,0-1.39-3.54c-7.5-4.05-14.91-8.26-22.3-12.51a30.51,30.51,0,0,0-19.77-3.91c-7.7,1-14.64,4.35-17.51,11.63-4.82,12.23-8.64,24.88-12.43,37.48A30,30,0,0,0,130,360ZM259.5,261.13,225.6,158.62h0c-8.27,24.75-16.54,49.49-24.94,74.64h0c22,4.26,39,18.39,58.84,27.87Z"/><path class="cls-1" d="M12.5,161.5h0A12.5,12.5,0,0,1,0,149V37.5A37.5,37.5,0,0,1,37.5,0H149a12.5,12.5,0,0,1,12.5,12.5h0A12.5,12.5,0,0,1,149,25H37.5A12.5,12.5,0,0,0,25,37.5V149A12.5,12.5,0,0,1,12.5,161.5Z"/><path class="cls-1" d="M437.5,161.5h0A12.5,12.5,0,0,0,450,149V37.5A37.5,37.5,0,0,0,412.5,0H301a12.5,12.5,0,0,0-12.5,12.5h0A12.5,12.5,0,0,0,301,25H412.5A12.5,12.5,0,0,1,425,37.5V149A12.5,12.5,0,0,0,437.5,161.5Z"/><path class="cls-1" d="M12.5,288.5h0A12.5,12.5,0,0,0,0,301V412.5A37.5,37.5,0,0,0,37.5,450H149a12.5,12.5,0,0,0,12.5-12.5h0A12.5,12.5,0,0,0,149,425H37.5A12.5,12.5,0,0,1,25,412.5V301A12.5,12.5,0,0,0,12.5,288.5Z"/><path class="cls-1" d="M437.5,288.5h0A12.5,12.5,0,0,1,450,301V412.5A37.5,37.5,0,0,1,412.5,450H301a12.5,12.5,0,0,1-12.5-12.5h0A12.5,12.5,0,0,1,301,425H412.5A12.5,12.5,0,0,0,425,412.5V301A12.5,12.5,0,0,1,437.5,288.5Z"/></g></g></svg>
