<svg xmlns="http://www.w3.org/2000/svg" viewBox="0 0 75 75"><defs><style>.cls-1{fill:#fff;}</style></defs><g id="Layer_2" data-name="Layer 2"><g id="Layer_1-2" data-name="Layer 1"><g id="Layer_2-2" data-name="Layer 2"><g id="logo_A" data-name="logo A"><path class="cls-1" d="M30.1,48.9h0c-.3,1-2.1,6.3-2.6,7.9a6.06,6.06,0,0,1-11.8-1.3A5.24,5.24,0,0,1,16,53c3.4-10.3,6.8-20.7,10.3-31a11.57,11.57,0,0,1,12.3-7.9A16.6,16.6,0,0,1,44.8,16a7.22,7.22,0,0,1,3.4,4.1C51.8,31.1,55.4,42,59,53a6,6,0,0,1-3.6,7.7c-.2.1-.4.1-.6.2a6.84,6.84,0,0,1-5-1c-2.9-1.6-15.6-8.8-19.1-10.8Zm27.5,3.4h0a1.2,1.2,0,0,1-1.4,0c-5.8-3.3-11.6-6.7-17.4-10a16,16,0,0,0-6.7-2.5A12.46,12.46,0,0,0,23.3,42a7.51,7.51,0,0,0-2.2,2.5h0a6.16,6.16,0,0,1,4.6.7c6.2,3.5,22.8,12.9,25.1,14.1,2.6,1.3,5.2.8,6.7-1.4A5.6,5.6,0,0,0,57.6,52.3Zm-.5-.8-.3-.1c.8.5.1-1.5-.2-2.3-1.1-3.5-7.4-22.6-9.4-28.6a4.15,4.15,0,0,0-3.6-3.2,2.87,2.87,0,0,0-3.1,1.3,10.93,10.93,0,0,0-.8,1.5c-.5,1.4-1,2.9-1.4,4.3a1.1,1.1,0,0,0,0,.8c2,6.2,4.1,12.4,6.2,18.6a2.41,2.41,0,0,0,.6.8c3.4,2,6.9,4,10.3,6ZM42.6,16.1h0c-.8-.2-1.5-.5-2.2-.7a10.9,10.9,0,0,0-13.2,7.1c-2.3,7-4.6,14-6.9,20.9a.9.9,0,0,0-.1.5c3-4.3,7.3-5.6,12.4-5.2h0a1.69,1.69,0,0,0,.2-.5c1.6-4.8,3.2-9.5,4.8-14.2.5-1.6,1-3.2,1.6-4.7A4,4,0,0,1,42.6,16.1ZM21.7,60a5,5,0,0,0,4.8-3.5c.9-2.6,1.7-5.2,2.6-7.8a.48.48,0,0,0-.2-.6c-1.2-.7-2.5-1.4-3.7-2.1a5.51,5.51,0,0,0-3.3-.7A3.38,3.38,0,0,0,19,47.2c-.8,2-1.4,4.1-2.1,6.2a5,5,0,0,0,3.4,6.2A2.3,2.3,0,0,0,21.7,60ZM43.3,43.5,37.6,26.4h0c-1.4,4.1-2.8,8.2-4.2,12.4h0c3.7.8,6.5,3.1,9.9,4.7Z"/><path class="cls-1" d="M2.1,26.9h0A2.11,2.11,0,0,1,0,24.8H0V6.2A6.17,6.17,0,0,1,6.2,0H24.8a2.11,2.11,0,0,1,2.1,2.1h0a2.05,2.05,0,0,1-2.1,2.1H6.2A2.11,2.11,0,0,0,4.1,6.3h0V24.9A1.94,1.94,0,0,1,2.1,26.9Z"/><path class="cls-1" d="M72.9,26.9h0A2.11,2.11,0,0,0,75,24.8h0V6.2A6.17,6.17,0,0,0,68.8,0H50.2a2.11,2.11,0,0,0-2.1,2.1h0a2.05,2.05,0,0,0,2.1,2.1H68.8a2.11,2.11,0,0,1,2.1,2.1V24.9a1.94,1.94,0,0,0,2,2Z"/><path class="cls-1" d="M2.1,48.1h0A2.11,2.11,0,0,0,0,50.2H0V68.8A6.17,6.17,0,0,0,6.2,75H24.8a2.11,2.11,0,0,0,2.1-2.1h0a2.05,2.05,0,0,0-2.1-2.1H6.2a2.11,2.11,0,0,1-2.1-2.1V50.2A2,2,0,0,0,2.1,48.1Z"/><path class="cls-1" d="M72.9,48.1h0A2.11,2.11,0,0,1,75,50.2h0V68.8A6.17,6.17,0,0,1,68.8,75H50.2a2.11,2.11,0,0,1-2.1-2.1h0a2.05,2.05,0,0,1,2.1-2.1H68.8a2.11,2.11,0,0,0,2.1-2.1V50.2a2,2,0,0,1,2-2.1Z"/></g></g></g></g></svg>