<?xml version="1.0" encoding="utf-8"?>
<!-- Generator: Adobe Illustrator 28.1.0, SVG Export Plug-In . SVG Version: 6.00 Build 0)  -->
<svg version="1.1" id="Layer_1" xmlns="http://www.w3.org/2000/svg" xmlns:xlink="http://www.w3.org/1999/xlink" x="0px" y="0px"
	 viewBox="0 0 75 75" style="enable-background:new 0 0 75 75;" xml:space="preserve">
<style type="text/css">
	.st0{fill:none;}
	.st1{fill:#00BAEB;}
</style>
<g>
	<g>
		<circle class="st0" cx="37.5" cy="37.5" r="35"/>
		<g>
			<g>
				<polygon id="M_00000013165992957051825030000014181246928916455837_" class="st1" points="28.8,20.1 28.8,57.3 25.3,51.3 
					25.3,23.6 21.8,23.6 21.8,45.2 18.3,39.2 18.3,23.6 13.3,23.6 15.4,27.2 15.4,34.2 7.3,20.1 				"/>
				<path id="A_00000040574275081089831980000016557082845165341079_" class="st1" d="M40.4,41.7h-5.8v25.7l-3.5-6V20.1h12.8v41.3
					l-3.5,6V41.7z M34.6,37.5h5.8v-14h-5.8L34.6,37.5L34.6,37.5z"/>
				<polygon id="H_00000143608231289076081550000013371495267174160274_" class="st1" points="49.7,31.7 57,31.7 53.2,38.3 
					53.2,45.2 67.7,20.1 63.7,20.1 59,28.2 49.7,28.2 49.7,20.1 46.2,20.1 46.2,57.3 49.7,51.3 				"/>
			</g>
			<path class="st1" d="M39.2,68.7c-0.5,0-1.1,0-1.7,0c-0.6,0-1.1,0-1.7,0c-0.2,0-0.3,0-0.5,0l2.1,3.7l2.1-3.7
				C39.5,68.7,39.3,68.7,39.2,68.7z"/>
		</g>
	</g>
	<rect class="st0" width="75" height="75"/>
</g>
</svg>
