<?xml version="1.0" encoding="utf-8"?>
<!-- Generator: Adobe Illustrator 26.3.1, SVG Export Plug-In . SVG Version: 6.00 Build 0)  -->
<svg version="1.1" id="Layer_1" xmlns="http://www.w3.org/2000/svg" xmlns:xlink="http://www.w3.org/1999/xlink" x="0px" y="0px"
	 viewBox="0 0 75 75" style="enable-background:new 0 0 75 75;" xml:space="preserve">
<style type="text/css">
	.st0{fill:#FFFFFF;}
	.st1{fill:none;}
</style>
<g>
	<g>
		<polygon id="M" class="st0" points="27.5,15.2 27.5,57.8 23.5,50.9 23.5,19.2 19.5,19.2 19.5,44 15.5,37.1 15.5,19.2 9.8,19.2 
			12.2,23.3 12.2,31.3 2.9,15.2 		"/>
		<path id="A" class="st0" d="M40.8,39.8h-6.6v29.4l-4-6.9V15.2h14.6v47.1l-4,6.9V39.8z M34.1,35.1h6.6V19.2h-6.6V35.1z"/>
		<polygon id="H" class="st0" points="51.4,28.5 59.7,28.5 55.4,36 55.4,44 72,15.2 67.4,15.2 62,24.5 51.4,24.5 51.4,15.2 
			47.4,15.2 47.4,57.8 51.4,50.9 		"/>
		<path class="st0" d="M39.3,70.8c-0.6,0-1.3,0.1-1.9,0.1c-0.6,0-1.3,0-1.9-0.1c-0.2,0-0.4,0-0.5,0l2.4,4.2l2.4-4.2
			C39.7,70.8,39.5,70.8,39.3,70.8z"/>
		<path class="st0" d="M37.4,0C26.4,0,16.5,5.1,10.1,13.1c0,0,0,0,0,0c6.8-4.7,15.1-7.5,24-7.5c7.6,0,14.7,2,20.9,5.5l-5.8,2.1h9.1
			h6.6C58.5,5.2,48.5,0,37.4,0z"/>
		<path class="st0" d="M7.1,52.7c5.5,9.6,14.9,15.6,25,17.1c0,0,0,0,0,0c-7.5-3.6-14-9.3-18.5-17.1C9.8,46.2,8,39.1,7.9,32l4.7,4
			l-4.6-7.9l-3.3-5.7C1,32,1.5,43.1,7.1,52.7z"/>
		<path class="st0" d="M67.9,52.7c5.5-9.6,6-20.7,2.3-30.2c0,0,0,0,0,0c0.7,8.3-1.1,16.8-5.5,24.6c-3.8,6.6-9.1,11.7-15.2,15.3
			l1.1-6.1L46,64.1l-3.3,5.7C53,68.3,62.4,62.3,67.9,52.7z"/>
	</g>
	<rect class="st1" width="75" height="75"/>
</g>
</svg>
