<?xml version="1.0" encoding="utf-8"?>
<!-- Generator: Adobe Illustrator 26.3.1, SVG Export Plug-In . SVG Version: 6.00 Build 0)  -->
<svg version="1.1" id="Layer_1" xmlns="http://www.w3.org/2000/svg" xmlns:xlink="http://www.w3.org/1999/xlink" x="0px" y="0px"
	 viewBox="0 0 300 300" style="enable-background:new 0 0 300 300;" xml:space="preserve">
<style type="text/css">
	.st0{fill:#3F3F3F;}
	.st1{fill:none;}
</style>
<g>
	<g>
		<g>
			<polygon id="M" class="st0" points="109.9,60.8 109.9,231 94,203.4 94,76.7 78,76.7 78,175.8 62.1,148.2 62.1,76.7 39.2,76.7 
				48.8,93.3 48.8,125.2 11.6,60.8 			"/>
			<path id="A" class="st0" d="M163,159.4h-26.6V277l-15.9-27.6V60.8H179v188.6L163,277V159.4z M136.5,140.5H163V76.7h-26.6V140.5z"
				/>
			<polygon id="H" class="st0" points="205.5,113.9 238.8,113.9 221.5,143.9 221.5,175.8 287.8,60.8 269.4,60.8 248,98 205.5,98 
				205.5,60.8 189.6,60.8 189.6,231 205.5,203.4 			"/>
		</g>
		<path class="st0" d="M157.3,283.2c-2.5,0.1-5.1,0.2-7.6,0.2c-2.6,0-5.1-0.1-7.6-0.2c-0.7,0-1.4-0.1-2.2-0.1l9.8,16.9l9.8-16.9
			C158.8,283.1,158.1,283.2,157.3,283.2z"/>
	</g>
	<g>
		<path class="st0" d="M149.7,0C105.5,0,66.1,20.4,40.4,52.3c0,0-0.1,0.1-0.1,0.1c27.3-18.9,60.5-29.9,96.2-29.9
			c30.3,0,58.8,8,83.5,22l-23.1,8.4h36.5h26.3C233.8,20.6,194.2,0,149.7,0z"/>
		<path class="st0" d="M28.3,210.9c22.1,38.3,59.5,62.2,100,68.6c0,0,0.1,0,0.1,0c-30-14.2-56.2-37.4-74-68.3
			c-15.2-26.3-22.5-54.9-22.7-83.2l18.8,15.8l-18.2-31.6L19.1,89.4C4.1,127.8,6.1,172.5,28.3,210.9z"/>
		<path class="st0" d="M271.7,210.7c22.1-38.3,24.1-82.6,9.4-120.9c0,0,0-0.1,0-0.1c2.7,33.1-4.3,67.3-22.2,98.3
			c-15.2,26.3-36.3,46.9-60.7,61.3l4.3-24.2l-18.2,31.6L171,279.3C211.8,273.1,249.5,249.1,271.7,210.7z"/>
	</g>
	<rect class="st1" width="300" height="300"/>
</g>
</svg>
