<svg xmlns="http://www.w3.org/2000/svg" viewBox="0 0 58.24 62.7"><defs><style>.cls-1{fill:#414042;}</style></defs><g id="Layer_2" data-name="Layer 2"><g id="logo_A"><path class="cls-1" d="M19.28,46.48h0c-.45,1.34-2.78,8.36-3.53,10.56a8,8,0,0,1-8.26,5.64A7.87,7.87,0,0,1,0,55.34,8.62,8.62,0,0,1,.44,52Q7.18,31.28,14.08,10.64A15.63,15.63,0,0,1,30.51.06a21.25,21.25,0,0,1,8.33,2.61,9.34,9.34,0,0,1,4.53,5.52q7.25,21.93,14.44,43.87a8,8,0,0,1-5.72,10.46,9.2,9.2,0,0,1-6.61-1.29C41.63,59,24.65,49.48,20,46.87ZM56,51.06h0c-.69.6-1.3.31-1.93-.06-7.72-4.44-15.46-8.86-23.18-13.33-2.79-1.61-5.63-3.06-8.92-3.38a16,16,0,0,0-11.76,3,11.24,11.24,0,0,0-3,3.35h0a8.44,8.44,0,0,1,6.17.95c8.17,4.62,30.42,17.22,33.44,18.8,3.41,1.78,7,1,8.87-1.83C57.32,56.16,57.16,53.66,56,51.06Zm-.74-1-.34-.2c1.05.6.09-2-.24-3.06-1.49-4.66-9.91-30.1-12.56-38.18a5.53,5.53,0,0,0-4.75-4.24,3.87,3.87,0,0,0-4.28,1.76,10.9,10.9,0,0,0-1,2c-.69,1.9-1.32,3.82-1.93,5.74a1.91,1.91,0,0,0,0,1.11q4.08,12.41,8.22,24.79a2,2,0,0,0,.84,1c4.58,2.69,9.19,5.34,13.78,8ZM35.92,2.75h0c-1-.31-2-.66-3-.92a14.54,14.54,0,0,0-17.68,9.55Q10.62,25.3,6,39.24c-.07.21-.11.43-.16.64,4.05-5.77,9.77-7.5,16.46-6.94h0c.11-.27.2-.49.28-.73q3.16-9.51,6.34-19c.71-2.09,1.34-4.22,2.18-6.26A6.14,6.14,0,0,1,35.92,2.75ZM8,61.34a6.65,6.65,0,0,0,6.41-4.62c1.19-3.47,2.31-7,3.49-10.43a.64.64,0,0,0-.3-.79c-1.67-.9-3.32-1.84-5-2.78a6.78,6.78,0,0,0-4.4-.87,4.51,4.51,0,0,0-3.89,2.58C3.29,47.15,2.45,50,1.6,52.76A6.67,6.67,0,0,0,8,61.34Zm28.78-22c-2.54-7.68-5-15.23-7.53-22.78h0L23.71,33.18h0c4.88,1,8.66,4.09,13.08,6.2Z"/></g></g></svg>