<?xml version="1.0" encoding="utf-8"?>
<!-- Generator: Adobe Illustrator 28.1.0, SVG Export Plug-In . SVG Version: 6.00 Build 0)  -->
<svg version="1.1" id="Layer_1" xmlns="http://www.w3.org/2000/svg" xmlns:xlink="http://www.w3.org/1999/xlink" x="0px" y="0px"
	 viewBox="0 0 300 300" style="enable-background:new 0 0 300 300;" xml:space="preserve">
<style type="text/css">
	.st0{fill:none;}
	.st1{fill:#F15A22;}
	.st2{fill:#0071BE;}
</style>
<g>
	<circle class="st0" cx="150" cy="150" r="140"/>
	<g>
		<g>
			<polygon id="M_00000013165992957051825030000014181246928916455837_" class="st1" points="115.2,80.3 115.2,229.3 101.3,205.1 
				101.3,94.3 87.3,94.3 87.3,181 73.4,156.8 73.4,94.3 53.3,94.3 61.7,108.8 61.7,136.7 29.2,80.3 			"/>
			<path id="A_00000040574275081089831980000016557082845165341079_" class="st2" d="M161.6,166.6h-23.3v102.9l-13.9-24.1v-165h51.2
				v165l-14,24.1V166.6z M138.5,150.1h23.2V94.3h-23.3L138.5,150.1L138.5,150.1z"/>
			<polygon id="H_00000143608231289076081550000013371495267174160274_" class="st1" points="198.8,126.8 228,126.8 212.8,153.1 
				212.8,181 270.8,80.3 254.7,80.3 236,112.9 198.8,112.9 198.8,80.3 184.9,80.3 184.9,229.3 198.8,205.1 			"/>
		</g>
		<path class="st2" d="M156.7,275c-2.2,0.1-4.5,0.2-6.7,0.2c-2.3,0-4.5-0.1-6.7-0.2c-0.6,0-1.2-0.1-1.9-0.1l8.6,14.8l8.6-14.8
			C158,274.9,157.4,275,156.7,275z"/>
	</g>
</g>
</svg>
