<?xml version="1.0" encoding="utf-8"?>
<!-- Generator: Adobe Illustrator 26.3.1, SVG Export Plug-In . SVG Version: 6.00 Build 0)  -->
<svg version="1.1" id="Layer_1" xmlns="http://www.w3.org/2000/svg" xmlns:xlink="http://www.w3.org/1999/xlink" x="0px" y="0px"
	 viewBox="0 0 466.4 503.8" style="enable-background:new 0 0 466.4 503.8;" xml:space="preserve">
<style type="text/css">
	.st0{fill:url(#SVGID_1_);}
	.st1{fill:url(#SVGID_00000159435039211836526050000014221088818513723575_);}
	.st2{fill:url(#SVGID_00000063632595673055970840000013078005753654460822_);}
	.st3{fill:#561210;}
	.st4{fill:#1F0F10;}
	.st5{fill:url(#SVGID_00000143596289666227031000000000304196762480716684_);}
	.st6{fill:url(#SVGID_00000155115656971038458710000010162878827026557366_);}
	.st7{fill:url(#SVGID_00000032646208125084947320000011841484513303340427_);}
	.st8{fill:url(#SVGID_00000117645367953521727200000000808454593932562075_);}
	.st9{fill:#381413;}
	.st10{fill:url(#SVGID_00000069386340872506879370000004371528641873881273_);}
	.st11{fill:url(#SVGID_00000041260072621815710110000005698362668275659177_);}
</style>
<linearGradient id="SVGID_1_" gradientUnits="userSpaceOnUse" x1="326.619" y1="798.7781" x2="370.099" y2="710.618" gradientTransform="matrix(1 0 0 1 0 -290)">
	<stop  offset="0" style="stop-color:#9A1D21"/>
	<stop  offset="0.18" style="stop-color:#AF2424"/>
	<stop  offset="0.41" style="stop-color:#C32B27"/>
	<stop  offset="0.56" style="stop-color:#CA2D28"/>
</linearGradient>
<polygon class="st0" points="309.8,419.7 324.2,500 395.7,491.8 386.8,419.7 "/>
<linearGradient id="SVGID_00000127747944025637651990000001874325771245306300_" gradientUnits="userSpaceOnUse" x1="423.3689" y1="419.7" x2="423.3689" y2="503.8">
	<stop  offset="0" style="stop-color:#A41E22"/>
	<stop  offset="1" style="stop-color:#A41E23"/>
</linearGradient>
<polygon style="fill:url(#SVGID_00000127747944025637651990000001874325771245306300_);" points="386.8,419.7 395.7,491.8 
	397,491.7 459.9,419.7 "/>
<linearGradient id="SVGID_00000157272007634325278770000017464817934323388568_" gradientUnits="userSpaceOnUse" x1="98.9317" y1="679.1" x2="98.9317" y2="790" gradientTransform="matrix(1 0 0 1 0 -290)">
	<stop  offset="7.000000e-02" style="stop-color:#B32626"/>
	<stop  offset="0.36" style="stop-color:#AF2525"/>
	<stop  offset="0.68" style="stop-color:#A22022"/>
	<stop  offset="1" style="stop-color:#8C191C"/>
	<stop  offset="1" style="stop-color:#8C191C"/>
</linearGradient>
<polygon style="fill:url(#SVGID_00000157272007634325278770000017464817934323388568_);" points="55.4,389.1 55.4,389.1 58.2,420.1 
	64.4,490.8 123,500 142.5,419.7 58.2,419.7 "/>
<polygon class="st3" points="17.3,420.1 64.2,490.8 64.4,490.8 58.2,420.1 "/>
<polygon class="st4" points="55.4,389.1 51.9,351.2 51.8,351.2 51.9,351 51.9,351 31.7,389.1 31.7,389.1 16.2,418.5 17.3,420.1 
	58.2,420.1 "/>
<linearGradient id="SVGID_00000152229917699473494890000003157481908340631220_" gradientUnits="userSpaceOnUse" x1="144.7371" y1="561.23" x2="144.7371" y2="334.78" gradientTransform="matrix(1 0 0 1 0 -290)">
	<stop  offset="0" style="stop-color:#7E1418"/>
	<stop  offset="0.21" style="stop-color:#971C1E"/>
	<stop  offset="0.44" style="stop-color:#AD2323"/>
	<stop  offset="0.67" style="stop-color:#BA2726"/>
	<stop  offset="0.88" style="stop-color:#BE2827"/>
	<stop  offset="1" style="stop-color:#AB1F24"/>
</linearGradient>
<polygon style="fill:url(#SVGID_00000152229917699473494890000003157481908340631220_);" points="166.4,305.6 237.5,0 52,350.9 "/>
<linearGradient id="SVGID_00000125562083000673267740000002617398118243322503_" gradientUnits="userSpaceOnUse" x1="298.2588" y1="561.23" x2="298.2588" y2="334.78" gradientTransform="matrix(1 0 0 1 0 -290)">
	<stop  offset="0" style="stop-color:#7E1418"/>
	<stop  offset="0.21" style="stop-color:#971C1E"/>
	<stop  offset="0.44" style="stop-color:#AD2323"/>
	<stop  offset="0.67" style="stop-color:#BA2726"/>
	<stop  offset="0.88" style="stop-color:#BE2827"/>
	<stop  offset="1" style="stop-color:#AB1F24"/>
</linearGradient>
<polygon style="fill:url(#SVGID_00000125562083000673267740000002617398118243322503_);" points="283.5,259.3 359,229.4 
	358.9,228.6 237.5,0 283.5,259.2 "/>
<linearGradient id="SVGID_00000120560392734841814160000004455904858776754819_" gradientUnits="userSpaceOnUse" x1="51.9087" y1="362.6493" x2="386.8087" y2="362.6493">
	<stop  offset="0" style="stop-color:#4B1614"/>
	<stop  offset="0.15" style="stop-color:#491514"/>
	<stop  offset="1" style="stop-color:#421312"/>
</linearGradient>
<polygon style="fill:url(#SVGID_00000120560392734841814160000004455904858776754819_);" points="52,350.9 51.9,351 51.9,351.2 
	55.4,389.1 58.2,419.7 142.5,419.7 161.8,327.5 166.4,305.6 166.4,305.6 "/>
<linearGradient id="SVGID_00000073679217797706493200000006826299267369551016_" gradientUnits="userSpaceOnUse" x1="-3.4417" y1="324.5454" x2="411.4802" y2="324.5454">
	<stop  offset="0" style="stop-color:#4B1614"/>
	<stop  offset="0.15" style="stop-color:#491514"/>
	<stop  offset="1" style="stop-color:#421312"/>
</linearGradient>
<polygon style="fill:url(#SVGID_00000073679217797706493200000006826299267369551016_);" points="366.9,283.2 359,229.4 
	283.5,259.3 290.2,299.8 309.8,419.7 386.8,419.7 "/>
<polygon class="st9" points="385.7,279.2 358.9,228.6 386.8,419.7 459.9,419.7 460.2,419.4 "/>
<linearGradient id="SVGID_00000079465712831014917340000010677697133819007131_" gradientUnits="userSpaceOnUse" x1="224.9502" y1="290" x2="224.9502" y2="595.5986" gradientTransform="matrix(1 0 0 1 0 -290)">
	<stop  offset="0" style="stop-color:#DE462F"/>
	<stop  offset="0.41" style="stop-color:#DA422E"/>
	<stop  offset="0.86" style="stop-color:#CD352A"/>
	<stop  offset="1" style="stop-color:#C72F28"/>
</linearGradient>
<polygon style="fill:url(#SVGID_00000079465712831014917340000010677697133819007131_);" points="168.4,304.8 283.5,259.2 237.5,0 
	166.4,305.6 "/>
<linearGradient id="SVGID_00000177442633684311613420000013015591620739065485_" gradientUnits="userSpaceOnUse" x1="226.15" y1="636.6373" x2="226.15" y2="259.1125">
	<stop  offset="0" style="stop-color:#771315"/>
	<stop  offset="0.52" style="stop-color:#85171A"/>
	<stop  offset="1" style="stop-color:#8C191C"/>
</linearGradient>
<polygon style="fill:url(#SVGID_00000177442633684311613420000013015591620739065485_);" points="290.2,299.8 283.5,259.3 
	168.4,304.8 166.4,305.6 161.8,327.5 142.5,419.7 309.8,419.7 "/>
</svg>
