<svg xmlns="http://www.w3.org/2000/svg" viewBox="0 0 500 389.34"><defs><style>.cls-1{fill:#ff3d00;}</style></defs><g id="Layer_2" data-name="Layer 2"><g id="Layer_1-2" data-name="Layer 1"><g id="Layer_2-2" data-name="Layer 2"><g id="Layer_1-2-2" data-name="Layer 1-2"><g id="Layer_2-2-2" data-name="Layer 2-2"><g id="Layer_1-2-2-2" data-name="Layer 1-2-2"><path class="cls-1" d="M200.5,13.72c-1.5-5,24-12,52-13.5s62,4.5,68,23.5c10.5,30.5-41.5,75.5-87,97.5-11,5.5-18,7-20.5,6.5a2.7,2.7,0,0,1-2.62-2.78,2.93,2.93,0,0,1,.12-.72c0-.5,0-1,.5-1a75,75,0,0,1,18.5-17c51-37.5,67.5-65,58-76-6-7-32-12-59-12-7,0-26,1.5-28-4.5"/><path class="cls-1" d="M257.5,153.72c-16-11-44.5-14.5-68-13.5-21,1-57,7.5-55.5,14.5s24,5,34.5,5c23,0,59.5,1.5,65,16,12.5,32-71.5,89.5-89.5,83.5-8.5-2,16-44,25-59,5.5-9,13.5-23,6.5-24s-16,12-21.5,20a576.39,576.39,0,0,0-42.5,66.5c-4,7.5-16,28.5-12,31.5s23.5-1,48-11c77-30.5,111.5-70,121-103a25.29,25.29,0,0,0-11-26.5"/><path class="cls-1" d="M373,101.22c-25-4-70-5.5-85,17.5-12,18,10.5,43,31,67,16.5,19,34,37.5,26.5,48.5-6,9-44,9-57,9.5-16,1-38.5,1-42.5,3s-6,8.3,7.5,10.5a447.69,447.69,0,0,0,63.5,6c28.5,0,58-4.5,64.5-26.5,5-17.5-13-36.5-28.5-55.5C336,160,318.5,145,320,130c1-11.5,24-12,61-13,8,0,23.5-.5,20.5-6.5s-14-7-28.5-9.5"/><path class="cls-1" d="M104,360.72c-2.5,15.5-13,28.5-32.5,28.5s-25.5-13-23-28.5,13-28.5,32.5-28.5,26,13,23,28.5m-24.5-19.5c-11,0-17,6.5-19,19s1.5,19,12.5,19,17-6.5,19-19-1.5-19-12.5-19"/><path class="cls-1" d="M174,332.22H164l-10,54.5h12l9.5-52.5c.5-1-.5-2-1.5-2h0"/><path class="cls-1" d="M145,377.72H122l8-44c0-1-.5-1.5-1.5-2H118l-10,54.5h38.5l1-5.5c1-2,0-3-2.5-3"/><path class="cls-1" d="M214.5,332.22H185v1c-.5,3.5-.5,8,5.5,8H212c8.5,0,12,6,10,18-2,10.5-7.5,19-16.5,19h-12l5.5-30.5H189a2.56,2.56,0,0,0-2.5,2l-6.5,37h23c17,0,29-8,32.5-28,3-15.5-3.5-26.5-21-26.5"/><path class="cls-1" d="M3.5,344.22a13.36,13.36,0,0,0,5.5,13l17.5,12c2,1.5,2.5,2,2.5,3.5s-1.5,3-5,3H4a3.8,3.8,0,0,0-4,3.5v7.5H24a14.65,14.65,0,0,0,16.5-12.5,13.84,13.84,0,0,0-5-13.5l-18.5-13c-1.5-1.5-2-2-2-2.5a3.8,3.8,0,0,1,3.5-2h21c2.5,0,4-2.5,4.5-5v-6H16a13.8,13.8,0,0,0-12.5,12"/><path class="cls-1" d="M407,337.22a14.69,14.69,0,0,1,2,11,19.25,19.25,0,0,1-18.5,15l11.5,20c.5.5.5,1.5,1,2a1.75,1.75,0,0,1-1.46,2,1.63,1.63,0,0,1-.54,0h-3l-13.5-23.5h-11l-4,23.5h-6l10-54.5h14c8,0,15,0,19.5,4.5m-5.5,4a10.52,10.52,0,0,0-5.5-2c-1,0-2-.5-3-.5H378l-3.5,20H381a57.24,57.24,0,0,0,13-1c8.5-2.5,12.5-12,7.5-16.5"/><path class="cls-1" d="M458,332.72a1.85,1.85,0,0,0-1.5-.5H454l-28,24,4-21.2c0-1,0-2-1-2.5a1.85,1.85,0,0,0-1.5-.5H425l-10,54.5h5l4.5-24,22,24H449a1.75,1.75,0,0,0,2-1.46,1.63,1.63,0,0,0,0-.54,3.81,3.81,0,0,0-1-2L430,360l28-24a3.81,3.81,0,0,0,1-2c0-.5-.5-1-1-1.5"/><path class="cls-1" d="M358.5,362.72c-3.5,15.5-15,28-32.5,26.5h0c-16.5-2-21.5-16.5-18-30.5,4-15.5,15-28,32.5-26.5h0c16.5,2,21.5,16.5,18,30.5m-19.5-25c-10-.5-21.5,5.5-25.5,21s3.5,23,13,24.5h1c10,.5,21-5.5,24.5-21.5s-3-23-13-24"/><path class="cls-1" d="M500,332.22H477.5a11.6,11.6,0,0,0-12,11V345a14.18,14.18,0,0,0,4.5,9l15.5,15a8.31,8.31,0,0,1,2.5,6,6.1,6.1,0,0,1-6,6H461.5a2.25,2.25,0,0,0-1.5,1.5h0v4h22.5a11.6,11.6,0,0,0,12-11v-2h0a15,15,0,0,0-5-10L475,349.72a11.9,11.9,0,0,1-3-5.5,6.1,6.1,0,0,1,6-6h20.5a2.25,2.25,0,0,0,1.5-1.5h0v-4.5"/><path class="cls-1" d="M308,334.72c0-.5-.5-1.5-1-1.5a1.85,1.85,0,0,0-1.5-.5H303L282,380l-5.5-26a3.55,3.55,0,0,0-3.57-3.53,3.11,3.11,0,0,0-.43,0H269L251.5,380v-45.5c0-.5-.5-1.5-1-1.5a1.85,1.85,0,0,0-1.5-.5h-3.5V387H250a9.33,9.33,0,0,0,3.5-1,6.14,6.14,0,0,0,2.5-2.5l14.5-26,6,30h4a5.4,5.4,0,0,0,5.5-4L307,336c1-.5,1-1,1-1.5"/></g></g></g></g></g></g></svg>