<svg xmlns="http://www.w3.org/2000/svg" xmlns:xlink="http://www.w3.org/1999/xlink" viewBox="0 0 97 96"><defs><style>.cls-1,.cls-6{fill:#099;}.cls-1{filter:url(#filter);}.cls-2{fill:#91140b;filter:url(#filter-2);}.cls-3{filter:url(#filter-3);}.cls-4{fill:#fff;}.cls-5{filter:url(#Ebene_1);}.cls-6{fill-rule:evenodd;}</style><filter id="filter" x="0" y="9" width="88" height="87" filterUnits="userSpaceOnUse"><feOffset dx="4" dy="4" input="SourceAlpha"/><feGaussianBlur stdDeviation="4" result="blur"/><feFlood/><feComposite operator="in" in2="blur"/><feComposite in="SourceGraphic"/></filter><filter id="filter-2" x="9" y="0" width="88" height="87" filterUnits="userSpaceOnUse"><feOffset dx="4" dy="4" input="SourceAlpha"/><feGaussianBlur stdDeviation="4" result="blur-2"/><feFlood/><feComposite operator="in" in2="blur-2"/><feComposite in="SourceGraphic"/></filter><filter id="filter-3"><feOffset dx="2" dy="2" input="SourceAlpha"/><feGaussianBlur stdDeviation="2" result="blur-3"/><feFlood/><feComposite operator="in" in2="blur-3"/><feComposite in="SourceGraphic"/></filter><filter id="Ebene_1"><feOffset dx="4" dy="4" input="SourceAlpha"/><feGaussianBlur stdDeviation="4" result="blur-4"/><feFlood/><feComposite operator="in" in2="blur-4"/><feComposite in="SourceGraphic"/></filter></defs><g id="Layer_2" data-name="Layer 2"><g id="Layer_1-2" data-name="Layer 1"><rect class="cls-1" x="8.88" y="17.53" width="62.47" height="62.47"/><rect class="cls-2" x="17.88" y="8.53" width="62.47" height="62.47"/><g class="cls-3"><polygon class="cls-4" points="36.99 51.49 29.78 38.05 25.21 38.05 25.21 61.27 29.8 61.27 29.8 48.16 36.9 61.27 41.58 61.27 41.58 38.05 36.99 38.05 36.99 51.49"/><polygon class="cls-4" points="55.27 49.33 61.59 38.05 55.94 38.05 52.39 44.68 48.77 38.05 43.07 38.05 49.38 49.17 42.44 61.27 48.26 61.27 52.31 54.06 56.36 61.27 62.21 61.27 55.27 49.33"/></g><g id="Ebene_1-2" data-name="Ebene_1" class="cls-5"><path class="cls-6" d="M78.14,84.81v2a8.13,8.13,0,0,0-2.83-.6,2.3,2.3,0,0,0-1.17.26.78.78,0,0,0-.44.65c0,.34.33.65,1,.92l1.93.93c1.55.74,2.32,1.73,2.32,3a2.91,2.91,0,0,1-1.23,2.46,5.42,5.42,0,0,1-3.3.91,14.88,14.88,0,0,1-1.71-.08A14.68,14.68,0,0,1,71,94.94V92.8a10.2,10.2,0,0,0,3.23.61c1.15,0,1.73-.34,1.73-1,0-.33-.24-.6-.71-.82l-2.14-.91a4.31,4.31,0,0,1-1.76-1.3,3,3,0,0,1-.56-1.78,2.71,2.71,0,0,1,1.18-2.29,5.32,5.32,0,0,1,3.16-.86,11.86,11.86,0,0,1,1.46.11c.54.07,1.07.16,1.58.27Z"/><path class="cls-6" d="M17.67,84.81v2a8.13,8.13,0,0,0-2.82-.6,2.3,2.3,0,0,0-1.17.26.77.77,0,0,0-.45.65c0,.34.34.65,1,.92l1.93.93c1.54.74,2.32,1.73,2.32,3a2.91,2.91,0,0,1-1.23,2.46,5.44,5.44,0,0,1-3.3.91,14.65,14.65,0,0,1-1.71-.08,14.31,14.31,0,0,1-1.73-.33V92.8a10.19,10.19,0,0,0,3.22.61c1.16,0,1.73-.34,1.73-1,0-.33-.23-.6-.7-.82l-2.14-.91a4.24,4.24,0,0,1-1.76-1.3,2.89,2.89,0,0,1-.57-1.78,2.72,2.72,0,0,1,1.19-2.29,5.27,5.27,0,0,1,3.15-.86,11.87,11.87,0,0,1,1.47.11C16.64,84.61,17.17,84.7,17.67,84.81Z"/><polygon class="cls-6" points="19.88 84.62 23.01 84.62 23.01 95.16 19.88 95.16 19.88 84.62"/><polygon class="cls-6" points="33.09 84.62 33.09 86.57 28.44 86.57 28.44 88.91 32.48 88.91 32.48 90.66 28.44 90.66 28.44 93.12 33.19 93.12 33.19 95.16 25.43 95.16 25.43 84.62 33.09 84.62"/><polygon class="cls-6" points="47.71 84.62 47.71 95.16 44.78 95.16 44.78 88.21 41.75 95.26 39.95 95.26 37.03 88.21 37.03 95.16 34.92 95.16 34.92 84.62 38.74 84.62 41.35 91.07 44.08 84.62 47.71 84.62"/><polygon class="cls-6" points="57.79 84.62 57.79 86.57 53.16 86.57 53.16 88.91 57.2 88.91 57.2 90.66 53.16 90.66 53.16 93.12 57.88 93.12 57.88 95.16 50.13 95.16 50.13 84.62 57.79 84.62"/><polygon class="cls-6" points="68.78 84.62 68.78 95.16 65.45 95.16 61.73 88.4 61.73 95.16 59.62 95.16 59.62 84.62 63.03 84.62 66.66 91.27 66.66 84.62 68.78 84.62"/></g></g></g></svg>