<svg xmlns="http://www.w3.org/2000/svg" viewBox="0 0 71.47 86.82"><defs><style>.cls-1,.cls-4{fill:#099;}.cls-2{fill:#91140b;}.cls-3{fill:#fff;}.cls-4{fill-rule:evenodd;}</style></defs><g id="Layer_2" data-name="Layer 2"><g id="Layer_1-2" data-name="Layer 1"><rect class="cls-1" y="9" width="62.47" height="62.47"/><rect class="cls-2" x="9" width="62.47" height="62.47"/><polygon class="cls-3" points="28.11 42.96 20.9 29.52 16.33 29.52 16.33 52.74 20.92 52.74 20.92 39.63 28.02 52.74 32.7 52.74 32.7 29.52 28.11 29.52 28.11 42.96"/><polygon class="cls-3" points="46.39 40.8 52.71 29.52 47.06 29.52 43.51 36.15 39.89 29.52 34.19 29.52 40.5 40.64 33.56 52.74 39.38 52.74 43.43 45.53 47.48 52.74 53.33 52.74 46.39 40.8"/><g id="Ebene_1-2" data-name="Ebene 1-2"><path class="cls-4" d="M69.26,76.28v2a8.1,8.1,0,0,0-2.83-.6,2.26,2.26,0,0,0-1.17.26.79.79,0,0,0-.44.65c0,.34.33.65,1,.92l1.93.93c1.55.74,2.32,1.73,2.32,3a2.9,2.9,0,0,1-1.23,2.46,5.43,5.43,0,0,1-3.3.91,12.49,12.49,0,0,1-3.42-.4V84.27a10.21,10.21,0,0,0,3.23.61c1.15,0,1.73-.34,1.73-1,0-.33-.24-.6-.71-.82l-2.14-.91a4.27,4.27,0,0,1-1.76-1.3,3,3,0,0,1-.56-1.78,2.72,2.72,0,0,1,1.18-2.29,5.35,5.35,0,0,1,3.16-.86,11.81,11.81,0,0,1,1.46.11c.54.07,1.07.16,1.58.27Z"/><path class="cls-4" d="M8.79,76.28v2A8,8,0,0,0,6,77.68a2.26,2.26,0,0,0-1.17.26.78.78,0,0,0-.45.65c0,.34.34.65,1,.92l1.93.93c1.54.74,2.32,1.73,2.32,3A2.9,2.9,0,0,1,8.37,85.9a5.43,5.43,0,0,1-3.3.91,14,14,0,0,1-1.71-.08,12.87,12.87,0,0,1-1.73-.33V84.27a10.1,10.1,0,0,0,3.22.61c1.16,0,1.73-.34,1.73-1,0-.33-.23-.6-.7-.82l-2.14-.91A4.21,4.21,0,0,1,2,80.85a2.91,2.91,0,0,1-.57-1.78A2.72,2.72,0,0,1,2.6,76.78a5.32,5.32,0,0,1,3.15-.86A12.12,12.12,0,0,1,7.22,76,12.86,12.86,0,0,1,8.79,76.28Z"/><polygon class="cls-4" points="11 76.09 14.13 76.09 14.13 86.63 11 86.63 11 76.09"/><polygon class="cls-4" points="24.21 76.09 24.21 78.04 19.56 78.04 19.56 80.38 23.6 80.38 23.6 82.13 19.56 82.13 19.56 84.59 24.31 84.59 24.31 86.63 16.55 86.63 16.55 76.09 24.21 76.09"/><polygon class="cls-4" points="38.83 76.09 38.83 86.63 35.9 86.63 35.9 79.68 32.87 86.73 31.07 86.73 28.15 79.68 28.15 86.63 26.04 86.63 26.04 76.09 29.86 76.09 32.47 82.54 35.2 76.09 38.83 76.09"/><polygon class="cls-4" points="48.91 76.09 48.91 78.04 44.28 78.04 44.28 80.38 48.32 80.38 48.32 82.13 44.28 82.13 44.28 84.59 49 84.59 49 86.63 41.25 86.63 41.25 76.09 48.91 76.09"/><polygon class="cls-4" points="59.9 76.09 59.9 86.63 56.57 86.63 52.85 79.87 52.85 86.63 50.74 86.63 50.74 76.09 54.15 76.09 57.78 82.74 57.78 76.09 59.9 76.09"/></g></g></g></svg>