<?xml version="1.0" encoding="utf-8"?>
<!-- Generator: Adobe Illustrator 26.3.1, SVG Export Plug-In . SVG Version: 6.00 Build 0)  -->
<svg version="1.1" id="Layer_1" xmlns="http://www.w3.org/2000/svg" xmlns:xlink="http://www.w3.org/1999/xlink" x="0px" y="0px"
	 viewBox="0 0 97 96" style="enable-background:new 0 0 97 96;" xml:space="preserve">
<style type="text/css">
	.st0{fill:#FF3D00;}
	.st1{filter:url(#Adobe_OpacityMaskFilter);}
	.st2{fill:#FFFFFF;}
	.st3{mask:url(#mask-4_00000112616644612155403440000007131926771837809048_);fill:#FF3D00;}
	.st4{filter:url(#Adobe_OpacityMaskFilter_00000153686362768120267900000000923184297260371848_);}
	.st5{mask:url(#mask-4_00000073705493532267906820000000735520997097992116_);fill:#FF3D00;}
</style>
<g>
	<g id="Group-4">
		<g id="Clip-2">
		</g>
	</g>
	<g>
		<path id="Fill-5" class="st0" d="M69.4,29.9c2.6,0.4,4.8,0.7,5.3,1.7c0.6,1.1-2.3,1.2-3.8,1.2C64,33,59.8,33.1,59.6,35.1
			c-0.3,2.7,3,5.3,6.2,9.1c2.9,3.4,6.2,6.8,5.3,10c-1.2,3.9-6.7,4.8-11.9,4.8c-5,0-9.8-0.7-11.8-1.1c-2.5-0.4-2.1-1.5-1.5-1.9
			c0.7-0.4,5-0.4,7.9-0.5c2.4-0.1,9.4-0.1,10.5-1.7c1.3-1.9-1.9-5.2-5-8.7c-3.8-4.3-7.9-8.8-5.7-12C56.5,28.9,64.8,29.2,69.4,29.9"
			/>
		<path id="Fill-1" class="st0" d="M47.1,11.8c5.3-0.2,11.5,0.8,12.6,4.2c1.9,5.5-7.7,13.5-16.1,17.5c-2.1,1-3.3,1.2-3.8,1.2
			c-0.5-0.1-0.6-0.5-0.4-0.8c0.3-0.6,1.6-1.8,3.5-3c9.4-6.7,12.5-11.6,10.7-13.6c-1.1-1.3-5.9-2.2-10.9-2.2c-1.3,0-4.9,0.3-5.3-0.8
			C37.1,13.2,41.9,12,47.1,11.8"/>
		<path id="Fill-3" class="st0" d="M35.4,36.9c4.4-0.2,9.7,0.4,12.6,2.4c1.5,1,2.5,2.8,1.9,4.9c-1.7,5.9-8.1,13-22.4,18.5
			c-4.5,1.7-8.1,2.4-8.8,1.9c-0.8-0.5,1.5-4.4,2.2-5.7c2.3-4.2,5.1-8.3,7.9-12c1-1.4,2.6-3.8,4-3.6c1.3,0.2-0.2,2.7-1.2,4.3
			c-1.7,2.7-6.2,10.2-4.7,10.6c3.3,1,18.9-9.3,16.6-15.1c-1.1-2.7-7.8-2.9-12.1-2.9c-1.9,0-6.2,0.4-6.4-0.9
			C24.8,38.3,31.5,37.1,35.4,36.9"/>
	</g>
	<g>
		<path id="Fill-6" class="st0" d="M18.3,79c-0.4,2.4-1.5,3.5-3.6,3.5c-2.1,0-2.8-1.2-2.4-3.5c0.4-2.4,1.5-3.5,3.6-3.5
			C18,75.4,18.7,76.6,18.3,79z M16.2,73.7c-3.7,0-5.7,2.4-6.2,5.3c-0.5,2.9,0.7,5.3,4.4,5.3c3.7,0,5.7-2.4,6.2-5.3
			C21.1,76.1,19.9,73.7,16.2,73.7L16.2,73.7z"/>
		<path id="Fill-7" class="st0" d="M1.3,75.9c-0.1,0.8,0.1,1.8,1.1,2.4l3.3,2.3c0.4,0.2,0.5,0.4,0.5,0.7c-0.1,0.4-0.3,0.5-1,0.5H1.4
			c-0.4,0-0.6,0.2-0.7,0.6v1.4h4.5c2,0,3-1.1,3.2-2.4c0.2-1.1-0.2-2-1-2.5l-3.5-2.4c-0.3-0.2-0.4-0.3-0.3-0.5c0-0.2,0.3-0.4,0.7-0.4
			h4.1c0.5,0,0.8-0.5,0.9-1v-1.1H3.8C2.6,73.7,1.5,74.7,1.3,75.9"/>
		<path id="Fill-8" class="st0" d="M28.4,82.2H24l1.5-8.1c0-0.2-0.1-0.3-0.3-0.3h-2l-1.9,10.1h7.4l0.2-1
			C29,82.3,28.8,82.2,28.4,82.2"/>
		<path id="Fill-9" class="st0" d="M88,73.7h-0.5l-5.4,4.5l0.7-3.9c0-0.2-0.1-0.4-0.2-0.4c-0.1-0.1-0.2-0.1-0.3-0.1h-0.5l-1.9,10.1
			H81l0.9-4.5l4.3,4.5h0.5c0.1,0,0.2,0,0.3-0.1c0.1-0.1,0.1-0.2,0.1-0.3c0-0.2-0.2-0.4-0.2-0.4l-4-4.2l5.4-4.4c0,0,0.2-0.1,0.2-0.4
			c0-0.1,0-0.2-0.1-0.3C88.2,73.7,88.1,73.7,88,73.7"/>
		<g id="Group-13" transform="translate(110.11765,11.131602)">
			<g id="Clip-11">
			</g>
			<defs>
				<filter id="Adobe_OpacityMaskFilter" filterUnits="userSpaceOnUse" x="-40" y="62.6" width="8.8" height="10.1">
					<feColorMatrix  type="matrix" values="1 0 0 0 0  0 1 0 0 0  0 0 1 0 0  0 0 0 1 0"/>
				</filter>
			</defs>
			
				<mask maskUnits="userSpaceOnUse" x="-40" y="62.6" width="8.8" height="10.1" id="mask-4_00000112616644612155403440000007131926771837809048_">
				<g id="use3126_00000164506181612733230610000002436412014906084012_" class="st1">
					<polygon id="path-3_00000147217768924513508000000002845186110418478214_" class="st2" points="-40,62.6 -40,72.7 -13.8,72.7 
						-13.8,72.7 -13.8,62.6 					"/>
				</g>
			</mask>
			<path id="Fill-10" class="st3" d="M-34.2,67.2c-0.6,0.2-1.5,0.2-2.5,0.2c-0.3,0-0.8,0-1.2,0l0.7-3.7c0.5,0,2.3,0,2.9,0
				c0.2,0,0.5,0,0.6,0.1c0.5,0.1,0.8,0.2,1,0.4C-31.7,65-32.5,66.8-34.2,67.2z M-35.3,62.6H-38L-40,72.7h1.1l0.8-4.4l2.1,0l2.6,4.3
				h0.6c0.1,0,0.2,0,0.3-0.1c0.1-0.1,0.1-0.2,0.1-0.3c0-0.1-0.1-0.4-0.1-0.4l-2.2-3.7c2.6-0.2,3.3-2,3.5-2.8
				c0.1-0.6,0.1-1.5-0.4-2.1C-32.4,62.6-33.8,62.6-35.3,62.6C-35.3,62.6-35.3,62.6-35.3,62.6z"/>
			<defs>
				
					<filter id="Adobe_OpacityMaskFilter_00000070107655114036310170000007146885266584784824_" filterUnits="userSpaceOnUse" x="-21.4" y="62.6" width="7.6" height="10.1">
					<feColorMatrix  type="matrix" values="1 0 0 0 0  0 1 0 0 0  0 0 1 0 0  0 0 0 1 0"/>
				</filter>
			</defs>
			
				<mask maskUnits="userSpaceOnUse" x="-21.4" y="62.6" width="7.6" height="10.1" id="mask-4_00000073705493532267906820000000735520997097992116_">
				
					<g id="use3126_00000047024096761994678570000017419092195710471321_" style="filter:url(#Adobe_OpacityMaskFilter_00000070107655114036310170000007146885266584784824_);">
					<polygon id="path-3_00000046299490492115332660000017579533309719125685_" class="st2" points="-40,62.6 -40,72.7 -13.8,72.7 
						-13.8,72.7 -13.8,62.6 					"/>
				</g>
			</mask>
			<path id="Fill-12" class="st5" d="M-18.1,62.6c-2,0-2.2,1.6-2.2,2.4c0,0.8,0.6,1.4,0.9,1.7l2.9,2.8c0.3,0.3,0.5,0.7,0.5,1.1
				c0,0.6-0.5,1.1-1.3,1.1c0,0-3.8,0-3.8,0c-0.1,0-0.3,0.2-0.3,0.3h0l0,0v0.8h4.3c2,0,2.2-1.6,2.2-2.4v0c0-1.1-1-1.9-1-1.9l-2.8-2.7
				c-0.3-0.3-0.6-0.7-0.6-1c0-0.6,0.5-1.1,1.3-1.1c0,0,3.8,0,3.9,0l0,0l0,0c0.1,0,0.3-0.2,0.3-0.3v-0.8H-18.1"/>
		</g>
		<path id="Fill-14" class="st0" d="M41.7,73.7h-5.6l0,0.2c-0.1,0.7-0.1,1.5,1.1,1.5h4.2c1.6,0,2.3,1.2,1.9,3.3
			c-0.4,2-1.5,3.5-3.2,3.5h-2.3l1.1-5.7h-1.9c-0.3,0-0.4,0.2-0.5,0.3l-1.3,7h4.4c3.3,0,5.5-1.5,6.2-5.2
			C46.3,75.7,45.1,73.7,41.7,73.7"/>
		<path id="Fill-15" class="st0" d="M33.9,73.7h-2l-1.9,10.1h2.3l1.8-9.8C34.3,73.9,34.1,73.7,33.9,73.7"/>
		<path id="Fill-16" class="st0" d="M68.2,79.3c-0.7,3-2.8,4.1-4.7,4l-0.2,0c-1.9-0.2-3.3-1.6-2.5-4.5c0.8-3,2.9-4,4.9-3.9
			C67.5,74.9,68.9,76.4,68.2,79.3L68.2,79.3z M65.8,73.7L65.8,73.7c-3.4-0.3-5.5,2-6.2,4.9c-0.7,2.6,0.2,5.3,3.4,5.7
			c3.4,0.3,5.6-2,6.3-4.9C69.9,76.8,69,74,65.8,73.7L65.8,73.7L65.8,73.7z"/>
		<path id="Fill-17" class="st0" d="M59.6,74.1c0-0.1,0-0.2-0.1-0.3c-0.1-0.1-0.2-0.1-0.3-0.1h-0.5l-4.1,8.9l-1.1-4.8
			c-0.1-0.4-0.4-0.7-0.8-0.7H52l-3.2,5.4l0-8.4c0-0.1,0-0.3-0.1-0.3c-0.1-0.1-0.2-0.1-0.3-0.1h-0.7v10.1h0.9c0.3,0,0.5-0.1,0.7-0.2
			c0.2-0.1,0.3-0.3,0.4-0.5l2.8-4.8l1.2,5.5h0.8c0.5,0,0.9-0.3,1.1-0.7l4-8.8C59.6,74.3,59.6,74.2,59.6,74.1"/>
	</g>
</g>
</svg>
