<?xml version="1.0" encoding="utf-8"?>
<!-- Generator: Adobe Illustrator 26.3.1, SVG Export Plug-In . SVG Version: 6.00 Build 0)  -->
<svg version="1.1" id="Layer_1" xmlns="http://www.w3.org/2000/svg" xmlns:xlink="http://www.w3.org/1999/xlink" x="0px" y="0px"
	 viewBox="0 0 500 500" style="enable-background:new 0 0 500 500;" xml:space="preserve">
<style type="text/css">
	.st0{clip-path:url(#SVGID_00000170964812612550493120000005797477908551757986_);}
	.st1{fill:#780829;}
	.st2{fill:#E51051;}
	.st3{fill:#E85886;}
	.st4{clip-path:url(#SVGID_00000170964812612550493120000005797477908551757986_);fill:#FFFFFF;}
	.st5{fill:#FFFFFF;}
</style>
<g>
	<defs>
		<rect id="SVGID_1_" width="500" height="500"/>
	</defs>
	<clipPath id="SVGID_00000125574655521422870100000015125254255585703319_">
		<use xlink:href="#SVGID_1_"  style="overflow:visible;"/>
	</clipPath>
	<g style="clip-path:url(#SVGID_00000125574655521422870100000015125254255585703319_);">
		<g>
			<path class="st1" d="M68.7,500h416.6V79H53.7v406C53.7,493.3,60.4,500,68.7,500z"/>
			<path class="st2" d="M450.4,352H88.9V0h346.5c8.3,0,15,6.7,15,15V352z"/>
			<polygon class="st3" points="88.9,352 14.6,397.1 14.6,46 88.9,0 			"/>
		</g>
	</g>
	<path style="clip-path:url(#SVGID_00000125574655521422870100000015125254255585703319_);fill:#FFFFFF;" d="M310.7,276.3h48.9
		L301.7,84.2h-64l-54.9,192.1h47.8l10.7-42h57.6L310.7,276.3z M289.6,198.7h-39.5l19.5-82.9L289.6,198.7z"/>
	<g style="clip-path:url(#SVGID_00000125574655521422870100000015125254255585703319_);">
		<path class="st5" d="M202.4,463.9c17.4,0,27.4-7.6,28.4-23.9H214c-0.3,7-3.5,10.8-11,10.8c-7.3,0-11.3-4.8-11.3-12.6v-24.7
			c0-7.8,4.2-12.6,11.4-12.6c7,0,10.4,3.7,10.8,10.1h16.7c-0.5-15.3-11-23.2-27.7-23.2c-19.1,0-29.6,11.3-29.6,27.9v20.1
			C173.3,452.5,184.4,463.9,202.4,463.9z"/>
		<path class="st5" d="M340.8,387.9h-8.5h-19v76h14.5h10.3c22.6,0,34.5-12.2,34.5-31.7v-14C372.7,400,362.1,387.9,340.8,387.9z
			 M353.7,432.7c0,12.1-5,17.5-15.1,17.5h-6.3v-48.6h7.9c9.1,0,13.5,5.3,13.5,16V432.7z"/>
		<path class="st5" d="M285.5,463.9h19.3l-22.9-76h-25.3l-21.7,76h18.9l4.2-16.6h22.8L285.5,463.9z M277.1,433.1h-15.6l7.7-32.8
			L277.1,433.1z"/>
	</g>
</g>
</svg>
