<?xml version="1.0" encoding="utf-8"?>
<!-- Generator: Adobe Illustrator 26.3.1, SVG Export Plug-In . SVG Version: 6.00 Build 0)  -->
<svg version="1.1" id="Layer_1" xmlns="http://www.w3.org/2000/svg" xmlns:xlink="http://www.w3.org/1999/xlink" x="0px" y="0px"
	 viewBox="0 0 500 500" style="enable-background:new 0 0 500 500;" xml:space="preserve">
<style type="text/css">
	.st0{clip-path:url(#SVGID_00000121267676551228838920000011240139954260657569_);}
	.st1{fill:#705A01;}
	.st2{fill:#DBAE03;}
	.st3{fill:#EACD5D;}
	.st4{fill:#FFFFFF;}
</style>
<g>
	<defs>
		<rect id="SVGID_1_" x="0" width="500" height="500"/>
	</defs>
	<clipPath id="SVGID_00000166635952594122143130000007793697306673076102_">
		<use xlink:href="#SVGID_1_"  style="overflow:visible;"/>
	</clipPath>
	
		<g id="Layer_2_00000027585370013005516730000011202055772351934647_" style="clip-path:url(#SVGID_00000166635952594122143130000007793697306673076102_);">
		<g id="Layer_1-2">
			<g>
				<defs>
					<rect id="SVGID_00000165930126649116174640000012553236201656343439_" x="121.1" width="257.9" height="500"/>
				</defs>
				<clipPath id="SVGID_00000116197686120696738750000002678745464709475721_">
					<use xlink:href="#SVGID_00000165930126649116174640000012553236201656343439_"  style="overflow:visible;"/>
				</clipPath>
			</g>
		</g>
	</g>
	<g style="clip-path:url(#SVGID_00000166635952594122143130000007793697306673076102_);">
		<g>
			<path class="st1" d="M68.7,500h416.6V79H53.7v406C53.7,493.3,60.4,500,68.7,500z"/>
			<g>
				<path class="st2" d="M450.4,352H88.9V0h346.5c8.3,0,15,6.7,15,15V352z"/>
				<polygon class="st3" points="88.9,352 14.6,397.1 14.6,46 88.9,0 				"/>
			</g>
			<polygon class="st4" points="320.2,114.1 320.2,79 220.4,79 220.4,114.1 246.4,114.1 246.4,237.8 220.4,237.8 220.4,274.7 
				320.2,274.7 320.2,237.8 294.2,237.8 294.2,114.1 			"/>
		</g>
		<path class="st4" d="M337.6,386c-20.1,0-31,11.9-31,29.3v16.5c0,17.3,11,29.2,31,29.2c20.4,0,31.1-11.9,31.1-29.2v-16.5
			C368.6,397.9,358,386,337.6,386z M337.6,398.8c8.6,0,13,5.6,13,16.4v16.5c0,10.9-4.4,16.5-13,16.5c-8.6,0-13-5.6-13-16.5v-16.5
			C324.5,404.5,328.9,398.8,337.6,398.8z M200.1,387.6h-8.8h-17.9v71.8h17.9v-23h7.2c16.8,0,28.2-7.7,28.2-21.1v-7
			C226.6,395.1,216.2,387.6,200.1,387.6z M208.7,414c0,7-4.4,9.7-11.2,9.7h-6.3v-23.4h7.5c6.1,0,9.9,2.9,9.9,9V414z M296.4,448.5
			c-3,0-4.8-1.3-6.2-4l-8.2-15.4c7.1-3.6,11.7-9.2,11.7-16.5V406c0-12.3-10.7-19.9-26.7-19.9h-9.4h-18.4v73.5h18.4V433h8.1l8.8,17.8
			c4,8.3,9,10.2,15.4,10.2c2.8,0,5.5-0.5,7.3-1.6v-11H296.4z M257.5,398.6h8c5.8,0,9.8,2.8,9.8,8.4v5.2c0,5.7-3.9,8.7-9.8,8.7h-8
			V398.6z"/>
	</g>
</g>
</svg>
