<?xml version="1.0" encoding="utf-8"?>
<!-- Generator: Adobe Illustrator 26.3.1, SVG Export Plug-In . SVG Version: 6.00 Build 0)  -->
<svg version="1.1" id="Layer_1" xmlns="http://www.w3.org/2000/svg" xmlns:xlink="http://www.w3.org/1999/xlink" x="0px" y="0px"
	 viewBox="0 0 500 500" style="enable-background:new 0 0 500 500;" xml:space="preserve">
<style type="text/css">
	.st0{fill:#FF3D00;}
	.st1{fill:none;}
</style>
<g id="Layer_2_00000183206935037971945580000008415739651865115063_">
	<g id="Layer_1-2">
		<g id="Layer_2-2">
			<g id="Layer_1-2-2">
				<g id="Layer_2-2-2">
					<g id="Layer_1-2-2-2">
						<g id="Layer_2-2-2-2">
							<g id="Layer_1-2-2-2-2">
								<g id="Layer_2-2-2-2-2">
									<g id="Layer_1-2-2-2-2-2">
										<path class="st0" d="M200.5,69c-1.5-5,24-12,52-13.5s62,4.5,68,23.5c10.5,30.5-41.5,75.5-87,97.5c-11,5.5-18,7-20.5,6.5
											c-1.5,0-2.7-1.3-2.6-2.8c0,0,0,0,0,0l0,0c0-0.2,0-0.5,0.1-0.7c0-0.5,0-1,0.5-1c5.2-6.7,11.4-12.4,18.5-17
											c51-37.5,67.5-65,58-76c-6-7-32-12-59-12C221.5,73.5,202.5,75,200.5,69"/>
										<path class="st0" d="M257.5,209c-16-11-44.5-14.5-68-13.5c-21,1-57,7.5-55.5,14.5s24,5,34.5,5c23,0,59.5,1.5,65,16
											c12.5,32-71.5,89.5-89.5,83.5c-8.5-2,16-44,25-59c5.5-9,13.5-23,6.5-24s-16,12-21.5,20c-15.7,21.2-29.9,43.4-42.5,66.5
											c-4,7.5-16,28.5-12,31.5s23.5-1,48-11c77-30.5,111.5-70,121-103C270.7,225.3,266.3,214.7,257.5,209"/>
										<path class="st0" d="M373,156.5c-25-4-70-5.5-85,17.5c-12,18,10.5,43,31,67c16.5,19,34,37.5,26.5,48.5c-6,9-44,9-57,9.5
											c-16,1-38.5,1-42.5,3s-6,8.3,7.5,10.5c21,3.5,42.2,5.5,63.5,6c28.5,0,58-4.5,64.5-26.5c5-17.5-13-36.5-28.5-55.5
											c-17-21.2-34.5-36.2-33-51.2c1-11.5,24-12,61-13c8,0,23.5-0.5,20.5-6.5s-14-7-28.5-9.5"/>
										<path class="st0" d="M104,416c-2.5,15.5-13,28.5-32.5,28.5s-25.5-13-23-28.5s13-28.5,32.5-28.5S107,400.5,104,416
											 M79.5,396.5c-11,0-17,6.5-19,19s1.5,19,12.5,19s17-6.5,19-19S90.5,396.5,79.5,396.5"/>
										<path class="st0" d="M174,387.5h-10L154,442h12l9.5-52.5C176,388.5,175,387.5,174,387.5L174,387.5"/>
										<path class="st0" d="M145,433h-23l8-44c0-1-0.5-1.5-1.5-2H118l-10,54.5h38.5l1-5.5C148.5,434,147.5,433,145,433"/>
										<path class="st0" d="M214.5,387.5H185v1c-0.5,3.5-0.5,8,5.5,8H212c8.5,0,12,6,10,18c-2,10.5-7.5,19-16.5,19h-12L199,403
											h-10c-1.2,0-2.2,0.8-2.5,2l-6.5,37h23c17,0,29-8,32.5-28C238.5,398.5,232,387.5,214.5,387.5"/>
										<path class="st0" d="M3.5,399.5c-0.8,5,1.3,10.1,5.5,13l17.5,12c2,1.5,2.5,2,2.5,3.5s-1.5,3-5,3H4c-2.1-0.1-3.8,1.4-4,3.5
											v7.5h24c8,1.1,15.4-4.5,16.5-12.5c1-5.1-0.9-10.3-5-13.5L17,403c-1.5-1.5-2-2-2-2.5c0.7-1.3,2-2.1,3.5-2h21
											c2.5,0,4-2.5,4.5-5v-6H16C9.5,388.1,4.3,393.1,3.5,399.5"/>
										<path class="st0" d="M407,392.5c2.1,3.3,2.8,7.2,2,11c-2,8.7-9.6,14.9-18.5,15l11.5,20c0.5,0.5,0.5,1.5,1,2
											c0.1,1-0.5,1.9-1.5,2c0,0,0,0,0,0l0,0c-0.2,0-0.4,0-0.5,0h-3L384.5,419h-11l-4,23.5h-6l10-54.5h14
											C395.5,388,402.5,388,407,392.5 M401.5,396.5c-1.6-1.2-3.5-1.9-5.5-2c-1,0-2-0.5-3-0.5h-15l-3.5,20h6.5
											c4.4,0.2,8.7-0.2,13-1C402.5,410.5,406.5,401,401.5,396.5"/>
										<path class="st0" d="M458,388c-0.4-0.4-1-0.6-1.5-0.5H454l-28,24l4-21.2c0-1,0-2-1-2.5c-0.4-0.4-1-0.6-1.5-0.5H425
											l-10,54.5h5l4.5-24l22,24h2.5c1,0.1,1.9-0.5,2-1.5c0,0,0,0,0,0l0,0c0-0.2,0-0.4,0-0.5c-0.1-0.8-0.5-1.4-1-2l-20-22.5
											l28-24c0.5-0.6,0.9-1.2,1-2c0-0.5-0.5-1-1-1.5"/>
										<path class="st0" d="M358.5,418c-3.5,15.5-15,28-32.5,26.5l0,0c-16.5-2-21.5-16.5-18-30.5c4-15.5,15-28,32.5-26.5l0,0
											C357,389.5,362,404,358.5,418 M339,393c-10-0.5-21.5,5.5-25.5,21s3.5,23,13,24.5h1c10,0.5,21-5.5,24.5-21.5
											S349,394,339,393"/>
										<path class="st0" d="M500,387.5h-22.5c-6.3-0.2-11.7,4.7-12,11v1.8c0.3,3.4,2,6.7,4.5,9l15.5,15c1.6,1.6,2.5,3.7,2.5,6
											c-0.1,3.3-2.7,5.9-6,6h-20.5c-0.7,0.2-1.3,0.8-1.5,1.5l0,0v4h22.5c6.3,0.2,11.7-4.7,12-11v-2l0,0c-0.3-3.9-2.1-7.4-5-10
											L475,405c-1.5-1.5-2.5-3.4-3-5.5c0.1-3.3,2.7-5.9,6-6h20.5c0.7-0.2,1.3-0.8,1.5-1.5l0,0V387.5"/>
										<path class="st0" d="M308,390c0-0.5-0.5-1.5-1-1.5c-0.4-0.4-1-0.6-1.5-0.5H303l-21,47.3l-5.5-26c0-2-1.6-3.5-3.6-3.5
											c0,0,0,0,0,0H269l-17.5,29.5v-45.5c0-0.5-0.5-1.5-1-1.5c-0.4-0.4-1-0.6-1.5-0.5h-3.5v54.5h4.5c1.2-0.1,2.4-0.4,3.5-1
											c1.1-0.6,1.9-1.4,2.5-2.5l14.5-26l6,30h4c2.5,0.1,4.8-1.5,5.5-4l21-47.5c1-0.5,1-1,1-1.5"/>
									</g>
								</g>
							</g>
						</g>
					</g>
				</g>
			</g>
		</g>
	</g>
</g>
<rect y="0" class="st1" width="500" height="500"/>
</svg>
