<?xml version="1.0" encoding="utf-8"?>
<!-- Generator: Adobe Illustrator 26.3.1, SVG Export Plug-In . SVG Version: 6.00 Build 0)  -->
<svg version="1.1" id="Layer_1" xmlns="http://www.w3.org/2000/svg" xmlns:xlink="http://www.w3.org/1999/xlink" x="0px" y="0px"
	 viewBox="0 0 500 500" style="enable-background:new 0 0 500 500;" xml:space="preserve">
<style type="text/css">
	.st0{fill:url(#SVGID_1_);}
	.st1{fill:url(#SVGID_00000074404439794422242280000017132260342148050365_);}
	.st2{fill:url(#SVGID_00000152235877869637443900000000940708895361041052_);}
</style>
<g>
	<linearGradient id="SVGID_1_" gradientUnits="userSpaceOnUse" x1="252.7715" y1="486.9903" x2="252.7715" y2="11.0024">
		<stop  offset="0" style="stop-color:#07509D"/>
		<stop  offset="1" style="stop-color:#47C6F3"/>
	</linearGradient>
	<circle class="st0" cx="252.8" cy="249" r="238"/>
	<g>
		
			<radialGradient id="SVGID_00000152951157863112955940000008988211876859348116_" cx="250" cy="250" r="250" gradientUnits="userSpaceOnUse">
			<stop  offset="0.95" style="stop-color:#F1F1F1"/>
			<stop  offset="1" style="stop-color:#CCCBC9"/>
		</radialGradient>
		<path style="fill:url(#SVGID_00000152951157863112955940000008988211876859348116_);" d="M250,0C111.9,0,0,111.9,0,250
			s111.9,250,250,250s250-111.9,250-250S388.1,0,250,0z M368.3,54.2c33.9,20.3,58.7,45.2,78.8,79.2c14.3,24.1,23.4,48.7,28.3,76.2
			c1.2,6.9-0.1,11.7-4.8,16.9c-26.6,30.1-56.2,54.8-90.6,75.6c-3.1,1.9-6.9-1-6-4.5c21-78.8,16.9-162.2-11.7-238.6
			C361.1,55.5,365,52.2,368.3,54.2z M140.7,50.6c34.5-19.2,68.5-28.2,108-28.7c28-0.3,53.9,4.1,80.2,13.6c6.6,2.4,10.1,6,12.3,12.6
			c12.8,38.1,19.3,76,20.2,116.2c0.1,3.6-4.3,5.5-6.9,2.9c-57.7-57.6-132-95.8-212.4-109.2C138.3,57.5,137.4,52.5,140.7,50.6z
			 M23.8,245.9c0.6-39.5,9.8-73.4,29.1-107.9c13.7-24.4,30.5-44.6,51.9-62.7c5.3-4.5,10.2-5.7,17-4.3c39.4,8,75.5,21.3,110.8,40.7
			c3.2,1.8,2.6,6.5-0.9,7.4C153,140.3,82.8,185.5,31,248.5C28.5,251.5,23.7,249.7,23.8,245.9z M134.5,444.8
			c-33.9-20.3-58.7-45.2-78.8-79.2c-14.3-24.1-23.4-48.7-28.3-76.2c-1.2-6.9,0.1-11.7,4.8-16.9c26.6-30.1,56.2-54.8,90.6-75.6
			c3.1-1.9,6.9,1,6,4.5c-21,78.8-16.9,162.2,11.7,238.5C141.7,443.5,137.7,446.7,134.5,444.8z M362,448.4
			c-34.5,19.2-68.5,28.2-108,28.7c-28,0.3-53.9-4.1-80.2-13.6c-6.6-2.4-10.1-6-12.3-12.6c-12.8-38.1-19.3-76-20.2-116.2
			c-0.1-3.6,4.3-5.5,6.9-2.9c57.7,57.6,132,95.8,212.4,109.2C364.5,441.5,365.4,446.5,362,448.4z M398,423.6
			c-5.3,4.5-10.2,5.7-17,4.3c-39.4-8-75.5-21.3-110.8-40.7c-3.2-1.8-2.6-6.5,0.9-7.4c78.8-21.2,148.9-66.4,200.7-129.4
			c2.4-3,7.2-1.2,7.2,2.6c-0.6,39.5-9.8,73.4-29.1,107.9C436.1,385.4,419.4,405.6,398,423.6z"/>
	</g>
	
		<linearGradient id="SVGID_00000181788473771169801750000006882181981758429334_" gradientUnits="userSpaceOnUse" x1="251.3857" y1="355.1275" x2="251.3857" y2="143.8689">
		<stop  offset="0" style="stop-color:#000000"/>
		<stop  offset="0.2549" style="stop-color:#030303"/>
		<stop  offset="0.4595" style="stop-color:#0D0D0D"/>
		<stop  offset="0.6467" style="stop-color:#1E1E1E"/>
		<stop  offset="0.8233" style="stop-color:#363536"/>
		<stop  offset="0.9914" style="stop-color:#545354"/>
		<stop  offset="1" style="stop-color:#565556"/>
	</linearGradient>
	<path style="fill:url(#SVGID_00000181788473771169801750000006882181981758429334_);" d="M280.4,147.5c-4.9-3.4-9.4-4.4-15.3-3.2
		c-30.5,6.2-59.3,15.7-87.5,29c-5.4,2.6-8.5,6-10.4,11.7c-9.9,29.6-16,59.2-18.6,90.3c-0.5,6,0.9,10.3,4.9,14.9
		c20.6,23.3,43.3,43.5,68.9,61.3c4.9,3.4,9.4,4.4,15.3,3.2c30.5-6.2,59.3-15.7,87.5-29c5.4-2.6,8.5-6,10.4-11.7
		c9.9-29.6,16-59.2,18.6-90.3c0.5-6-0.9-10.3-4.9-14.9C328.6,185.4,306,165.3,280.4,147.5z"/>
</g>
</svg>
