<?xml version="1.0" encoding="utf-8"?>
<!-- Generator: Adobe Illustrator 26.3.1, SVG Export Plug-In . SVG Version: 6.00 Build 0)  -->
<svg version="1.1" id="Layer_1" xmlns="http://www.w3.org/2000/svg" xmlns:xlink="http://www.w3.org/1999/xlink" x="0px" y="0px"
	 viewBox="0 0 500 500" style="enable-background:new 0 0 500 500;" xml:space="preserve">
<style type="text/css">
	.st0{fill:url(#path1948_00000109745280566620457720000011113235556400474760_);}
	.st1{fill:url(#path1950_00000013878366651372155790000017549836287774663357_);}
</style>
<sodipodi:namedview  bordercolor="#666666" borderopacity="1.0" gridtolerance="10.0" guidetolerance="10.0" height="40mm" id="base" objecttolerance="10.0" pagecolor="#ffffff" showgrid="false" units="mm" width="210mm">
	</sodipodi:namedview>
<g>
	
		<linearGradient id="path1948_00000095324726189911090840000007133503384653485466_" gradientUnits="userSpaceOnUse" x1="561.289" y1="236.5013" x2="1046.2845" y2="-180.7722" gradientTransform="matrix(0.5625 0 0 -0.568 -325.1495 148.5635)">
		<stop  offset="0" style="stop-color:#5A9FD4"/>
		<stop  offset="1" style="stop-color:#306998"/>
	</linearGradient>
	<path id="path1948" style="fill:url(#path1948_00000095324726189911090840000007133503384653485466_);" d="M247.1,0
		c-20.4,0.1-39.9,1.8-57,4.9c-50.5,8.9-59.6,27.6-59.6,62v45.5h119.3v15.2H130.4H85.6c-34.7,0-65,20.8-74.5,60.5
		c-11,45.4-11.4,73.8,0,121.2c8.5,35.3,28.7,60.5,63.4,60.5h41v-54.5c0-39.4,34.1-74.1,74.5-74.1h119.1c33.2,0,59.6-27.3,59.6-60.6
		V66.9c0-32.3-27.3-56.6-59.6-62C288.7,1.5,267.4-0.1,247.1,0z M182.5,36.6c12.3,0,22.4,10.2,22.4,22.8c0,12.5-10.1,22.7-22.4,22.7
		c-12.4,0-22.4-10.1-22.4-22.7C160.2,46.8,170.2,36.6,182.5,36.6z"/>
	
		<linearGradient id="path1950_00000032637212215792838370000005696511767583986578_" gradientUnits="userSpaceOnUse" x1="1233.787" y1="-433.3235" x2="1060.5953" y2="-188.2872" gradientTransform="matrix(0.5625 0 0 -0.568 -325.1495 148.5635)">
		<stop  offset="0" style="stop-color:#FFD43B"/>
		<stop  offset="1" style="stop-color:#FFE873"/>
	</linearGradient>
	<path id="path1950" style="fill:url(#path1950_00000032637212215792838370000005696511767583986578_);" d="M383.7,127.5v53
		c0,41.1-34.8,75.6-74.5,75.6H190.1c-32.6,0-59.6,27.9-59.6,60.6v113.6c0,32.3,28.1,51.3,59.6,60.6c37.8,11.1,74,13.1,119.1,0
		c30-8.7,59.6-26.2,59.6-60.6v-45.5H249.7v-15.2h119.1h59.6c34.7,0,47.6-24.2,59.6-60.5c12.5-37.4,11.9-73.3,0-121.2
		c-8.6-34.5-24.9-60.5-59.6-60.5L383.7,127.5z M316.7,415.1c12.4,0,22.4,10.1,22.4,22.7c0,12.6-10,22.8-22.4,22.8
		c-12.3,0-22.4-10.2-22.4-22.8C294.3,425.3,304.4,415.1,316.7,415.1z"/>
</g>
</svg>
