<?xml version="1.0" encoding="utf-8"?>
<!-- Generator: Adobe Illustrator 28.1.0, SVG Export Plug-In . SVG Version: 6.00 Build 0)  -->
<svg version="1.1" id="Layer_1" xmlns="http://www.w3.org/2000/svg" xmlns:xlink="http://www.w3.org/1999/xlink" x="0px" y="0px"
	 viewBox="0 0 42 42" style="enable-background:new 0 0 42 42;" xml:space="preserve">
<style type="text/css">
	.st0{opacity:0.15;fill:url(#SVGID_1_);enable-background:new    ;}
	.st1{opacity:0.15;fill:url(#SVGID_00000183965227575079343210000004194724941189543047_);enable-background:new    ;}
	
		.st2{fill:url(#SVGID_00000016040957145707204210000006635225607447831996_);stroke:url(#SVGID_00000148621159637359422060000000999666572626803073_);stroke-width:0.25;}
	
		.st3{fill:url(#SVGID_00000038382895280893931360000009024426001838209463_);stroke:url(#SVGID_00000022526608571162339940000015066668962019816328_);stroke-width:0.25;}
	
		.st4{fill:url(#SVGID_00000005962233858010576990000013715618972241080742_);stroke:url(#SVGID_00000149347281684855943660000012049777723644810924_);stroke-width:0.25;}
	
		.st5{fill:url(#SVGID_00000170254095227522671450000014042846312587447175_);stroke:url(#SVGID_00000007402704299460747260000006416082628281615292_);stroke-width:0.25;}
	
		.st6{fill:url(#SVGID_00000008851689697431134950000012815388063645191328_);stroke:url(#SVGID_00000090282552524917716440000013710550690068393361_);stroke-width:0.25;}
	
		.st7{fill:url(#SVGID_00000096060862768251135670000010945503031484345732_);stroke:url(#SVGID_00000021108721159022405730000012551029567561212594_);stroke-width:0.25;}
	
		.st8{fill:url(#SVGID_00000112625783487197076380000000811884406692386477_);stroke:url(#SVGID_00000131325751840299645320000006234111879001881272_);stroke-width:0.25;}
	
		.st9{fill:url(#SVGID_00000157293865534972284560000009178684594272399768_);stroke:url(#SVGID_00000052096034191926609040000014012010500080723368_);stroke-width:0.25;}
	
		.st10{fill:url(#SVGID_00000077284477600081516190000003381843645373615513_);stroke:url(#SVGID_00000054244232377889923620000010698339766292633756_);stroke-width:0.25;}
	
		.st11{fill:url(#SVGID_00000101806410097218285840000015320302865499135894_);stroke:url(#SVGID_00000179625461490723028890000006298433744495070368_);stroke-width:0.25;}
	
		.st12{fill:url(#SVGID_00000167379815186689391890000008312478802283136400_);stroke:url(#SVGID_00000159443704871330137820000016037784312659084944_);stroke-width:0.25;}
</style>
<g>
	
		<linearGradient id="SVGID_1_" gradientUnits="userSpaceOnUse" x1="4" y1="37.05" x2="38" y2="37.05" gradientTransform="matrix(1 0 0 -1 0 44)">
		<stop  offset="0.2593" style="stop-color:#FFDB6E"/>
		<stop  offset="1" style="stop-color:#FFBC5E"/>
	</linearGradient>
	<path class="st0" d="M21.2,5.7l16.8,5V8.5L21,3.1L4,8.5v2.2l16.9-5C21,5.7,21.1,5.7,21.2,5.7z"/>
	
		<linearGradient id="SVGID_00000121279959080452566010000008334893393620971686_" gradientUnits="userSpaceOnUse" x1="3.9915" y1="8.75" x2="37.9915" y2="8.75" gradientTransform="matrix(1 0 0 -1 0 44)">
		<stop  offset="0.2593" style="stop-color:#FFDB6E"/>
		<stop  offset="1" style="stop-color:#FFBC5E"/>
	</linearGradient>
	<path style="opacity:0.15;fill:url(#SVGID_00000121279959080452566010000008334893393620971686_);enable-background:new    ;" d="
		M21,36.5L21,36.5l-16.9-5v2.2l17,5.4l17-5.4v-2.2l-16.9,5C21,36.3,21,36.5,21,36.5z"/>
	<g>
		
			<linearGradient id="SVGID_00000035532070604861010190000018148049950445969280_" gradientUnits="userSpaceOnUse" x1="3" y1="9.363" x2="39" y2="9.363" gradientTransform="matrix(1 0 0 -1 0 44)">
			<stop  offset="0.2593" style="stop-color:#FFDB6E"/>
			<stop  offset="1" style="stop-color:#FFBC5E"/>
		</linearGradient>
		
			<linearGradient id="SVGID_00000081610229362862191690000011924028632629120934_" gradientUnits="userSpaceOnUse" x1="2.875" y1="9.363" x2="39.125" y2="9.363" gradientTransform="matrix(1 0 0 -1 0 44)">
			<stop  offset="0.2593" style="stop-color:#FFDB6E"/>
			<stop  offset="1" style="stop-color:#FFBC5E"/>
		</linearGradient>
		
			<path style="fill:url(#SVGID_00000035532070604861010190000018148049950445969280_);stroke:url(#SVGID_00000081610229362862191690000011924028632629120934_);stroke-width:0.25;" d="
			M39,30.5L39,30.5c0-0.1-0.1-0.1-0.1-0.2l0,0l-0.1-0.1c0,0,0,0-0.1,0h-0.1l-3.1-0.7c-0.3-0.1-0.5,0.1-0.6,0.4s0.1,0.5,0.4,0.6
			l1.3,0.3L21,35.3L5.5,30.8l0.9-0.2c0.3-0.1,0.4-0.3,0.4-0.6c-0.1-0.3-0.3-0.4-0.6-0.4l-2.8,0.6H3.3c0,0,0,0-0.1,0l-0.1,0.1l0,0
			c0,0-0.1,0.1-0.1,0.2l0,0l0,0v0.1v3.2c0,0.2,0.1,0.4,0.3,0.5l17.5,5.5c0,0,0.1,0,0.2,0s0.1,0,0.2,0l17.4-5.3
			c0.2-0.1,0.3-0.3,0.3-0.5v-3.2C39,30.6,39,30.6,39,30.5C39,30.6,39,30.6,39,30.5z M38,33.5L21,39L4,33.5v-2.2l16.8,5h0.1H21
			l16.9-5v2.2H38z"/>
		
			<linearGradient id="SVGID_00000183240141937623795790000003335685628876670895_" gradientUnits="userSpaceOnUse" x1="3" y1="36.45" x2="39" y2="36.45" gradientTransform="matrix(1 0 0 -1 0 44)">
			<stop  offset="0.2593" style="stop-color:#FFDB6E"/>
			<stop  offset="1" style="stop-color:#FFBC5E"/>
		</linearGradient>
		
			<linearGradient id="SVGID_00000021116776898644911510000004325515207608053137_" gradientUnits="userSpaceOnUse" x1="2.875" y1="36.45" x2="39.125" y2="36.45" gradientTransform="matrix(1 0 0 -1 0 44)">
			<stop  offset="0.2593" style="stop-color:#FFDB6E"/>
			<stop  offset="1" style="stop-color:#FFBC5E"/>
		</linearGradient>
		
			<path style="fill:url(#SVGID_00000183240141937623795790000003335685628876670895_);stroke:url(#SVGID_00000021116776898644911510000004325515207608053137_);stroke-width:0.25;" d="
			M38.6,7.7L21.1,2.2c-0.1,0-0.2,0-0.3,0L3.3,7.7C3.1,7.8,3,8,3,8.2v3.2v0.1l0,0l0,0c0,0.1,0.1,0.2,0.2,0.2l0,0
			c0.1,0,0.1,0.1,0.2,0.1l3.9,0.9c0.3,0.1,0.5-0.1,0.6-0.4s-0.1-0.5-0.4-0.6l-2-0.4l15.6-4.6l15.4,4.6l-2,0.5
			c-0.3,0.1-0.4,0.3-0.4,0.6c0.1,0.2,0.3,0.4,0.5,0.4h0.1l3.9-0.9c0,0,0,0,0.1,0h0.1c0,0,0.1,0,0.1-0.1l0,0c0,0,0.1-0.1,0.1-0.2l0,0
			l0,0v-0.1V8.3C39,8,38.8,7.9,38.6,7.7z M38,10.7l-16.8-5c-0.1,0-0.2,0-0.3,0L4,10.7V8.5l17-5.4l17,5.4V10.7z"/>
		
			<linearGradient id="SVGID_00000170241959898044965720000012041463783347969462_" gradientUnits="userSpaceOnUse" x1="10.429" y1="13.9" x2="18.5086" y2="13.9" gradientTransform="matrix(1 0 0 -1 0 44)">
			<stop  offset="0.2593" style="stop-color:#FFDB6E"/>
			<stop  offset="1" style="stop-color:#FFBC5E"/>
		</linearGradient>
		
			<linearGradient id="SVGID_00000096739680613799238040000006565725402605071783_" gradientUnits="userSpaceOnUse" x1="10.304" y1="13.9" x2="18.6336" y2="13.9" gradientTransform="matrix(1 0 0 -1 0 44)">
			<stop  offset="0.2593" style="stop-color:#FFDB6E"/>
			<stop  offset="1" style="stop-color:#FFBC5E"/>
		</linearGradient>
		
			<path style="fill:url(#SVGID_00000170241959898044965720000012041463783347969462_);stroke:url(#SVGID_00000096739680613799238040000006565725402605071783_);stroke-width:0.25;" d="
			M18,33c0.3,0,0.5-0.2,0.5-0.5v-1.7c0-0.3-0.2-0.5-0.5-0.5h-2.1v-2.5c0-0.3-0.2-0.5-0.5-0.5h-4.5c-0.3,0-0.5,0.2-0.5,0.5v2.9
			c0,0.3,0.2,0.5,0.5,0.5s0.5-0.2,0.5-0.5v-2.4h3.5v2.5c0,0.3,0.2,0.5,0.5,0.5h2.1v1.2C17.5,32.8,17.7,33,18,33z"/>
		
			<linearGradient id="SVGID_00000113346721213455471800000017008498892387743665_" gradientUnits="userSpaceOnUse" x1="19.6561" y1="14.6" x2="28.929" y2="14.6" gradientTransform="matrix(1 0 0 -1 0 44)">
			<stop  offset="0.2593" style="stop-color:#FFDB6E"/>
			<stop  offset="1" style="stop-color:#FFBC5E"/>
		</linearGradient>
		
			<linearGradient id="SVGID_00000084502797388294161490000011127411382131004827_" gradientUnits="userSpaceOnUse" x1="19.5311" y1="14.6" x2="29.054" y2="14.6" gradientTransform="matrix(1 0 0 -1 0 44)">
			<stop  offset="0.2593" style="stop-color:#FFDB6E"/>
			<stop  offset="1" style="stop-color:#FFBC5E"/>
		</linearGradient>
		
			<path style="fill:url(#SVGID_00000113346721213455471800000017008498892387743665_);stroke:url(#SVGID_00000084502797388294161490000011127411382131004827_);stroke-width:0.25;" d="
			M28.4,30.5c0.3,0,0.5-0.2,0.5-0.5V28c0-0.3-0.2-0.5-0.5-0.5h-2c-0.3,0-0.5,0.2-0.5,0.5v2.4h-1.5V28c0-0.3-0.2-0.5-0.5-0.5h-3.7
			c-0.3,0-0.5,0.2-0.5,0.5v1.8c0,0.3,0.2,0.5,0.5,0.5s0.5-0.2,0.5-0.5v-1.3h2.7v2.4c0,0.3,0.2,0.5,0.5,0.5h2.5
			c0.3,0,0.5-0.2,0.5-0.5v-2.4h1V30C27.9,30.3,28.2,30.5,28.4,30.5z"/>
		
			<linearGradient id="SVGID_00000007422834053570624800000012342237698112333974_" gradientUnits="userSpaceOnUse" x1="7.7" y1="23.2" x2="34" y2="23.2" gradientTransform="matrix(1 0 0 -1 0 44)">
			<stop  offset="0.2593" style="stop-color:#FFDB6E"/>
			<stop  offset="1" style="stop-color:#FFBC5E"/>
		</linearGradient>
		
			<linearGradient id="SVGID_00000157298042653711701270000010956120009186796957_" gradientUnits="userSpaceOnUse" x1="7.575" y1="23.2" x2="34.125" y2="23.2" gradientTransform="matrix(1 0 0 -1 0 44)">
			<stop  offset="0.2593" style="stop-color:#FFDB6E"/>
			<stop  offset="1" style="stop-color:#FFBC5E"/>
		</linearGradient>
		
			<path style="fill:url(#SVGID_00000007422834053570624800000012342237698112333974_);stroke:url(#SVGID_00000157298042653711701270000010956120009186796957_);stroke-width:0.25;" d="
			M7.7,25.5v4.3c0,0.3,0.2,0.5,0.5,0.5s0.5-0.2,0.5-0.5V26h2.8c0.3,0,0.5-0.2,0.5-0.5v-1.2h2.8c0.3,0,0.5-0.2,0.5-0.5V23h2.2
			c0.3,0,0.5-0.2,0.5-0.5v-7.7h2.5v1h-1.2c-0.3,0-0.5,0.2-0.5,0.5c0,0.3,0.2,0.5,0.5,0.5h1.2v0.8h-1.2c-0.3,0-0.5,0.2-0.5,0.5
			s0.2,0.5,0.5,0.5h1.2v0.8h-1.2c-0.3,0-0.5,0.2-0.5,0.5s0.2,0.5,0.5,0.5h1.2v0.8h-1.2c-0.3,0-0.5,0.2-0.5,0.5s0.2,0.5,0.5,0.5h1.2
			v3c0,0.3,0.2,0.5,0.5,0.5h2.5c0.3,0,0.5-0.2,0.5-0.5v-5.7h1.9v1.2H25c-0.3,0-0.5,0.2-0.5,0.5s0.2,0.5,0.5,0.5h0.9V22H25
			c-0.3,0-0.5,0.2-0.5,0.5S24.7,23,25,23h0.9v3.6c0,0.3,0.2,0.5,0.5,0.5h3.4v1.6c0,0.3,0.2,0.5,0.5,0.5H33v1.2
			c0,0.3,0.2,0.5,0.5,0.5s0.5-0.2,0.5-0.5v-1.8c0-0.3-0.2-0.5-0.5-0.5h-2.7v-1.6c0-0.3-0.2-0.5-0.5-0.5h-3.4v-3.6V21v-2.2
			c0-0.3-0.2-0.5-0.5-0.5h-0.1v-2.5c0-0.3-0.2-0.5-0.5-0.5s-0.5,0.2-0.5,0.5v2.5h-1.8c-0.3,0-0.5,0.2-0.5,0.5v5.7h-1.5V14.3
			c0-0.3-0.2-0.5-0.5-0.5h-0.3v-2.7c0-0.3-0.2-0.5-0.5-0.5s-0.5,0.2-0.5,0.5v2.7h-0.6v-1.6c0-0.3-0.2-0.5-0.5-0.5s-0.5,0.2-0.5,0.5
			v1.6h-0.6c-0.3,0-0.5,0.2-0.5,0.5V22h-2.2c-0.3,0-0.5,0.2-0.5,0.5v0.9h-2.8c-0.3,0-0.5,0.2-0.5,0.5v1.2H8.2
			C7.9,25,7.7,25.2,7.7,25.5z"/>
		
			<linearGradient id="SVGID_00000161630117780957241570000012531956434535855750_" gradientUnits="userSpaceOnUse" x1="8.679" y1="29.1" x2="9.679" y2="29.1" gradientTransform="matrix(1 0 0 -1 0 44)">
			<stop  offset="0.2593" style="stop-color:#FFDB6E"/>
			<stop  offset="1" style="stop-color:#FFBC5E"/>
		</linearGradient>
		
			<linearGradient id="SVGID_00000042708307383491103030000015547806807899048080_" gradientUnits="userSpaceOnUse" x1="8.554" y1="29.1" x2="9.804" y2="29.1" gradientTransform="matrix(1 0 0 -1 0 44)">
			<stop  offset="0.2593" style="stop-color:#FFDB6E"/>
			<stop  offset="1" style="stop-color:#FFBC5E"/>
		</linearGradient>
		
			<path style="fill:url(#SVGID_00000161630117780957241570000012531956434535855750_);stroke:url(#SVGID_00000042708307383491103030000015547806807899048080_);stroke-width:0.25;" d="
			M9.2,18.5c0.3,0,0.5-0.2,0.5-0.5v-6.1c0-0.3-0.2-0.5-0.5-0.5s-0.5,0.2-0.5,0.5V18C8.7,18.2,8.9,18.5,9.2,18.5z"/>
		
			<linearGradient id="SVGID_00000150061031857967002150000000857406296953099700_" gradientUnits="userSpaceOnUse" x1="32.304" y1="29.1" x2="33.304" y2="29.1" gradientTransform="matrix(1 0 0 -1 0 44)">
			<stop  offset="0.2593" style="stop-color:#FFDB6E"/>
			<stop  offset="1" style="stop-color:#FFBC5E"/>
		</linearGradient>
		
			<linearGradient id="SVGID_00000048478391826948225050000016802944747212111235_" gradientUnits="userSpaceOnUse" x1="32.179" y1="29.1" x2="33.429" y2="29.1" gradientTransform="matrix(1 0 0 -1 0 44)">
			<stop  offset="0.2593" style="stop-color:#FFDB6E"/>
			<stop  offset="1" style="stop-color:#FFBC5E"/>
		</linearGradient>
		
			<path style="fill:url(#SVGID_00000150061031857967002150000000857406296953099700_);stroke:url(#SVGID_00000048478391826948225050000016802944747212111235_);stroke-width:0.25;" d="
			M32.8,18.5c0.3,0,0.5-0.2,0.5-0.5v-6.1c0-0.3-0.2-0.5-0.5-0.5s-0.5,0.2-0.5,0.5V18C32.3,18.2,32.5,18.5,32.8,18.5z"/>
		
			<linearGradient id="SVGID_00000069386470668501724800000010382338488187158454_" gradientUnits="userSpaceOnUse" x1="29.7581" y1="28.75" x2="30.7581" y2="28.75" gradientTransform="matrix(1 0 0 -1 0 44)">
			<stop  offset="0.2593" style="stop-color:#FFDB6E"/>
			<stop  offset="1" style="stop-color:#FFBC5E"/>
		</linearGradient>
		
			<linearGradient id="SVGID_00000062168228580268974670000004413849734280149137_" gradientUnits="userSpaceOnUse" x1="29.6331" y1="28.75" x2="30.8831" y2="28.75" gradientTransform="matrix(1 0 0 -1 0 44)">
			<stop  offset="0.2593" style="stop-color:#FFDB6E"/>
			<stop  offset="1" style="stop-color:#FFBC5E"/>
		</linearGradient>
		
			<path style="fill:url(#SVGID_00000069386470668501724800000010382338488187158454_);stroke:url(#SVGID_00000062168228580268974670000004413849734280149137_);stroke-width:0.25;" d="
			M30.3,16.2c0.3,0,0.5-0.2,0.5-0.5v-0.8c0-0.3-0.2-0.5-0.5-0.5s-0.5,0.2-0.5,0.5v0.8C29.8,15.9,30,16.2,30.3,16.2z"/>
		
			<linearGradient id="SVGID_00000183208971745201954300000011247926073407641236_" gradientUnits="userSpaceOnUse" x1="29.7581" y1="26.5" x2="30.7581" y2="26.5" gradientTransform="matrix(1 0 0 -1 0 44)">
			<stop  offset="0.2593" style="stop-color:#FFDB6E"/>
			<stop  offset="1" style="stop-color:#FFBC5E"/>
		</linearGradient>
		
			<linearGradient id="SVGID_00000136380395236687097630000013510722951364371601_" gradientUnits="userSpaceOnUse" x1="29.6331" y1="26.5" x2="30.8831" y2="26.5" gradientTransform="matrix(1 0 0 -1 0 44)">
			<stop  offset="0.2593" style="stop-color:#FFDB6E"/>
			<stop  offset="1" style="stop-color:#FFBC5E"/>
		</linearGradient>
		
			<path style="fill:url(#SVGID_00000183208971745201954300000011247926073407641236_);stroke:url(#SVGID_00000136380395236687097630000013510722951364371601_);stroke-width:0.25;" d="
			M30.3,18c0.3,0,0.5-0.2,0.5-0.5v-0.1c0-0.3-0.2-0.5-0.5-0.5s-0.5,0.3-0.5,0.5S30,18,30.3,18z"/>
		
			<linearGradient id="SVGID_00000035492844183537202720000007471597232410727844_" gradientUnits="userSpaceOnUse" x1="32.304" y1="24.7" x2="33.304" y2="24.7" gradientTransform="matrix(1 0 0 -1 0 44)">
			<stop  offset="0.2593" style="stop-color:#FFDB6E"/>
			<stop  offset="1" style="stop-color:#FFBC5E"/>
		</linearGradient>
		
			<linearGradient id="SVGID_00000025444433069371958250000002773236800623496872_" gradientUnits="userSpaceOnUse" x1="32.179" y1="24.7" x2="33.429" y2="24.7" gradientTransform="matrix(1 0 0 -1 0 44)">
			<stop  offset="0.2593" style="stop-color:#FFDB6E"/>
			<stop  offset="1" style="stop-color:#FFBC5E"/>
		</linearGradient>
		
			<path style="fill:url(#SVGID_00000035492844183537202720000007471597232410727844_);stroke:url(#SVGID_00000025444433069371958250000002773236800623496872_);stroke-width:0.25;" d="
			M32.8,19.8c0.3,0,0.5-0.2,0.5-0.5v-0.1c0-0.3-0.2-0.5-0.5-0.5s-0.5,0.3-0.5,0.5S32.5,19.8,32.8,19.8z"/>
		
			<linearGradient id="SVGID_00000137117983777761690620000017073155405112781985_" gradientUnits="userSpaceOnUse" x1="8.679" y1="24.3" x2="9.679" y2="24.3" gradientTransform="matrix(1 0 0 -1 0 44)">
			<stop  offset="0.2593" style="stop-color:#FFDB6E"/>
			<stop  offset="1" style="stop-color:#FFBC5E"/>
		</linearGradient>
		
			<linearGradient id="SVGID_00000031196676369253365070000016748969798862312336_" gradientUnits="userSpaceOnUse" x1="8.554" y1="24.3" x2="9.804" y2="24.3" gradientTransform="matrix(1 0 0 -1 0 44)">
			<stop  offset="0.2593" style="stop-color:#FFDB6E"/>
			<stop  offset="1" style="stop-color:#FFBC5E"/>
		</linearGradient>
		
			<path style="fill:url(#SVGID_00000137117983777761690620000017073155405112781985_);stroke:url(#SVGID_00000031196676369253365070000016748969798862312336_);stroke-width:0.25;" d="
			M9.2,20.2c0.3,0,0.5-0.2,0.5-0.5v-0.1c0-0.3-0.2-0.5-0.5-0.5s-0.5,0.3-0.5,0.5S8.9,20.2,9.2,20.2z"/>
	</g>
</g>
</svg>
