<?xml version="1.0" encoding="utf-8"?>
<!-- Generator: Adobe Illustrator 28.1.0, SVG Export Plug-In . SVG Version: 6.00 Build 0)  -->
<svg version="1.1" id="Layer_1" xmlns="http://www.w3.org/2000/svg" xmlns:xlink="http://www.w3.org/1999/xlink" x="0px" y="0px"
	 viewBox="0 0 42 42" style="enable-background:new 0 0 42 42;" xml:space="preserve">
<style type="text/css">
	.st0{opacity:0.15;fill:url(#SVGID_1_);enable-background:new    ;}
	.st1{opacity:0.15;fill:url(#SVGID_00000155846312424060896520000017380185527132895112_);enable-background:new    ;}
	.st2{opacity:0.15;fill:url(#SVGID_00000108991203003321401350000017452241917655552131_);enable-background:new    ;}
	.st3{opacity:0.15;fill:url(#SVGID_00000084505991411845860690000018028051135115051451_);enable-background:new    ;}
	.st4{opacity:0.15;fill:url(#SVGID_00000026871372346897349340000005194999133882061484_);enable-background:new    ;}
	
		.st5{fill:url(#SVGID_00000181049712612984522390000009883278859430824620_);stroke:url(#SVGID_00000071524157347550513660000009388998114981334961_);stroke-width:0.25;}
	
		.st6{fill:url(#SVGID_00000039113618843526180370000005734727303548900485_);stroke:url(#SVGID_00000121274343454508040550000010115829192590165942_);stroke-width:0.25;}
	
		.st7{fill:url(#SVGID_00000077307199874017663290000004137393642895692971_);stroke:url(#SVGID_00000072263630371765329920000000811470686502621842_);stroke-width:0.25;}
	
		.st8{fill:url(#SVGID_00000060747019889870350600000002791201131847432874_);stroke:url(#SVGID_00000013905479586148605780000011463828730537822632_);stroke-width:0.25;}
	
		.st9{fill:url(#SVGID_00000080889154140873139250000004692171516571848380_);stroke:url(#SVGID_00000088096526049111384340000004536657448702208672_);stroke-width:0.25;}
	
		.st10{fill:url(#SVGID_00000152953252685450697180000018062149432357846453_);stroke:url(#SVGID_00000147917040720565279530000011790095187269939896_);stroke-width:0.25;}
	
		.st11{fill:url(#SVGID_00000002352472735444649440000017921853084479225261_);stroke:url(#SVGID_00000067213451014086018290000013040952667998578597_);stroke-width:0.25;}
	
		.st12{fill:url(#SVGID_00000083060859106805068810000006530507409788638597_);stroke:url(#SVGID_00000142164300700693633670000006737519636920073401_);stroke-width:0.25;}
	
		.st13{fill:url(#SVGID_00000103253870110723799520000003220979321828115097_);stroke:url(#SVGID_00000142148205055443298670000009879670984375929000_);stroke-width:0.25;}
	
		.st14{fill:url(#SVGID_00000050629576972399384060000002424528732539786164_);stroke:url(#SVGID_00000173127069418090664020000010271676735202036620_);stroke-width:0.25;}
	
		.st15{fill:url(#SVGID_00000012462294425175475140000005047036249675497389_);stroke:url(#SVGID_00000166638974535608843390000003872471409585264546_);stroke-width:0.25;}
	
		.st16{fill:url(#SVGID_00000075859296329146146680000003491063312191412375_);stroke:url(#SVGID_00000145770860483490745550000008595935814311380125_);stroke-width:0.25;}
	
		.st17{fill:url(#SVGID_00000119806579754228386670000005532759549967629221_);stroke:url(#SVGID_00000029748067995146174000000005970253835662021000_);stroke-width:0.25;}
	
		.st18{fill:url(#SVGID_00000096053970935367530980000014921538789647193226_);stroke:url(#SVGID_00000158725003853475998070000014995116873521221258_);stroke-width:0.25;}
	
		.st19{fill:url(#SVGID_00000051359739419741155420000002515576205449690556_);stroke:url(#SVGID_00000150069047054482379580000001687385726769314213_);stroke-width:0.25;}
	
		.st20{fill:url(#SVGID_00000028323381153635622440000010919055700125074567_);stroke:url(#SVGID_00000098920151254589105380000012121567589430251431_);stroke-width:0.25;}
	
		.st21{fill:url(#SVGID_00000148623489335402680270000014027462706558864774_);stroke:url(#SVGID_00000143584579723032039060000013571662027717010823_);stroke-width:0.25;}
	
		.st22{fill:url(#SVGID_00000158027120230342655120000003606879154711115448_);stroke:url(#SVGID_00000130609857431678262240000018305054978125782694_);stroke-width:0.25;}
	
		.st23{fill:url(#SVGID_00000004537293147680356300000008741207680235659412_);stroke:url(#SVGID_00000114033300913095984080000007666075862182740639_);stroke-width:0.25;}
	
		.st24{fill:url(#SVGID_00000129172983671367897490000009417498871966932399_);stroke:url(#SVGID_00000084493335375911780650000018101660389913337733_);stroke-width:0.25;}
	
		.st25{fill:url(#SVGID_00000178185005519040505430000016791886506811094198_);stroke:url(#SVGID_00000053545151869450933470000013694367694476065699_);stroke-width:0.25;}
	
		.st26{fill:url(#SVGID_00000046339673843776164310000004253047010769433268_);stroke:url(#SVGID_00000145045832073103112090000009828374535533886892_);stroke-width:0.25;}
	
		.st27{fill:url(#SVGID_00000152263578677345720440000001235184085728088733_);stroke:url(#SVGID_00000130647684866316950940000001348298173216599693_);stroke-width:0.25;}
	
		.st28{fill:url(#SVGID_00000111904352976376489450000017277019309357927579_);stroke:url(#SVGID_00000095319634561100093200000012025103070143479971_);stroke-width:0.25;}
	.st29{fill:#A992E1;}
	.st30{fill:#816AB8;}
	.st31{fill:#9579DA;}
	.st32{fill:#FBD277;}
	.st33{fill:#F5B945;}
	.st34{fill:#F5C467;}
	
		.st35{fill:url(#SVGID_00000129169732337763211640000000078439838087998602_);stroke:url(#SVGID_00000083796816013931323760000010647988799026419629_);stroke-width:0.25;}
	
		.st36{fill:url(#SVGID_00000063613166576705338510000000889937207221522850_);stroke:url(#SVGID_00000090252525915782300790000008375123870946897337_);stroke-width:0.25;}
	
		.st37{fill:url(#SVGID_00000168076682501030522830000004465806606867286201_);stroke:url(#SVGID_00000160896856107799869100000008846526345597646726_);stroke-width:0.25;}
</style>
<g>
	<linearGradient id="SVGID_1_" gradientUnits="userSpaceOnUse" x1="7.9881" y1="20.9989" x2="34.0121" y2="20.9989">
		<stop  offset="0.2593" style="stop-color:#FFDB6E"/>
		<stop  offset="1" style="stop-color:#FFBC5E"/>
	</linearGradient>
	<path class="st0" d="M31.7,23.4c-0.2-0.1-0.2-0.3-0.2-0.4c0.3-1.6,0.2-3.1-0.2-4.7c0-0.2,0-0.4,0.2-0.4l2.1-1.2
		c0.1-0.1,0.2-0.3,0.1-0.4l-0.7-1.6c-0.1-0.2-0.2-0.2-0.4-0.2l-2.3,0.8c-0.2,0.1-0.4,0-0.5-0.2c-0.9-1.3-2.1-2.4-3.4-3.2
		c-0.2-0.1-0.2-0.3-0.2-0.4L26.8,9c0-0.2,0-0.3-0.2-0.4L24.9,8c-0.2-0.1-0.3,0-0.4,0.2l-1.1,2.2c-0.1,0.2-0.3,0.2-0.4,0.2
		c-1.5-0.3-3.2-0.2-4.7,0.2c-0.2,0-0.4,0-0.4-0.2l-1.2-2.1c-0.1-0.1-0.3-0.2-0.4-0.1l-1.6,0.7c-0.2,0.1-0.2,0.2-0.2,0.4l0.8,2.3
		c0.1,0.2,0,0.4-0.2,0.5c-1.3,0.9-2.4,2.1-3.2,3.4c-0.1,0.2-0.3,0.2-0.4,0.2L9,15.2c-0.2,0-0.3,0-0.4,0.2L8,17.1
		c-0.1,0.2,0,0.3,0.2,0.4l2.2,1.1c0.2,0.1,0.2,0.3,0.2,0.4c-0.3,1.6-0.2,3.1,0.2,4.7c0,0.2,0,0.4-0.2,0.4l-2.1,1.2
		c-0.1,0.1-0.2,0.3-0.1,0.4l0.7,1.6c0.1,0.2,0.2,0.2,0.4,0.2l2.3-0.8c0.2-0.1,0.4,0,0.5,0.2c0.9,1.3,2.1,2.4,3.4,3.2
		c0.2,0.1,0.2,0.3,0.2,0.4L15.2,33c0,0.2,0,0.3,0.2,0.4l1.7,0.6c0.2,0.1,0.3,0,0.4-0.2l1.1-2.2c0.1-0.2,0.3-0.2,0.4-0.2
		c1.6,0.3,3.2,0.2,4.7-0.2c0.2,0,0.4,0,0.4,0.2l1.2,2.1c0.1,0.1,0.3,0.2,0.4,0.1l1.6-0.7c0.2-0.1,0.2-0.2,0.2-0.4l-0.8-2.3
		c-0.1-0.2,0-0.4,0.2-0.5c1.3-0.9,2.4-2.1,3.2-3.4c0.1-0.2,0.3-0.2,0.4-0.2l2.3,0.6c0.2,0,0.3,0,0.4-0.2l0.6-1.7
		c0.1-0.2,0-0.3-0.2-0.4L31.7,23.4z M28.5,23.8c-0.8,2-2.2,3.6-4.2,4.5C23.3,28.8,22.1,29,21,29c-0.9,0-1.9-0.2-2.8-0.5
		c-2-0.7-3.6-2.2-4.5-4.2c-0.9-2-1-4.1-0.2-6.2c1.5-4.2,6.2-6.3,10.3-4.7C28,15,30.1,19.7,28.5,23.8z"/>
	
		<linearGradient id="SVGID_00000139978389210865022090000012096522036463635352_" gradientUnits="userSpaceOnUse" x1="2.9777" y1="4.4324" x2="6.2592" y2="4.4324">
		<stop  offset="0.2593" style="stop-color:#FFDB6E"/>
		<stop  offset="1" style="stop-color:#FFBC5E"/>
	</linearGradient>
	<path style="opacity:0.15;fill:url(#SVGID_00000139978389210865022090000012096522036463635352_);enable-background:new    ;" d="
		M4.6,6.1c0.9,0,1.6-0.7,1.6-1.6c0-0.9-0.7-1.6-1.6-1.6C3.7,2.8,3,3.5,3,4.4C3,5.3,3.7,6.1,4.6,6.1z"/>
	
		<linearGradient id="SVGID_00000135687956369119793240000017813538147580562111_" gradientUnits="userSpaceOnUse" x1="35.7369" y1="4.4324" x2="39.0223" y2="4.4324">
		<stop  offset="0.2593" style="stop-color:#FFDB6E"/>
		<stop  offset="1" style="stop-color:#FFBC5E"/>
	</linearGradient>
	<path style="opacity:0.15;fill:url(#SVGID_00000135687956369119793240000017813538147580562111_);enable-background:new    ;" d="
		M37.4,6.1c0.9,0,1.6-0.7,1.6-1.6c0-0.9-0.7-1.6-1.6-1.6c-0.9,0-1.6,0.7-1.6,1.6C35.7,5.3,36.5,6.1,37.4,6.1z"/>
	
		<linearGradient id="SVGID_00000040535528555832370420000002992338408649007276_" gradientUnits="userSpaceOnUse" x1="2.9777" y1="37.5656" x2="6.2631" y2="37.5656">
		<stop  offset="0.2593" style="stop-color:#FFDB6E"/>
		<stop  offset="1" style="stop-color:#FFBC5E"/>
	</linearGradient>
	<path style="opacity:0.15;fill:url(#SVGID_00000040535528555832370420000002992338408649007276_);enable-background:new    ;" d="
		M4.6,35.9c-0.9,0-1.6,0.7-1.6,1.6c0,0.9,0.7,1.6,1.6,1.6c0.9,0,1.6-0.7,1.6-1.6C6.3,36.7,5.5,35.9,4.6,35.9z"/>
	
		<linearGradient id="SVGID_00000150101769049476196800000009156943258292437380_" gradientUnits="userSpaceOnUse" x1="35.7369" y1="37.5656" x2="39.0223" y2="37.5656">
		<stop  offset="0.2593" style="stop-color:#FFDB6E"/>
		<stop  offset="1" style="stop-color:#FFBC5E"/>
	</linearGradient>
	<path style="opacity:0.15;fill:url(#SVGID_00000150101769049476196800000009156943258292437380_);enable-background:new    ;" d="
		M37.4,35.9c-0.9,0-1.6,0.7-1.6,1.6c0,0.9,0.7,1.6,1.6,1.6c0.9,0,1.6-0.7,1.6-1.6C39,36.7,38.3,35.9,37.4,35.9z"/>
	
		<linearGradient id="SVGID_00000044878552547165784150000010286112390856430977_" gradientUnits="userSpaceOnUse" x1="7.1969" y1="20.9984" x2="34.803" y2="20.9984">
		<stop  offset="0.2593" style="stop-color:#FFDB6E"/>
		<stop  offset="1" style="stop-color:#FFBC5E"/>
	</linearGradient>
	
		<linearGradient id="SVGID_00000044870502487843133150000010771588395603047086_" gradientUnits="userSpaceOnUse" x1="7.0719" y1="20.9984" x2="34.928" y2="20.9984">
		<stop  offset="0.2593" style="stop-color:#FFDB6E"/>
		<stop  offset="1" style="stop-color:#FFBC5E"/>
	</linearGradient>
	
		<path style="fill:url(#SVGID_00000044878552547165784150000010286112390856430977_);stroke:url(#SVGID_00000044870502487843133150000010771588395603047086_);stroke-width:0.25;" d="
		M34.2,23.8l-1.9-0.9c0.2-1.5,0.2-3-0.2-4.5l1.8-1.1c0.5-0.3,0.7-0.9,0.4-1.4l-0.7-1.6c-0.2-0.5-0.8-0.8-1.4-0.6l-2,0.7
		c-0.9-1.2-2-2.3-3.3-3l0.5-2.1c0.1-0.6-0.2-1.1-0.7-1.3l-1.7-0.6c-0.5-0.2-1.1,0-1.4,0.6l-0.9,1.9c-1.5-0.2-3-0.2-4.4,0.2l-1.1-1.8
		c-0.3-0.5-0.9-0.7-1.4-0.4l-1.6,0.7c-0.5,0.2-0.8,0.8-0.6,1.4l0.7,2c-1.2,0.9-2.2,2-3,3.3l-2.1-0.5c-0.6-0.1-1.1,0.2-1.3,0.7
		l-0.6,1.7c-0.2,0.5,0,1.1,0.6,1.4l1.9,0.9c-0.2,1.5-0.2,3,0.2,4.5L8,24.7c-0.5,0.3-0.7,0.9-0.4,1.4l0.7,1.6
		c0.2,0.5,0.8,0.8,1.4,0.6l2-0.7c0.9,1.2,2,2.3,3.3,3l-0.5,2.1c-0.1,0.6,0.2,1.1,0.7,1.3l1.7,0.6c0.5,0.2,1.1,0,1.4-0.6l0.9-1.9
		c1.5,0.2,3,0.2,4.4-0.2l1.1,1.8c0.3,0.5,0.9,0.7,1.4,0.4l1.6-0.7c0.5-0.2,0.8-0.8,0.6-1.4l-0.7-2c1.2-0.9,2.2-2,3-3.3l2.1,0.5
		c0.6,0.1,1.1-0.2,1.3-0.7l0.6-1.7C34.9,24.6,34.7,24,34.2,23.8z M33,26.8l-2.3-0.6c-0.2,0-0.4,0-0.4,0.2c-0.8,1.4-1.9,2.5-3.2,3.4
		c-0.1,0.1-0.2,0.3-0.2,0.5l0.8,2.3c0.1,0.2,0,0.3-0.2,0.4l-1.6,0.7c-0.2,0.1-0.3,0-0.4-0.1l-1.2-2.1c-0.1-0.2-0.3-0.2-0.4-0.2
		c-1.5,0.4-3.1,0.5-4.7,0.2c-0.2,0-0.3,0.1-0.4,0.2l-1.1,2.2c-0.1,0.2-0.2,0.2-0.4,0.2l-1.7-0.6c-0.2-0.1-0.2-0.2-0.2-0.4l0.6-2.3
		c0-0.2,0-0.4-0.2-0.4c-1.4-0.8-2.5-1.9-3.4-3.2c-0.1-0.1-0.3-0.2-0.5-0.2l-2.3,0.8c-0.2,0.1-0.3,0-0.4-0.2l-0.7-1.6
		c-0.1-0.2,0-0.3,0.1-0.4l2.1-1.2c0.2-0.1,0.2-0.3,0.2-0.4c-0.4-1.5-0.5-3.1-0.2-4.7c0-0.2-0.1-0.3-0.2-0.4l-2.2-1.1
		C8,17.4,8,17.3,8,17.1l0.6-1.7c0.1-0.2,0.2-0.2,0.4-0.2l2.3,0.6c0.2,0,0.4,0,0.4-0.2c0.8-1.4,1.9-2.5,3.2-3.4
		c0.1-0.1,0.2-0.3,0.2-0.5l-0.8-2.3c-0.1-0.2,0-0.3,0.2-0.4l1.6-0.7c0.2-0.1,0.3,0,0.4,0.1l1.2,2.1c0.1,0.2,0.3,0.2,0.4,0.2
		c1.5-0.4,3.1-0.5,4.7-0.2c0.2,0,0.4-0.1,0.4-0.2l1.1-2.2C24.6,8,24.7,7.9,24.9,8l1.7,0.6c0.2,0.1,0.2,0.2,0.2,0.4l-0.6,2.3
		c0,0.2,0,0.4,0.2,0.4c1.4,0.8,2.5,1.9,3.4,3.2c0.1,0.1,0.3,0.2,0.5,0.2l2.3-0.8c0.2-0.1,0.3,0,0.4,0.2l0.7,1.6
		c0.1,0.2,0,0.3-0.1,0.4l-2.1,1.2c-0.2,0.1-0.2,0.3-0.2,0.4c0.4,1.5,0.5,3.1,0.2,4.7c0,0.2,0.1,0.3,0.2,0.4l2.2,1.1
		c0.2,0.1,0.2,0.2,0.2,0.4l-0.6,1.7C33.3,26.7,33.1,26.8,33,26.8z"/>
	
		<linearGradient id="SVGID_00000103978216636161448320000003666532916294469015_" gradientUnits="userSpaceOnUse" x1="12.9515" y1="21.0003" x2="29.0467" y2="21.0003">
		<stop  offset="0.2593" style="stop-color:#FFDB6E"/>
		<stop  offset="1" style="stop-color:#FFBC5E"/>
	</linearGradient>
	
		<linearGradient id="SVGID_00000112613774476353371710000007618005282531809213_" gradientUnits="userSpaceOnUse" x1="12.8265" y1="21.0003" x2="29.1717" y2="21.0003">
		<stop  offset="0.2593" style="stop-color:#FFDB6E"/>
		<stop  offset="1" style="stop-color:#FFBC5E"/>
	</linearGradient>
	
		<path style="fill:url(#SVGID_00000103978216636161448320000003666532916294469015_);stroke:url(#SVGID_00000112613774476353371710000007618005282531809213_);stroke-width:0.25;" d="
		M23.8,13.5c-4.2-1.5-8.8,0.6-10.3,4.7c-0.8,2-0.7,4.2,0.2,6.2c0.9,2,2.5,3.4,4.5,4.2c0.9,0.3,1.9,0.5,2.8,0.5
		c1.1,0,2.3-0.2,3.3-0.7c2-0.9,3.4-2.5,4.2-4.5C30.1,19.7,28,15,23.8,13.5z M24.1,27.8c-1.8,0.8-3.8,0.9-5.7,0.2
		c-1.9-0.7-3.3-2.1-4.2-3.9c-0.8-1.8-0.9-3.8-0.2-5.7c1.1-3,4-4.9,7-4.9c0.9,0,1.7,0.2,2.6,0.5c3.9,1.4,5.8,5.7,4.4,9.6
		C27.3,25.5,25.9,26.9,24.1,27.8z"/>
	<g>
		
			<linearGradient id="SVGID_00000170239848618379065260000015509580132836667577_" gradientUnits="userSpaceOnUse" x1="18.5316" y1="4.6161" x2="20.3152" y2="4.6161">
			<stop  offset="0.2593" style="stop-color:#FFDB6E"/>
			<stop  offset="1" style="stop-color:#FFBC5E"/>
		</linearGradient>
		
			<linearGradient id="SVGID_00000025409433759294642840000010858911254306859930_" gradientUnits="userSpaceOnUse" x1="18.4066" y1="4.6161" x2="20.4402" y2="4.6161">
			<stop  offset="0.2593" style="stop-color:#FFDB6E"/>
			<stop  offset="1" style="stop-color:#FFBC5E"/>
		</linearGradient>
		
			<path style="fill:url(#SVGID_00000170239848618379065260000015509580132836667577_);stroke:url(#SVGID_00000025409433759294642840000010858911254306859930_);stroke-width:0.25;" d="
			M19.5,5.1c0,0.2,0.2,0.4,0.4,0.4c0.2,0,0.4-0.2,0.4-0.4c0,0,0,0,0,0v-1c0-0.2-0.2-0.4-0.4-0.4h-1c-0.2,0-0.4,0.2-0.4,0.4
			c0,0.1,0,0.2,0.1,0.3c0.1,0.1,0.2,0.1,0.3,0.1l0,0h0.6V5.1z"/>
		
			<linearGradient id="SVGID_00000027584663896425830800000010921689432726944923_" gradientUnits="userSpaceOnUse" x1="19.5215" y1="6.9293" x2="20.3132" y2="6.9293">
			<stop  offset="0.2593" style="stop-color:#FFDB6E"/>
			<stop  offset="1" style="stop-color:#FFBC5E"/>
		</linearGradient>
		
			<linearGradient id="SVGID_00000155838431790407316200000012058273416027928201_" gradientUnits="userSpaceOnUse" x1="19.3965" y1="6.9293" x2="20.4382" y2="6.9293">
			<stop  offset="0.2593" style="stop-color:#FFDB6E"/>
			<stop  offset="1" style="stop-color:#FFBC5E"/>
		</linearGradient>
		
			<path style="fill:url(#SVGID_00000027584663896425830800000010921689432726944923_);stroke:url(#SVGID_00000155838431790407316200000012058273416027928201_);stroke-width:0.25;" d="
			M19.9,6.2c-0.2,0-0.4,0.2-0.4,0.4v0.6c0,0.2,0.2,0.4,0.4,0.4s0.4-0.2,0.4-0.4V6.6C20.3,6.4,20.1,6.2,19.9,6.2z"/>
		
			<linearGradient id="SVGID_00000088095882908098664420000012246187839910046634_" gradientUnits="userSpaceOnUse" x1="2.1861" y1="4.4324" x2="8.0404" y2="4.4324">
			<stop  offset="0.2593" style="stop-color:#FFDB6E"/>
			<stop  offset="1" style="stop-color:#FFBC5E"/>
		</linearGradient>
		
			<linearGradient id="SVGID_00000011730999360668243000000005862376652620379023_" gradientUnits="userSpaceOnUse" x1="2.0611" y1="4.4324" x2="8.1654" y2="4.4324">
			<stop  offset="0.2593" style="stop-color:#FFDB6E"/>
			<stop  offset="1" style="stop-color:#FFBC5E"/>
		</linearGradient>
		
			<path style="fill:url(#SVGID_00000088095882908098664420000012246187839910046634_);stroke:url(#SVGID_00000011730999360668243000000005862376652620379023_);stroke-width:0.25;" d="
			M7.6,3.7H6.9C6.6,2.7,5.7,2,4.6,2C3.3,2,2.2,3.1,2.2,4.4s1.1,2.4,2.4,2.4c1.3,0,2.4-1,2.4-2.3h0.6C7.9,4.5,8,4.3,8,4.1
			C8,3.9,7.8,3.7,7.6,3.7z M4.6,6.1C3.7,6.1,3,5.3,3,4.4c0-0.9,0.7-1.6,1.6-1.6c0.9,0,1.6,0.7,1.6,1.6C6.3,5.3,5.5,6.1,4.6,6.1z"/>
		
			<linearGradient id="SVGID_00000171713819271492833340000013398942948243125174_" gradientUnits="userSpaceOnUse" x1="14.0175" y1="4.1217" x2="17.0654" y2="4.1217">
			<stop  offset="0.2593" style="stop-color:#FFDB6E"/>
			<stop  offset="1" style="stop-color:#FFBC5E"/>
		</linearGradient>
		
			<linearGradient id="SVGID_00000123418386040955309020000000994817585920233139_" gradientUnits="userSpaceOnUse" x1="13.8925" y1="4.1217" x2="17.1904" y2="4.1217">
			<stop  offset="0.2593" style="stop-color:#FFDB6E"/>
			<stop  offset="1" style="stop-color:#FFBC5E"/>
		</linearGradient>
		
			<path style="fill:url(#SVGID_00000171713819271492833340000013398942948243125174_);stroke:url(#SVGID_00000123418386040955309020000000994817585920233139_);stroke-width:0.25;" d="
			M16.7,3.7h-2.3c-0.2,0-0.4,0.2-0.4,0.4c0,0.2,0.2,0.4,0.4,0.4h2.3c0.2,0,0.4-0.2,0.4-0.4C17.1,3.9,16.9,3.7,16.7,3.7z"/>
		
			<linearGradient id="SVGID_00000102543927481675156390000014155453256622086296_" gradientUnits="userSpaceOnUse" x1="9.505" y1="4.1217" x2="12.5529" y2="4.1217">
			<stop  offset="0.2593" style="stop-color:#FFDB6E"/>
			<stop  offset="1" style="stop-color:#FFBC5E"/>
		</linearGradient>
		
			<linearGradient id="SVGID_00000131364277590290702450000015343442111279650974_" gradientUnits="userSpaceOnUse" x1="9.38" y1="4.1217" x2="12.6779" y2="4.1217">
			<stop  offset="0.2593" style="stop-color:#FFDB6E"/>
			<stop  offset="1" style="stop-color:#FFBC5E"/>
		</linearGradient>
		
			<path style="fill:url(#SVGID_00000102543927481675156390000014155453256622086296_);stroke:url(#SVGID_00000131364277590290702450000015343442111279650974_);stroke-width:0.25;" d="
			M12.2,3.7H9.9c-0.2,0-0.4,0.2-0.4,0.4c0,0.2,0.2,0.4,0.4,0.4h2.3c0.2,0,0.4-0.2,0.4-0.4C12.6,3.9,12.4,3.7,12.2,3.7z"/>
	</g>
	<g>
		
			<linearGradient id="SVGID_00000119802991052765532120000003301840484072094598_" gradientUnits="userSpaceOnUse" x1="36.9838" y1="10.8073" x2="37.7754" y2="10.8073">
			<stop  offset="0.2593" style="stop-color:#FFDB6E"/>
			<stop  offset="1" style="stop-color:#FFBC5E"/>
		</linearGradient>
		
			<linearGradient id="SVGID_00000028313737271287150680000003057183541761709697_" gradientUnits="userSpaceOnUse" x1="36.8588" y1="10.8073" x2="37.9004" y2="10.8073">
			<stop  offset="0.2593" style="stop-color:#FFDB6E"/>
			<stop  offset="1" style="stop-color:#FFBC5E"/>
		</linearGradient>
		
			<path style="fill:url(#SVGID_00000119802991052765532120000003301840484072094598_);stroke:url(#SVGID_00000028313737271287150680000003057183541761709697_);stroke-width:0.25;" d="
			M37.4,12.3c0.2,0,0.4-0.2,0.4-0.4V9.7c0-0.2-0.2-0.4-0.4-0.4c-0.2,0-0.4,0.2-0.4,0.4v2.2C37,12.1,37.2,12.3,37.4,12.3z"/>
		
			<linearGradient id="SVGID_00000055675234393917488730000013177370059194329495_" gradientUnits="userSpaceOnUse" x1="33.1556" y1="19.6047" x2="34.9369" y2="19.6047">
			<stop  offset="0.2593" style="stop-color:#FFDB6E"/>
			<stop  offset="1" style="stop-color:#FFBC5E"/>
		</linearGradient>
		
			<linearGradient id="SVGID_00000123421181677739095840000012259730332153932990_" gradientUnits="userSpaceOnUse" x1="33.0306" y1="19.6047" x2="35.0619" y2="19.6047">
			<stop  offset="0.2593" style="stop-color:#FFDB6E"/>
			<stop  offset="1" style="stop-color:#FFBC5E"/>
		</linearGradient>
		
			<path style="fill:url(#SVGID_00000055675234393917488730000013177370059194329495_);stroke:url(#SVGID_00000123421181677739095840000012259730332153932990_);stroke-width:0.25;" d="
			M34.5,19.2h-1c-0.2,0-0.4,0.2-0.4,0.4s0.2,0.4,0.4,0.4h1c0.2,0,0.4-0.2,0.4-0.4S34.8,19.2,34.5,19.2z"/>
		
			<linearGradient id="SVGID_00000010273619389701913420000004627761830658283963_" gradientUnits="userSpaceOnUse" x1="35.9942" y1="19.1099" x2="37.7758" y2="19.1099">
			<stop  offset="0.2593" style="stop-color:#FFDB6E"/>
			<stop  offset="1" style="stop-color:#FFBC5E"/>
		</linearGradient>
		
			<linearGradient id="SVGID_00000145060253830380646190000009002381202572852136_" gradientUnits="userSpaceOnUse" x1="35.8692" y1="19.1099" x2="37.9008" y2="19.1099">
			<stop  offset="0.2593" style="stop-color:#FFDB6E"/>
			<stop  offset="1" style="stop-color:#FFBC5E"/>
		</linearGradient>
		
			<path style="fill:url(#SVGID_00000010273619389701913420000004627761830658283963_);stroke:url(#SVGID_00000145060253830380646190000009002381202572852136_);stroke-width:0.25;" d="
			M37.4,18.2c-0.2,0-0.4,0.2-0.4,0.4v0.6h-0.6c-0.2,0-0.4,0.2-0.4,0.4v0l0,0c0,0.1,0,0.2,0.1,0.2c0.1,0.1,0.2,0.2,0.3,0.2h1
			c0.2,0,0.4-0.2,0.4-0.4v-1C37.8,18.4,37.6,18.2,37.4,18.2z"/>
		
			<linearGradient id="SVGID_00000155860911995115689030000010352385308922810006_" gradientUnits="userSpaceOnUse" x1="36.9838" y1="15.2683" x2="37.7754" y2="15.2683">
			<stop  offset="0.2593" style="stop-color:#FFDB6E"/>
			<stop  offset="1" style="stop-color:#FFBC5E"/>
		</linearGradient>
		
			<linearGradient id="SVGID_00000161603206786065681740000017475757638862674566_" gradientUnits="userSpaceOnUse" x1="36.8588" y1="15.2683" x2="37.9004" y2="15.2683">
			<stop  offset="0.2593" style="stop-color:#FFDB6E"/>
			<stop  offset="1" style="stop-color:#FFBC5E"/>
		</linearGradient>
		
			<path style="fill:url(#SVGID_00000155860911995115689030000010352385308922810006_);stroke:url(#SVGID_00000161603206786065681740000017475757638862674566_);stroke-width:0.25;" d="
			M37,16.4c0,0.2,0.2,0.4,0.4,0.4c0.2,0,0.4-0.2,0.4-0.4v-2.2c0-0.2-0.2-0.4-0.4-0.4c-0.2,0-0.4,0.2-0.4,0.4V16.4z"/>
		
			<linearGradient id="SVGID_00000058586289712908832630000011869866781285033132_" gradientUnits="userSpaceOnUse" x1="34.9452" y1="4.9292" x2="39.8139" y2="4.9292">
			<stop  offset="0.2593" style="stop-color:#FFDB6E"/>
			<stop  offset="1" style="stop-color:#FFBC5E"/>
		</linearGradient>
		
			<linearGradient id="SVGID_00000118386768031578232520000001627234170765850808_" gradientUnits="userSpaceOnUse" x1="34.8202" y1="4.9292" x2="39.9389" y2="4.9292">
			<stop  offset="0.2593" style="stop-color:#FFDB6E"/>
			<stop  offset="1" style="stop-color:#FFBC5E"/>
		</linearGradient>
		
			<path style="fill:url(#SVGID_00000058586289712908832630000011869866781285033132_);stroke:url(#SVGID_00000118386768031578232520000001627234170765850808_);stroke-width:0.25;" d="
			M37.4,2c-1.3,0-2.4,1.1-2.4,2.4c0,1.2,0.9,2.2,2,2.4v0.6c0,0.2,0.2,0.4,0.4,0.4c0.2,0,0.4-0.2,0.4-0.4V6.8c1.2-0.2,2-1.2,2-2.4
			C39.8,3.1,38.7,2,37.4,2z M35.7,4.4c0-0.9,0.7-1.6,1.6-1.6c0.9,0,1.6,0.7,1.6,1.6c0,0.9-0.7,1.6-1.6,1.6S35.7,5.3,35.7,4.4z"/>
	</g>
	<g>
		
			<linearGradient id="SVGID_00000096739157026163006690000015142933163296842375_" gradientUnits="userSpaceOnUse" x1="4.2206" y1="28.5426" x2="5.0123" y2="28.5426">
			<stop  offset="0.2593" style="stop-color:#FFDB6E"/>
			<stop  offset="1" style="stop-color:#FFBC5E"/>
		</linearGradient>
		
			<linearGradient id="SVGID_00000075154098460396998470000014475111477678427023_" gradientUnits="userSpaceOnUse" x1="4.0956" y1="28.5426" x2="5.1373" y2="28.5426">
			<stop  offset="0.2593" style="stop-color:#FFDB6E"/>
			<stop  offset="1" style="stop-color:#FFBC5E"/>
		</linearGradient>
		
			<path style="fill:url(#SVGID_00000096739157026163006690000015142933163296842375_);stroke:url(#SVGID_00000075154098460396998470000014475111477678427023_);stroke-width:0.25;" d="
			M4.6,29.8c0.2,0,0.4-0.2,0.4-0.4v-1.7c0-0.2-0.2-0.4-0.4-0.4c-0.2,0-0.4,0.2-0.4,0.4v1.7C4.2,29.6,4.4,29.8,4.6,29.8z"/>
		
			<linearGradient id="SVGID_00000122712415545024249040000002831846814310875822_" gradientUnits="userSpaceOnUse" x1="6.7579" y1="21.5593" x2="8.5392" y2="21.5593">
			<stop  offset="0.2593" style="stop-color:#FFDB6E"/>
			<stop  offset="1" style="stop-color:#FFBC5E"/>
		</linearGradient>
		
			<linearGradient id="SVGID_00000101808151791682806520000014895099313246452390_" gradientUnits="userSpaceOnUse" x1="6.6329" y1="21.5593" x2="8.6642" y2="21.5593">
			<stop  offset="0.2593" style="stop-color:#FFDB6E"/>
			<stop  offset="1" style="stop-color:#FFBC5E"/>
		</linearGradient>
		
			<path style="fill:url(#SVGID_00000122712415545024249040000002831846814310875822_);stroke:url(#SVGID_00000101808151791682806520000014895099313246452390_);stroke-width:0.25;" d="
			M8.1,21.2h-1c-0.2,0-0.4,0.2-0.4,0.4S6.9,22,7.2,22h1c0.2,0,0.4-0.2,0.4-0.4S8.4,21.2,8.1,21.2z"/>
		
			<linearGradient id="SVGID_00000036969886031057360120000002777287253456277413_" gradientUnits="userSpaceOnUse" x1="4.223" y1="22.0535" x2="6.0062" y2="22.0535">
			<stop  offset="0.2593" style="stop-color:#FFDB6E"/>
			<stop  offset="1" style="stop-color:#FFBC5E"/>
		</linearGradient>
		
			<linearGradient id="SVGID_00000137104998965778475430000000753997697103476908_" gradientUnits="userSpaceOnUse" x1="4.098" y1="22.0535" x2="6.1312" y2="22.0535">
			<stop  offset="0.2593" style="stop-color:#FFDB6E"/>
			<stop  offset="1" style="stop-color:#FFBC5E"/>
		</linearGradient>
		
			<path style="fill:url(#SVGID_00000036969886031057360120000002777287253456277413_);stroke:url(#SVGID_00000137104998965778475430000000753997697103476908_);stroke-width:0.25;" d="
			M4.6,22.9c0.2,0,0.4-0.2,0.4-0.4V22h0.6c0.1,0,0.1,0,0.2,0C5.9,21.9,6,21.7,6,21.6c0-0.2-0.2-0.4-0.4-0.4l0,0h-1
			c-0.2,0-0.4,0.2-0.4,0.4v1C4.2,22.8,4.4,22.9,4.6,22.9z"/>
		
			<linearGradient id="SVGID_00000096764055576259208640000005283035780573901235_" gradientUnits="userSpaceOnUse" x1="4.2206" y1="31.9685" x2="5.0123" y2="31.9685">
			<stop  offset="0.2593" style="stop-color:#FFDB6E"/>
			<stop  offset="1" style="stop-color:#FFBC5E"/>
		</linearGradient>
		
			<linearGradient id="SVGID_00000182514581295284843120000017170121788338236570_" gradientUnits="userSpaceOnUse" x1="4.0956" y1="31.9685" x2="5.1373" y2="31.9685">
			<stop  offset="0.2593" style="stop-color:#FFDB6E"/>
			<stop  offset="1" style="stop-color:#FFBC5E"/>
		</linearGradient>
		
			<path style="fill:url(#SVGID_00000096764055576259208640000005283035780573901235_);stroke:url(#SVGID_00000182514581295284843120000017170121788338236570_);stroke-width:0.25;" d="
			M4.6,33.2C4.8,33.2,5,33,5,32.8v-1.7c0-0.2-0.2-0.4-0.4-0.4c-0.2,0-0.4,0.2-0.4,0.4v1.7C4.2,33,4.4,33.2,4.6,33.2z"/>
		
			<linearGradient id="SVGID_00000018931356698208698390000010407867638466957442_" gradientUnits="userSpaceOnUse" x1="4.2206" y1="25.1167" x2="5.0123" y2="25.1167">
			<stop  offset="0.2593" style="stop-color:#FFDB6E"/>
			<stop  offset="1" style="stop-color:#FFBC5E"/>
		</linearGradient>
		
			<linearGradient id="SVGID_00000011748368365284342240000000221299902836829369_" gradientUnits="userSpaceOnUse" x1="4.0956" y1="25.1167" x2="5.1373" y2="25.1167">
			<stop  offset="0.2593" style="stop-color:#FFDB6E"/>
			<stop  offset="1" style="stop-color:#FFBC5E"/>
		</linearGradient>
		
			<path style="fill:url(#SVGID_00000018931356698208698390000010407867638466957442_);stroke:url(#SVGID_00000011748368365284342240000000221299902836829369_);stroke-width:0.25;" d="
			M4.6,26.4C4.8,26.4,5,26.2,5,26v-1.7c0-0.2-0.2-0.4-0.4-0.4c-0.2,0-0.4,0.2-0.4,0.4V26C4.2,26.2,4.4,26.4,4.6,26.4z"/>
		
			<linearGradient id="SVGID_00000119832135299669760590000000599998584462593197_" gradientUnits="userSpaceOnUse" x1="2.1861" y1="37.0713" x2="7.0508" y2="37.0713">
			<stop  offset="0.2593" style="stop-color:#FFDB6E"/>
			<stop  offset="1" style="stop-color:#FFBC5E"/>
		</linearGradient>
		
			<linearGradient id="SVGID_00000143581051911771210990000002998949205739230881_" gradientUnits="userSpaceOnUse" x1="2.0611" y1="37.0713" x2="7.1758" y2="37.0713">
			<stop  offset="0.2593" style="stop-color:#FFDB6E"/>
			<stop  offset="1" style="stop-color:#FFBC5E"/>
		</linearGradient>
		
			<path style="fill:url(#SVGID_00000119832135299669760590000000599998584462593197_);stroke:url(#SVGID_00000143581051911771210990000002998949205739230881_);stroke-width:0.25;" d="
			M5,35.2v-0.6c0-0.2-0.2-0.4-0.4-0.4c-0.1,0-0.1,0-0.2,0c-0.1,0.1-0.2,0.2-0.2,0.4v0.6c-1.2,0.2-2,1.2-2,2.4c0,1.3,1.1,2.4,2.4,2.4
			c1.3,0,2.4-1.1,2.4-2.4C7,36.4,6.2,35.4,5,35.2z M4.6,39.2c-0.9,0-1.6-0.7-1.6-1.6c0-0.9,0.7-1.6,1.6-1.6c0.9,0,1.6,0.7,1.6,1.6
			C6.3,38.5,5.5,39.2,4.6,39.2z"/>
	</g>
	<g>
		
			<linearGradient id="SVGID_00000041978830924687777830000001893360365911625655_" gradientUnits="userSpaceOnUse" x1="21.0079" y1="37.0704" x2="22.7908" y2="37.0704">
			<stop  offset="0.2593" style="stop-color:#FFDB6E"/>
			<stop  offset="1" style="stop-color:#FFBC5E"/>
		</linearGradient>
		
			<linearGradient id="SVGID_00000104693014068347576180000017768244937766471609_" gradientUnits="userSpaceOnUse" x1="20.8829" y1="37.0704" x2="22.9158" y2="37.0704">
			<stop  offset="0.2593" style="stop-color:#FFDB6E"/>
			<stop  offset="1" style="stop-color:#FFBC5E"/>
		</linearGradient>
		
			<path style="fill:url(#SVGID_00000041978830924687777830000001893360365911625655_);stroke:url(#SVGID_00000104693014068347576180000017768244937766471609_);stroke-width:0.25;" d="
			M22.4,37.2h-0.6v-0.6c0-0.2-0.2-0.4-0.4-0.4h0c-0.2,0-0.4,0.2-0.4,0.4c0,0,0,0,0,0v1c0,0.2,0.2,0.4,0.4,0.4h1
			c0.2,0,0.4-0.2,0.4-0.4S22.6,37.2,22.4,37.2z"/>
		
			<linearGradient id="SVGID_00000168806677217151901520000008071254633808369050_" gradientUnits="userSpaceOnUse" x1="21.0095" y1="34.6004" x2="21.8012" y2="34.6004">
			<stop  offset="0.2593" style="stop-color:#FFDB6E"/>
			<stop  offset="1" style="stop-color:#FFBC5E"/>
		</linearGradient>
		
			<linearGradient id="SVGID_00000117640299207341651880000007439007506786952847_" gradientUnits="userSpaceOnUse" x1="20.8845" y1="34.6004" x2="21.9262" y2="34.6004">
			<stop  offset="0.2593" style="stop-color:#FFDB6E"/>
			<stop  offset="1" style="stop-color:#FFBC5E"/>
		</linearGradient>
		
			<path style="fill:url(#SVGID_00000168806677217151901520000008071254633808369050_);stroke:url(#SVGID_00000117640299207341651880000007439007506786952847_);stroke-width:0.25;" d="
			M21.4,35.5c0.2,0,0.4-0.2,0.4-0.4v-1c0-0.2-0.2-0.4-0.4-0.4c-0.2,0-0.4,0.2-0.4,0.4v1C21,35.3,21.2,35.5,21.4,35.5z"/>
		
			<linearGradient id="SVGID_00000150071208734491044650000004289864166957023409_" gradientUnits="userSpaceOnUse" x1="30.5396" y1="37.5652" x2="33.0412" y2="37.5652">
			<stop  offset="0.2593" style="stop-color:#FFDB6E"/>
			<stop  offset="1" style="stop-color:#FFBC5E"/>
		</linearGradient>
		
			<linearGradient id="SVGID_00000133524337002519975200000008909657237487575455_" gradientUnits="userSpaceOnUse" x1="30.4146" y1="37.5652" x2="33.1662" y2="37.5652">
			<stop  offset="0.2593" style="stop-color:#FFDB6E"/>
			<stop  offset="1" style="stop-color:#FFBC5E"/>
		</linearGradient>
		
			<path style="fill:url(#SVGID_00000150071208734491044650000004289864166957023409_);stroke:url(#SVGID_00000133524337002519975200000008909657237487575455_);stroke-width:0.25;" d="
			M32.6,37.2h-1.7c-0.2,0-0.4,0.2-0.4,0.4c0,0.2,0.2,0.4,0.4,0.4h1.7c0.2,0,0.4-0.2,0.4-0.4C33,37.3,32.9,37.2,32.6,37.2z"/>
		
			<linearGradient id="SVGID_00000036247491341702553040000006845896145164709507_" gradientUnits="userSpaceOnUse" x1="33.9556" y1="37.5656" x2="39.8139" y2="37.5656">
			<stop  offset="0.2593" style="stop-color:#FFDB6E"/>
			<stop  offset="1" style="stop-color:#FFBC5E"/>
		</linearGradient>
		
			<linearGradient id="SVGID_00000066503664179838690990000015083462794899788475_" gradientUnits="userSpaceOnUse" x1="33.8306" y1="37.5656" x2="39.9389" y2="37.5656">
			<stop  offset="0.2593" style="stop-color:#FFDB6E"/>
			<stop  offset="1" style="stop-color:#FFBC5E"/>
		</linearGradient>
		
			<path style="fill:url(#SVGID_00000036247491341702553040000006845896145164709507_);stroke:url(#SVGID_00000066503664179838690990000015083462794899788475_);stroke-width:0.25;" d="
			M37.4,35.1c-1.2,0-2.2,0.9-2.4,2h-0.6c-0.2,0-0.4,0.2-0.4,0.4s0.2,0.4,0.4,0.4H35c0.2,1.2,1.2,2,2.4,2c1.3,0,2.4-1.1,2.4-2.4
			C39.8,36.2,38.7,35.1,37.4,35.1z M35.7,37.6c0-0.9,0.7-1.6,1.6-1.6c0.9,0,1.6,0.7,1.6,1.6c0,0.9-0.7,1.6-1.6,1.6
			C36.5,39.2,35.7,38.5,35.7,37.6z"/>
		
			<linearGradient id="SVGID_00000057855126883169917790000015536804618488605094_" gradientUnits="userSpaceOnUse" x1="27.1236" y1="37.5652" x2="29.6252" y2="37.5652">
			<stop  offset="0.2593" style="stop-color:#FFDB6E"/>
			<stop  offset="1" style="stop-color:#FFBC5E"/>
		</linearGradient>
		
			<linearGradient id="SVGID_00000114043279925703664620000011113693096297282697_" gradientUnits="userSpaceOnUse" x1="26.9986" y1="37.5652" x2="29.7502" y2="37.5652">
			<stop  offset="0.2593" style="stop-color:#FFDB6E"/>
			<stop  offset="1" style="stop-color:#FFBC5E"/>
		</linearGradient>
		
			<path style="fill:url(#SVGID_00000057855126883169917790000015536804618488605094_);stroke:url(#SVGID_00000114043279925703664620000011113693096297282697_);stroke-width:0.25;" d="
			M29.2,37.2h-1.7c-0.2,0-0.4,0.2-0.4,0.4c0,0.2,0.2,0.4,0.4,0.4h1.7c0.2,0,0.4-0.2,0.4-0.4C29.6,37.3,29.4,37.2,29.2,37.2z"/>
		
			<linearGradient id="SVGID_00000123439525562944362930000006048611515055779769_" gradientUnits="userSpaceOnUse" x1="23.7075" y1="37.5652" x2="26.2052" y2="37.5652">
			<stop  offset="0.2593" style="stop-color:#FFDB6E"/>
			<stop  offset="1" style="stop-color:#FFBC5E"/>
		</linearGradient>
		
			<linearGradient id="SVGID_00000147215512137808200490000005711722378350497691_" gradientUnits="userSpaceOnUse" x1="23.5825" y1="37.5652" x2="26.3302" y2="37.5652">
			<stop  offset="0.2593" style="stop-color:#FFDB6E"/>
			<stop  offset="1" style="stop-color:#FFBC5E"/>
		</linearGradient>
		
			<path style="fill:url(#SVGID_00000123439525562944362930000006048611515055779769_);stroke:url(#SVGID_00000147215512137808200490000005711722378350497691_);stroke-width:0.25;" d="
			M25.8,37.2h-1.7c-0.2,0-0.4,0.2-0.4,0.4c0,0.2,0.2,0.4,0.4,0.4h1.7c0.2,0,0.4-0.2,0.4-0.4C26.2,37.3,26,37.2,25.8,37.2z"/>
	</g>
	<path class="st29" d="M17.6,23.5C17.6,23.5,17.6,23.5,17.6,23.5C17.6,23.5,17.6,23.5,17.6,23.5z"/>
	<polygon class="st29" points="17.8,23.4 17.8,23.4 17.8,23.4 	"/>
	<polygon class="st30" points="17.5,23.4 17.5,23.4 17.5,23.4 	"/>
	<path class="st30" d="M17.7,23.5C17.7,23.5,17.7,23.5,17.7,23.5C17.7,23.5,17.7,23.5,17.7,23.5z"/>
	<path class="st31" d="M17.8,23.4c0,0,0.1,0,0.1-0.1C17.9,23.4,17.9,23.4,17.8,23.4C17.8,23.4,17.8,23.4,17.8,23.4z"/>
	<path class="st31" d="M17.5,23.4C17.5,23.4,17.5,23.5,17.5,23.4C17.5,23.5,17.5,23.4,17.5,23.4C17.5,23.4,17.5,23.4,17.5,23.4z"/>
	<path class="st31" d="M17.6,23.5C17.6,23.5,17.7,23.5,17.6,23.5C17.7,23.5,17.7,23.5,17.6,23.5C17.6,23.5,17.6,23.5,17.6,23.5z"/>
	<path class="st31" d="M17.3,23.4c0,0,0.1,0.1,0.1,0.1c0,0,0,0,0,0C17.4,23.4,17.4,23.4,17.3,23.4z"/>
	<path class="st31" d="M17.7,23.5C17.8,23.5,17.8,23.4,17.7,23.5C17.8,23.4,17.8,23.4,17.7,23.5C17.8,23.4,17.7,23.5,17.7,23.5z"/>
	<path class="st29" d="M17.8,23.4C17.8,23.4,17.8,23.4,17.8,23.4C17.8,23.4,17.8,23.4,17.8,23.4C17.8,23.4,17.8,23.4,17.8,23.4
		C17.8,23.4,17.8,23.4,17.8,23.4z"/>
	<path class="st29" d="M17.5,23.4C17.5,23.4,17.5,23.5,17.5,23.4C17.6,23.5,17.6,23.5,17.5,23.4c0.1,0,0.1,0,0.1,0
		C17.6,23.5,17.6,23.5,17.5,23.4z"/>
	<path class="st30" d="M17.5,23.4C17.5,23.4,17.5,23.4,17.5,23.4C17.5,23.4,17.5,23.4,17.5,23.4C17.5,23.4,17.5,23.4,17.5,23.4
		C17.5,23.4,17.5,23.4,17.5,23.4z"/>
	<path class="st30" d="M17.6,23.5C17.7,23.5,17.7,23.5,17.6,23.5C17.7,23.5,17.7,23.5,17.6,23.5c0.1,0,0.1,0,0.1,0
		C17.7,23.5,17.7,23.5,17.6,23.5z"/>
	<path class="st32" d="M19.5,24.1C19.5,24.1,19.5,24.1,19.5,24.1C19.5,24.1,19.5,24.1,19.5,24.1z"/>
	<path class="st32" d="M19.7,24.3C19.7,24.3,19.7,24.3,19.7,24.3C19.7,24.3,19.7,24.3,19.7,24.3C19.7,24.3,19.7,24.3,19.7,24.3z"/>
	<path class="st32" d="M19.6,24.2C19.6,24.2,19.6,24.2,19.6,24.2C19.6,24.2,19.6,24.2,19.6,24.2C19.6,24.2,19.6,24.2,19.6,24.2z"/>
	<path class="st33" d="M19.6,24.2C19.6,24.2,19.6,24.2,19.6,24.2C19.6,24.2,19.6,24.2,19.6,24.2C19.6,24.2,19.6,24.2,19.6,24.2z"/>
	<path class="st33" d="M19.5,24C19.5,24,19.5,24,19.5,24C19.5,24.1,19.5,24,19.5,24C19.5,24,19.5,24,19.5,24z"/>
	<path class="st33" d="M19.6,24.2C19.6,24.2,19.6,24.2,19.6,24.2C19.6,24.2,19.6,24.2,19.6,24.2C19.6,24.2,19.6,24.2,19.6,24.2z"/>
	<path class="st34" d="M19.5,24.1C19.5,24.1,19.5,24.1,19.5,24.1C19.5,24.1,19.5,24.1,19.5,24.1C19.5,24.1,19.5,24.1,19.5,24.1z"/>
	<path class="st34" d="M19.5,23.8c0,0.1,0,0.2,0,0.2c0,0,0,0,0,0C19.5,24,19.5,23.9,19.5,23.8z"/>
	<path class="st34" d="M19.5,24.1C19.5,24.1,19.5,24.2,19.5,24.1C19.6,24.2,19.6,24.2,19.5,24.1C19.5,24.2,19.5,24.1,19.5,24.1z"/>
	<path class="st34" d="M19.7,24.3C19.7,24.3,19.7,24.3,19.7,24.3C19.7,24.3,19.7,24.3,19.7,24.3C19.7,24.3,19.7,24.3,19.7,24.3z"/>
	<path class="st34" d="M19.7,24.3C19.6,24.3,19.6,24.3,19.7,24.3C19.6,24.3,19.6,24.3,19.7,24.3z"/>
	<path class="st32" d="M19.6,24.2C19.6,24.2,19.6,24.2,19.6,24.2C19.6,24.3,19.6,24.3,19.6,24.2c0.1,0.1,0.1,0.1,0.1,0.1
		c0,0,0,0,0,0C19.7,24.3,19.6,24.3,19.6,24.2z"/>
	<path class="st32" d="M19.5,24.1C19.5,24.1,19.5,24.1,19.5,24.1C19.5,24.1,19.5,24.1,19.5,24.1c0,0.1,0,0.1,0.1,0.1
		C19.5,24.1,19.5,24.1,19.5,24.1z"/>
	<path class="st33" d="M19.5,24C19.5,24,19.5,24,19.5,24C19.5,24,19.5,24.1,19.5,24C19.5,24.1,19.5,24.1,19.5,24
		C19.5,24.1,19.5,24,19.5,24z"/>
	<path class="st33" d="M19.6,24.2C19.6,24.2,19.6,24.2,19.6,24.2C19.6,24.2,19.6,24.2,19.6,24.2C19.6,24.2,19.6,24.2,19.6,24.2z"/>
	<path class="st33" d="M19.5,24C19.5,24,19.5,24.1,19.5,24c0,0.1,0,0.1,0.1,0.1c0,0,0,0,0,0c0,0,0,0,0,0c0,0,0.1,0.1,0.1,0.1
		c0-0.1,0-0.1,0-0.2c0,0-0.1,0-0.1,0C19.6,24.1,19.5,24.1,19.5,24z"/>
	<path class="st29" d="M24.3,23.5C24.3,23.5,24.2,23.5,24.3,23.5C24.2,23.5,24.3,23.5,24.3,23.5z"/>
	<polygon class="st29" points="24.5,23.5 24.5,23.5 24.4,23.5 	"/>
	<path class="st29" d="M24.4,23.5C24.4,23.5,24.4,23.5,24.4,23.5C24.4,23.5,24.4,23.5,24.4,23.5C24.4,23.5,24.4,23.5,24.4,23.5z"/>
	<path class="st30" d="M24.5,23.5C24.5,23.5,24.5,23.5,24.5,23.5C24.5,23.5,24.5,23.5,24.5,23.5C24.4,23.5,24.5,23.5,24.5,23.5z"/>
	<path class="st30" d="M24.4,23.5C24.4,23.5,24.4,23.5,24.4,23.5C24.4,23.5,24.4,23.5,24.4,23.5z"/>
	<path class="st30" d="M24.2,23.4C24.2,23.5,24.2,23.4,24.2,23.4C24.2,23.4,24.2,23.5,24.2,23.4C24.2,23.4,24.2,23.4,24.2,23.4z"/>
	<path class="st30" d="M24.4,23.5C24.4,23.5,24.4,23.5,24.4,23.5C24.4,23.5,24.4,23.5,24.4,23.5C24.5,23.5,24.5,23.5,24.4,23.5
		C24.5,23.5,24.4,23.5,24.4,23.5C24.4,23.5,24.4,23.5,24.4,23.5z"/>
	<path class="st31" d="M24.1,23.4c0,0,0.1,0.1,0.1,0.1c0,0,0,0,0,0C24.2,23.4,24.1,23.4,24.1,23.4z"/>
	<path class="st31" d="M24.7,23.4c-0.1,0.1-0.1,0.1-0.2,0.1C24.5,23.4,24.6,23.4,24.7,23.4z"/>
	<path class="st31" d="M24.4,23.5c-0.1,0-0.1,0-0.2,0C24.3,23.5,24.4,23.5,24.4,23.5z"/>
	<path class="st31" d="M24.2,23.5C24.2,23.5,24.2,23.5,24.2,23.5C24.2,23.5,24.2,23.5,24.2,23.5C24.2,23.5,24.2,23.5,24.2,23.5z"/>
	<path class="st29" d="M24.2,23.5C24.2,23.5,24.2,23.5,24.2,23.5C24.2,23.5,24.3,23.5,24.2,23.5c0.1,0,0.1,0,0.2,0c0,0,0,0,0,0
		C24.4,23.5,24.3,23.5,24.2,23.5z"/>
	<path class="st30" d="M24.2,23.4C24.2,23.4,24.2,23.4,24.2,23.4C24.2,23.5,24.2,23.4,24.2,23.4C24.2,23.5,24.2,23.5,24.2,23.4
		C24.2,23.4,24.2,23.4,24.2,23.4z"/>
	<path class="st30" d="M24.2,23.5c0.1,0,0.1,0,0.2,0c0,0,0,0,0,0C24.4,23.4,24.3,23.4,24.2,23.5C24.3,23.4,24.3,23.4,24.2,23.5
		C24.3,23.4,24.2,23.4,24.2,23.5C24.2,23.4,24.2,23.4,24.2,23.5z"/>
	<g>
		
			<linearGradient id="SVGID_00000085236908217203136690000005871019499312026043_" gradientUnits="userSpaceOnUse" x1="15.0625" y1="20.7526" x2="18.0638" y2="20.7526">
			<stop  offset="0.2593" style="stop-color:#FFDB6E"/>
			<stop  offset="1" style="stop-color:#FFBC5E"/>
		</linearGradient>
		
			<linearGradient id="SVGID_00000145740945705115026920000004861911662733110939_" gradientUnits="userSpaceOnUse" x1="14.9375" y1="20.7526" x2="18.1888" y2="20.7526">
			<stop  offset="0.2593" style="stop-color:#FFDB6E"/>
			<stop  offset="1" style="stop-color:#FFBC5E"/>
		</linearGradient>
		
			<path style="fill:url(#SVGID_00000085236908217203136690000005871019499312026043_);stroke:url(#SVGID_00000145740945705115026920000004861911662733110939_);stroke-width:0.25;" d="
			M16,20.8l2-2c0,0,0.1-0.1,0.1-0.1c0.1-0.2,0-0.3-0.1-0.5c0,0-0.1-0.1-0.2-0.1c0,0,0,0,0,0c0,0,0,0,0,0c0,0,0,0,0,0c0,0,0,0-0.1,0
			c0,0-0.1,0-0.1,0c0,0,0,0,0,0c0,0,0,0,0,0c0,0,0,0,0,0c0,0,0,0-0.1,0c-0.1,0-0.1,0-0.2,0.1l-2,2c-0.1,0.1-0.2,0.4-0.2,0.6
			s0.1,0.4,0.2,0.6l2,2c0,0,0.1,0.1,0.1,0.1c0,0,0,0,0,0c0,0,0.1,0,0.1,0c0,0,0.1,0,0.1,0c0,0,0,0,0,0c0,0,0.1,0,0.1-0.1
			c0.2-0.2,0.2-0.4,0-0.6L16,20.8z"/>
		
			<linearGradient id="SVGID_00000064320125476215809620000007910985590658551482_" gradientUnits="userSpaceOnUse" x1="19.4759" y1="21" x2="22.5251" y2="21">
			<stop  offset="0.2593" style="stop-color:#FFDB6E"/>
			<stop  offset="1" style="stop-color:#FFBC5E"/>
		</linearGradient>
		
			<linearGradient id="SVGID_00000165207272697926486000000014306459168793087414_" gradientUnits="userSpaceOnUse" x1="19.3509" y1="20.9115" x2="22.7404" y2="20.9115">
			<stop  offset="0.2593" style="stop-color:#FFDB6E"/>
			<stop  offset="1" style="stop-color:#FFBC5E"/>
		</linearGradient>
		
			<path style="fill:url(#SVGID_00000064320125476215809620000007910985590658551482_);stroke:url(#SVGID_00000165207272697926486000000014306459168793087414_);stroke-width:0.25;" d="
			M22.5,17.9C22.5,17.9,22.5,17.9,22.5,17.9C22.5,17.8,22.5,17.8,22.5,17.9c-0.1-0.1-0.1-0.1-0.1-0.1c0,0,0,0,0,0c0,0,0,0,0,0
			c0,0,0,0,0,0c0,0-0.1-0.1-0.1-0.1c-0.2-0.1-0.5,0-0.5,0.3l-2.2,5.9c0,0.1,0,0.2,0,0.2c0,0,0.1,0,0.1,0.1c0,0,0.1,0,0.1,0
			c0,0.1,0,0.1,0,0.2c0,0,0,0,0,0c0.2,0.1,0.5,0,0.5-0.3l2.2-5.9c0-0.1,0-0.2,0-0.2C22.5,17.9,22.5,17.9,22.5,17.9
			C22.5,17.9,22.5,17.9,22.5,17.9z"/>
		
			<linearGradient id="SVGID_00000048494788344482230520000007598570354304168123_" gradientUnits="userSpaceOnUse" x1="23.9362" y1="20.7546" x2="26.9375" y2="20.7546">
			<stop  offset="0.2593" style="stop-color:#FFDB6E"/>
			<stop  offset="1" style="stop-color:#FFBC5E"/>
		</linearGradient>
		
			<linearGradient id="SVGID_00000179641980629664932100000000808940588984865155_" gradientUnits="userSpaceOnUse" x1="23.8112" y1="20.757" x2="27.0625" y2="20.757">
			<stop  offset="0.2593" style="stop-color:#FFDB6E"/>
			<stop  offset="1" style="stop-color:#FFBC5E"/>
		</linearGradient>
		
			<path style="fill:url(#SVGID_00000048494788344482230520000007598570354304168123_);stroke:url(#SVGID_00000179641980629664932100000000808940588984865155_);stroke-width:0.25;" d="
			M26.7,20.2l-2-2c0,0-0.1-0.1-0.1-0.1c0,0,0,0,0,0c0,0,0,0,0,0c0,0,0,0,0,0c0,0,0,0-0.1,0c0,0-0.1,0-0.1,0c0,0,0,0-0.1,0
			c0,0,0,0,0,0c0,0,0,0,0,0c0,0,0,0,0,0c-0.1,0-0.1,0.1-0.1,0.1c-0.2,0.2-0.2,0.4,0,0.6l2,2l-2,2c-0.2,0.2-0.2,0.4,0,0.6
			c0,0,0.1,0.1,0.2,0.1c0,0,0.1,0,0.1-0.1c0,0,0,0,0,0c0,0,0.1,0.1,0.1,0.1c0,0,0,0,0,0c0.1,0,0.1-0.1,0.2-0.1l2-2
			c0.1-0.1,0.2-0.4,0.2-0.6S26.9,20.4,26.7,20.2z"/>
	</g>
</g>
</svg>
