<?xml version="1.0" encoding="utf-8"?>
<!-- Generator: Adobe Illustrator 28.1.0, SVG Export Plug-In . SVG Version: 6.00 Build 0)  -->
<svg version="1.1" id="Layer_1" xmlns="http://www.w3.org/2000/svg" xmlns:xlink="http://www.w3.org/1999/xlink" x="0px" y="0px"
	 viewBox="0 0 42 42" style="enable-background:new 0 0 42 42;" xml:space="preserve">
<style type="text/css">
	.st0{opacity:0.15;fill:url(#SVGID_1_);enable-background:new    ;}
	.st1{opacity:0.15;fill:url(#SVGID_00000124870479127391532940000015465907228554836890_);enable-background:new    ;}
	.st2{opacity:0.15;fill:url(#SVGID_00000011714080306995464210000018327947308297914282_);enable-background:new    ;}
	.st3{opacity:0.15;fill:url(#SVGID_00000027562488664668477150000018151387815873645499_);enable-background:new    ;}
	.st4{opacity:0.15;fill:url(#SVGID_00000021828395018814002900000016383954669078738570_);enable-background:new    ;}
	
		.st5{fill:url(#SVGID_00000005972179306851440710000003792781472396764311_);stroke:url(#SVGID_00000042015421730927161860000009726874354829082024_);stroke-width:0.25;}
	
		.st6{fill:url(#SVGID_00000120559747455932608000000017281497907151170733_);stroke:url(#SVGID_00000120547817704652406620000005026638581141469603_);stroke-width:0.25;}
	
		.st7{fill:url(#SVGID_00000121982695377816203060000010184751917599908748_);stroke:url(#SVGID_00000147925838549641021910000013322702719835875491_);stroke-width:0.25;}
</style>
<g>
	<linearGradient id="SVGID_1_" gradientUnits="userSpaceOnUse" x1="3.8308" y1="19.2293" x2="38.7825" y2="19.2293">
		<stop  offset="0.2593" style="stop-color:#FFDB6E"/>
		<stop  offset="1" style="stop-color:#FFBC5E"/>
	</linearGradient>
	<path class="st0" d="M38.8,8.3v21.9c0,1.1-0.9,2-2,2h-31C5,32.1,4.3,31.7,4,31c0-0.1-0.1-0.2-0.1-0.3c-0.1-0.2-0.1-0.3-0.1-0.5V8.3
		c0-0.2,0-0.4,0.1-0.6C4,7.5,4.1,7.2,4.3,7c0,0,0.1-0.1,0.1-0.1c0.1-0.1,0.3-0.2,0.5-0.3h0C5,6.5,5.1,6.5,5.2,6.4
		c0.2-0.1,0.4-0.1,0.6-0.1h31c0.3,0,0.6,0.1,0.9,0.2C38.4,6.9,38.8,7.6,38.8,8.3z"/>
	
		<linearGradient id="SVGID_00000034794067626527363880000003992103620536105617_" gradientUnits="userSpaceOnUse" x1="17.9693" y1="34.6779" x2="24.6428" y2="34.6779">
		<stop  offset="0.2593" style="stop-color:#FFDB6E"/>
		<stop  offset="1" style="stop-color:#FFBC5E"/>
	</linearGradient>
	<path style="opacity:0.15;fill:url(#SVGID_00000034794067626527363880000003992103620536105617_);enable-background:new    ;" d="
		M18,32.1h6.7v5.1H18V32.1z"/>
	
		<linearGradient id="SVGID_00000106138639559945611090000007979692801982119588_" gradientUnits="userSpaceOnUse" x1="6.4398" y1="18.7397" x2="36.1704" y2="18.7397">
		<stop  offset="0.2593" style="stop-color:#FFDB6E"/>
		<stop  offset="1" style="stop-color:#FFBC5E"/>
	</linearGradient>
	<path style="opacity:0.15;fill:url(#SVGID_00000106138639559945611090000007979692801982119588_);enable-background:new    ;" d="
		M6.4,8.9h29.7v19.6H6.4L6.4,8.9z"/>
	
		<linearGradient id="SVGID_00000039855408798645649580000000177089452289879707_" gradientUnits="userSpaceOnUse" x1="15.0631" y1="20.3784" x2="27.5465" y2="20.3784">
		<stop  offset="0.2593" style="stop-color:#FFDB6E"/>
		<stop  offset="1" style="stop-color:#FFBC5E"/>
	</linearGradient>
	<path style="opacity:0.15;fill:url(#SVGID_00000039855408798645649580000000177089452289879707_);enable-background:new    ;" d="
		M21.4,18.4v7.3l-6.3-3.3v-7.3L21.4,18.4z M27.5,15.1v7.3l-6.2,3.3v-7.3l5.5-2.9L27.5,15.1z"/>
	
		<linearGradient id="SVGID_00000162314669860327489970000011930769525602774932_" gradientUnits="userSpaceOnUse" x1="15.0631" y1="15.1131" x2="27.5465" y2="15.1131">
		<stop  offset="0.2593" style="stop-color:#FFDB6E"/>
		<stop  offset="1" style="stop-color:#FFBC5E"/>
	</linearGradient>
	<path style="opacity:0.15;fill:url(#SVGID_00000162314669860327489970000011930769525602774932_);enable-background:new    ;" d="
		M27.5,15.1l-6.2,3.3l-6.3-3.3l1-0.5l5.3-2.8l5.2,2.8L27.5,15.1z"/>
	<g>
		
			<linearGradient id="SVGID_00000090981382994717078980000011590363647409847693_" gradientUnits="userSpaceOnUse" x1="2.9193" y1="21" x2="39.0807" y2="21">
			<stop  offset="0.2593" style="stop-color:#FFDB6E"/>
			<stop  offset="1" style="stop-color:#FFBC5E"/>
		</linearGradient>
		
			<linearGradient id="SVGID_00000108269407585959545020000004992587491492597923_" gradientUnits="userSpaceOnUse" x1="2.7939" y1="21" x2="39.2057" y2="21">
			<stop  offset="0.2593" style="stop-color:#FFDB6E"/>
			<stop  offset="1" style="stop-color:#FFBC5E"/>
		</linearGradient>
		
			<path style="fill:url(#SVGID_00000090981382994717078980000011590363647409847693_);stroke:url(#SVGID_00000108269407585959545020000004992587491492597923_);stroke-width:0.25;" d="
			M26.7,36.9h-1.8v-3.6h-0.6v3.6h-6.1v-3.6h-0.6v3.6h-1.8c-0.2,0-0.3,0.1-0.3,0.3c0,0.2,0.1,0.3,0.3,0.3h10.8c0.2,0,0.3-0.1,0.3-0.3
			C27,37.1,26.9,36.9,26.7,36.9L26.7,36.9z M30.7,31.8h1.3v0.6h-1.3V31.8z M13,33.4h0.6c0-0.5,0.4-0.9,0.9-0.9H18v0h6.7v0h4.8v-0.6
			H14.6C13.7,31.8,13,32.5,13,33.4L13,33.4z M4.1,30.2v-5.5H3.5v5.5c0,1.2,1,2.3,2.3,2.3h6.3v-0.6H5.8C4.9,31.8,4.1,31.1,4.1,30.2
			L4.1,30.2z M4.1,22.5V19H3.5v3.5c0,0.3-0.3,0.6-0.6,0.6l0,0.6C3.6,23.7,4.1,23.1,4.1,22.5z M38.5,30.2c0,0.9-0.7,1.7-1.7,1.7h-2.6
			c-0.7,0-1.3,0.6-1.3,1.3l0.6,0c0-0.4,0.3-0.7,0.7-0.7h2.6c1.2,0,2.3-1,2.3-2.3v-5h-0.6V30.2L38.5,30.2z M36.8,6h-2.7v0.6h2.7
			c0.9,0,1.7,0.7,1.7,1.7v13.3h0.6V8.3C39.1,7,38.1,6,36.8,6z M38.5,22.8h0.6V24h-0.6V22.8z M4.1,8.3c0-0.9,0.7-1.7,1.7-1.7H29
			c1,0,1.9-0.8,1.9-1.9c0-0.2-0.1-0.3-0.3-0.3c-0.2,0-0.3,0.1-0.3,0.3C30.3,5.5,29.7,6,29,6H5.8C4.5,6,3.5,7,3.5,8.3v9.5h0.6
			L4.1,8.3L4.1,8.3z M31.8,6H33v0.6h-1.2V6z"/>
		
			<linearGradient id="SVGID_00000159469621450478516640000017376911209142881974_" gradientUnits="userSpaceOnUse" x1="6.1386" y1="19.864" x2="36.4741" y2="19.864">
			<stop  offset="0.2593" style="stop-color:#FFDB6E"/>
			<stop  offset="1" style="stop-color:#FFBC5E"/>
		</linearGradient>
		
			<linearGradient id="SVGID_00000178204320729812148490000004706047537503092159_" gradientUnits="userSpaceOnUse" x1="6.0136" y1="19.864" x2="36.5991" y2="19.864">
			<stop  offset="0.2593" style="stop-color:#FFDB6E"/>
			<stop  offset="1" style="stop-color:#FFBC5E"/>
		</linearGradient>
		
			<path style="fill:url(#SVGID_00000159469621450478516640000017376911209142881974_);stroke:url(#SVGID_00000178204320729812148490000004706047537503092159_);stroke-width:0.25;" d="
			M20.6,30.3c0,0.4,0.3,0.8,0.8,0.8c0.4,0,0.8-0.3,0.8-0.8c0-0.4-0.3-0.8-0.8-0.8S20.6,29.9,20.6,30.3z M36.5,28.5V8.9
			c0-0.2-0.1-0.3-0.3-0.3H6.4c-0.2,0-0.3,0.1-0.3,0.3v19.6c0,0.2,0.1,0.3,0.3,0.3h29.7C36.3,28.8,36.5,28.7,36.5,28.5z M35.9,28.2
			H6.7v-19h29.1C35.9,9.2,35.9,28.2,35.9,28.2z"/>
		
			<linearGradient id="SVGID_00000075843937074167013400000007481863258382846598_" gradientUnits="userSpaceOnUse" x1="12.631" y1="18.7397" x2="29.9769" y2="18.7397">
			<stop  offset="0.2593" style="stop-color:#FFDB6E"/>
			<stop  offset="1" style="stop-color:#FFBC5E"/>
		</linearGradient>
		
			<linearGradient id="SVGID_00000153698047719442383060000006225617545442955684_" gradientUnits="userSpaceOnUse" x1="12.506" y1="18.7397" x2="30.1019" y2="18.7397">
			<stop  offset="0.2593" style="stop-color:#FFDB6E"/>
			<stop  offset="1" style="stop-color:#FFBC5E"/>
		</linearGradient>
		
			<path style="fill:url(#SVGID_00000075843937074167013400000007481863258382846598_);stroke:url(#SVGID_00000153698047719442383060000006225617545442955684_);stroke-width:0.25;" d="
			M14.1,15.2c0,0.4,0.3,0.8,0.7,0.9v5.4c-0.4,0.1-0.7,0.5-0.7,0.9c0,0.5,0.4,1,1,1c0.3,0,0.5-0.1,0.7-0.3l4.7,2.4c0,0,0,0.1,0,0.2
			c0,0.5,0.4,1,1,1c0.5,0,1-0.4,1-1c0-0.1,0-0.1,0-0.2l4.6-2.4c0.4,0.4,1,0.4,1.4,0c0.2-0.2,0.3-0.4,0.3-0.7c0-0.4-0.3-0.8-0.7-0.9
			v-5.4c0.4-0.1,0.7-0.5,0.7-0.9c0-0.5-0.4-1-1-1c-0.2,0-0.5,0.1-0.6,0.2L22.3,12c0-0.1,0-0.1,0-0.2c0-0.5-0.4-1-1-1
			c-0.5,0-1,0.4-1,1l0,0c0,0.1,0,0.1,0,0.2l-4.8,2.5c-0.2-0.2-0.4-0.2-0.6-0.2C14.5,14.2,14.1,14.6,14.1,15.2z M21.4,12.8
			c0.3,0,0.5-0.1,0.7-0.3l4.6,2.4c0,0.1,0,0.1,0,0.2c0,0,0,0.1,0,0.1l-4.5,2.4c-0.2-0.2-0.5-0.4-0.8-0.4c-0.3,0-0.6,0.2-0.8,0.4
			L16,15.3c0,0,0-0.1,0-0.1c0-0.1,0-0.1,0-0.2l4.7-2.4C20.9,12.7,21.1,12.8,21.4,12.8z M26.6,22.4c0,0.1,0,0.1,0,0.1L22,25
			c-0.1-0.1-0.2-0.2-0.4-0.2v-5.6c0.4-0.1,0.7-0.5,0.7-0.9l4.2-2.2l0.3-0.2c0.1,0.1,0.2,0.2,0.4,0.3v5.4
			C26.9,21.6,26.6,22,26.6,22.4L26.6,22.4z M15.4,21.5v-5.4c0.2-0.1,0.3-0.1,0.4-0.3l4.7,2.4c0,0.4,0.3,0.8,0.7,0.9v5.6
			c-0.1,0-0.3,0.1-0.4,0.2L16,22.5c0,0,0-0.1,0-0.1C16,22,15.7,21.6,15.4,21.5z M28.2,10.7h1.2v1.2c0,0.2,0.1,0.3,0.3,0.3
			S30,12,30,11.9v-1.5c0-0.2-0.1-0.3-0.3-0.3h-1.5c-0.2,0-0.3,0.1-0.3,0.3S28,10.7,28.2,10.7z M29.7,16.9c-0.2,0-0.3,0.1-0.3,0.3v3
			c0,0.2,0.1,0.3,0.3,0.3s0.3-0.1,0.3-0.3v-3C30,17.1,29.8,16.9,29.7,16.9z M29.7,25.3c-0.2,0-0.3,0.1-0.3,0.3v1.2h-1.2
			c-0.2,0-0.3,0.1-0.3,0.3s0.1,0.3,0.3,0.3h1.5c0.2,0,0.3-0.1,0.3-0.3v-1.5C30,25.5,29.8,25.3,29.7,25.3z M22.8,26.8h-3
			c-0.2,0-0.3,0.1-0.3,0.3s0.1,0.3,0.3,0.3h3c0.2,0,0.3-0.1,0.3-0.3S23,26.8,22.8,26.8z M12.9,27.4h1.5c0.2,0,0.3-0.1,0.3-0.3
			s-0.1-0.3-0.3-0.3h-1.2v-1.2c0-0.2-0.1-0.3-0.3-0.3s-0.3,0.1-0.3,0.3v1.5C12.6,27.3,12.8,27.4,12.9,27.4z M12.9,20.5
			c0.2,0,0.3-0.1,0.3-0.3v-3c0-0.2-0.1-0.3-0.3-0.3s-0.3,0.1-0.3,0.3v3C12.6,20.4,12.8,20.5,12.9,20.5z M12.9,12.2
			c0.2,0,0.3-0.1,0.3-0.3v-1.2h1.2c0.2,0,0.3-0.1,0.3-0.3c0-0.2-0.1-0.3-0.3-0.3h-1.5c-0.2,0-0.3,0.1-0.3,0.3v1.5
			C12.6,12,12.8,12.2,12.9,12.2z M19.8,10.7h3c0.2,0,0.3-0.1,0.3-0.3c0-0.2-0.1-0.3-0.3-0.3h-3c-0.2,0-0.3,0.1-0.3,0.3
			C19.5,10.5,19.6,10.7,19.8,10.7L19.8,10.7z"/>
	</g>
</g>
</svg>
