<?xml version="1.0" encoding="utf-8"?>
<!-- Generator: Adobe Illustrator 28.1.0, SVG Export Plug-In . SVG Version: 6.00 Build 0)  -->
<svg version="1.1" id="Layer_1" xmlns="http://www.w3.org/2000/svg" xmlns:xlink="http://www.w3.org/1999/xlink" x="0px" y="0px"
	 viewBox="0 0 42 42" style="enable-background:new 0 0 42 42;" xml:space="preserve">
<style type="text/css">
	.st0{opacity:0.15;fill:url(#SVGID_1_);enable-background:new    ;}
	
		.st1{fill:url(#SVGID_00000130622593866946618180000014974630214976290703_);stroke:url(#SVGID_00000150791022558051521970000006605453911290076093_);stroke-width:0.25;}
	
		.st2{fill:url(#SVGID_00000092447778675119232280000006141755097509730237_);stroke:url(#SVGID_00000067928617241676312530000007204075771330696070_);stroke-width:0.25;}
	
		.st3{fill:url(#SVGID_00000157999236720710847570000014654259744983798932_);stroke:url(#SVGID_00000061473282009278996150000011796249407947473070_);stroke-width:0.25;}
	
		.st4{fill:url(#SVGID_00000121968580654350062500000015458577616010418819_);stroke:url(#SVGID_00000137829198304689411200000008051062537615343286_);stroke-width:0.25;}
	
		.st5{fill:url(#SVGID_00000052794876159270264570000015994615754453558409_);stroke:url(#SVGID_00000053539576513033412700000004484632112740286618_);stroke-width:0.25;}
	
		.st6{fill:url(#SVGID_00000078730596673667079280000013432678696029159346_);stroke:url(#SVGID_00000136399191115568115870000005678594366895647886_);stroke-width:0.25;}
	.st7{opacity:0.15;fill:url(#SVGID_00000181770949670225321670000007578422840417268359_);enable-background:new    ;}
	
		.st8{fill:url(#SVGID_00000044152587309857283940000013159169620127942067_);stroke:url(#SVGID_00000130612649380661953230000012414020559542250419_);stroke-width:0.25;}
	.st9{opacity:0.15;fill:url(#SVGID_00000165217107724201224580000006879457135544737961_);enable-background:new    ;}
	
		.st10{fill:url(#SVGID_00000077300064021477537130000015002836965743518614_);stroke:url(#SVGID_00000128447579453310031190000013539100463482124692_);stroke-width:0.25;}
	.st11{opacity:0.15;fill:url(#SVGID_00000049920374128707423590000007425565574064555159_);enable-background:new    ;}
	.st12{opacity:0.15;fill:url(#SVGID_00000114766256161639714340000017064527324223584668_);enable-background:new    ;}
	.st13{fill:#3F456B;}
	
		.st14{fill:url(#SVGID_00000065787661513213810920000006191863038524907705_);stroke:url(#SVGID_00000111900575551775764330000017323908482982323876_);stroke-width:0.25;}
	
		.st15{fill:url(#SVGID_00000154415833487195494800000016730428802763783860_);stroke:url(#SVGID_00000042699713496952755480000008308248748545408668_);stroke-width:0.25;}
	
		.st16{fill:url(#SVGID_00000155144941356639274080000016124544396710251441_);stroke:url(#SVGID_00000164500416385181285750000013342236895261673638_);stroke-width:0.25;}
	
		.st17{fill:url(#SVGID_00000007395780248109293770000006982594888917867695_);stroke:url(#SVGID_00000048487384715700718790000001203419037782962576_);stroke-width:0.25;}
	
		.st18{fill:url(#SVGID_00000065076648505582625480000013668313439856606081_);stroke:url(#SVGID_00000100364416694196899110000017284907397981667206_);stroke-width:0.25;}
	.st19{opacity:0.15;fill:url(#SVGID_00000108290291691343900090000000402092769933711543_);enable-background:new    ;}
	.st20{opacity:0.15;fill:url(#SVGID_00000123424156175469812880000015379716473339686835_);enable-background:new    ;}
	.st21{fill:#EF726C;}
	.st22{fill:url(#SVGID_00000104674474558117925050000003364105434458712978_);}
	.st23{opacity:0.15;fill:url(#SVGID_00000139294325253107160760000010188506567535957675_);enable-background:new    ;}
	
		.st24{fill:url(#SVGID_00000087408227889591294720000013103845650606894228_);stroke:url(#SVGID_00000080186380169034022500000007582232574960256430_);stroke-width:0.25;}
</style>
<g>
	<linearGradient id="SVGID_1_" gradientUnits="userSpaceOnUse" x1="28.0706" y1="32.2246" x2="34.611" y2="32.2246">
		<stop  offset="0.2593" style="stop-color:#FFDB6E"/>
		<stop  offset="1" style="stop-color:#FFBC5E"/>
	</linearGradient>
	<polygon class="st0" points="34.6,30.8 32.4,32.1 34,33.8 32.9,34.8 31.3,33.3 29.9,35.5 28.1,29 	"/>
	
		<linearGradient id="SVGID_00000099661098410887024580000014329234216167144065_" gradientUnits="userSpaceOnUse" x1="27.5701" y1="32.225" x2="35.1111" y2="32.225">
		<stop  offset="0.2593" style="stop-color:#FFDB6E"/>
		<stop  offset="1" style="stop-color:#FFBC5E"/>
	</linearGradient>
	
		<linearGradient id="SVGID_00000154407931784583899690000006491184764127327657_" gradientUnits="userSpaceOnUse" x1="27.4451" y1="32.225" x2="35.2361" y2="32.225">
		<stop  offset="0.2593" style="stop-color:#FFDB6E"/>
		<stop  offset="1" style="stop-color:#FFBC5E"/>
	</linearGradient>
	
		<path style="fill:url(#SVGID_00000099661098410887024580000014329234216167144065_);stroke:url(#SVGID_00000154407931784583899690000006491184764127327657_);stroke-width:0.25;" d="
		M29.9,36C29.9,36,29.8,36,29.9,36c-0.3,0-0.4-0.2-0.5-0.4l-1.8-6.5c0-0.2,0-0.4,0.1-0.5c0.1-0.1,0.3-0.2,0.5-0.1l6.5,1.8
		c0.2,0.1,0.3,0.2,0.4,0.4c0,0.2-0.1,0.4-0.2,0.5l-1.7,1l1.2,1.2c0.1,0.1,0.1,0.2,0.1,0.4s-0.1,0.3-0.2,0.4l-1.1,1.1
		c-0.2,0.2-0.5,0.2-0.7,0l-1.1-1.1l-1.1,1.7C30.2,35.9,30.1,36,29.9,36z M28.8,29.7l1.3,4.6l0.8-1.3c0.1-0.1,0.2-0.2,0.4-0.2
		c0.2,0,0.3,0,0.4,0.1l1.2,1.2l0.4-0.4L32,32.5c-0.1-0.1-0.2-0.3-0.1-0.4c0-0.2,0.1-0.3,0.2-0.4l1.2-0.8L28.8,29.7z"/>
	<g>
		
			<linearGradient id="SVGID_00000181079971381135951780000004072108083139866302_" gradientUnits="userSpaceOnUse" x1="25.2132" y1="32.6667" x2="27.1566" y2="32.6667">
			<stop  offset="0.2593" style="stop-color:#FFDB6E"/>
			<stop  offset="1" style="stop-color:#FFBC5E"/>
		</linearGradient>
		
			<linearGradient id="SVGID_00000080905067454756336390000010507030448222389177_" gradientUnits="userSpaceOnUse" x1="25.0882" y1="32.6667" x2="27.2816" y2="32.6667">
			<stop  offset="0.2593" style="stop-color:#FFDB6E"/>
			<stop  offset="1" style="stop-color:#FFBC5E"/>
		</linearGradient>
		
			<path style="fill:url(#SVGID_00000181079971381135951780000004072108083139866302_);stroke:url(#SVGID_00000080905067454756336390000010507030448222389177_);stroke-width:0.25;" d="
			M25.7,33.6c-0.1,0-0.3,0-0.4-0.1c-0.2-0.2-0.2-0.5,0-0.7l0.9-0.9c0.2-0.2,0.5-0.2,0.7,0s0.2,0.5,0,0.7l-0.9,0.9
			C26,33.6,25.8,33.6,25.7,33.6z"/>
	</g>
	<g>
		
			<linearGradient id="SVGID_00000107556868121451437890000012462148184279463350_" gradientUnits="userSpaceOnUse" x1="30.8703" y1="27.069" x2="32.754" y2="27.069">
			<stop  offset="0.2593" style="stop-color:#FFDB6E"/>
			<stop  offset="1" style="stop-color:#FFBC5E"/>
		</linearGradient>
		
			<linearGradient id="SVGID_00000093170563204834001880000010187125528440697779_" gradientUnits="userSpaceOnUse" x1="30.7453" y1="27.069" x2="32.879" y2="27.069">
			<stop  offset="0.2593" style="stop-color:#FFDB6E"/>
			<stop  offset="1" style="stop-color:#FFBC5E"/>
		</linearGradient>
		
			<path style="fill:url(#SVGID_00000107556868121451437890000012462148184279463350_);stroke:url(#SVGID_00000093170563204834001880000010187125528440697779_);stroke-width:0.25;" d="
			M31.4,28c-0.1,0-0.2,0-0.3-0.1c-0.2-0.2-0.2-0.5,0-0.7l0.9-0.9c0.2-0.2,0.5-0.2,0.7,0s0.2,0.5,0,0.7l-0.9,0.9
			C31.6,28,31.5,28,31.4,28z"/>
	</g>
	<g>
		
			<linearGradient id="SVGID_00000116235276384541886090000013472759311880436399_" gradientUnits="userSpaceOnUse" x1="25.2132" y1="27.069" x2="27.1566" y2="27.069">
			<stop  offset="0.2593" style="stop-color:#FFDB6E"/>
			<stop  offset="1" style="stop-color:#FFBC5E"/>
		</linearGradient>
		
			<linearGradient id="SVGID_00000169531605493386371590000017453437454245922961_" gradientUnits="userSpaceOnUse" x1="25.0882" y1="27.069" x2="27.2816" y2="27.069">
			<stop  offset="0.2593" style="stop-color:#FFDB6E"/>
			<stop  offset="1" style="stop-color:#FFBC5E"/>
		</linearGradient>
		
			<path style="fill:url(#SVGID_00000116235276384541886090000013472759311880436399_);stroke:url(#SVGID_00000169531605493386371590000017453437454245922961_);stroke-width:0.25;" d="
			M26.7,28c-0.1,0-0.3,0-0.4-0.1L25.4,27c-0.2-0.2-0.2-0.5,0-0.7s0.5-0.2,0.7,0l0.9,0.9c0.2,0.2,0.2,0.5,0,0.7
			C26.9,28,26.8,28,26.7,28z"/>
	</g>
	<g>
		
			<linearGradient id="SVGID_00000004547894202850604120000007778407758900585914_" gradientUnits="userSpaceOnUse" x1="23.8588" y1="29.838" x2="26.1547" y2="29.838">
			<stop  offset="0.2593" style="stop-color:#FFDB6E"/>
			<stop  offset="1" style="stop-color:#FFBC5E"/>
		</linearGradient>
		
			<linearGradient id="SVGID_00000053542227840766078870000013128657450407641769_" gradientUnits="userSpaceOnUse" x1="23.7338" y1="29.838" x2="26.2797" y2="29.838">
			<stop  offset="0.2593" style="stop-color:#FFDB6E"/>
			<stop  offset="1" style="stop-color:#FFBC5E"/>
		</linearGradient>
		
			<path style="fill:url(#SVGID_00000004547894202850604120000007778407758900585914_);stroke:url(#SVGID_00000053542227840766078870000013128657450407641769_);stroke-width:0.25;" d="
			M25.7,30.3h-1.3c-0.3,0-0.5-0.2-0.5-0.5s0.2-0.5,0.5-0.5h1.3c0.3,0,0.5,0.2,0.5,0.5S25.9,30.3,25.7,30.3z"/>
	</g>
	<g>
		
			<linearGradient id="SVGID_00000158011626776232943120000013223182458252678815_" gradientUnits="userSpaceOnUse" x1="28.5131" y1="25.8903" x2="29.5131" y2="25.8903">
			<stop  offset="0.2593" style="stop-color:#FFDB6E"/>
			<stop  offset="1" style="stop-color:#FFBC5E"/>
		</linearGradient>
		
			<linearGradient id="SVGID_00000012465029121387736150000011290217680727456426_" gradientUnits="userSpaceOnUse" x1="28.3881" y1="25.8903" x2="29.6381" y2="25.8903">
			<stop  offset="0.2593" style="stop-color:#FFDB6E"/>
			<stop  offset="1" style="stop-color:#FFBC5E"/>
		</linearGradient>
		
			<path style="fill:url(#SVGID_00000158011626776232943120000013223182458252678815_);stroke:url(#SVGID_00000012465029121387736150000011290217680727456426_);stroke-width:0.25;" d="
			M29,27c-0.3,0-0.5-0.2-0.5-0.5v-1.3c0-0.3,0.2-0.5,0.5-0.5s0.5,0.2,0.5,0.5v1.3C29.5,26.8,29.3,27,29,27z"/>
	</g>
	<g>
		
			<linearGradient id="SVGID_00000018950556843526938950000011707479370308396939_" gradientUnits="userSpaceOnUse" x1="10.6586" y1="18.1125" x2="15.5502" y2="18.1125">
			<stop  offset="0.2593" style="stop-color:#FFDB6E"/>
			<stop  offset="1" style="stop-color:#FFBC5E"/>
		</linearGradient>
		
			<rect x="10.7" y="16.4" style="opacity:0.15;fill:url(#SVGID_00000018950556843526938950000011707479370308396939_);enable-background:new    ;" width="4.9" height="3.5"/>
		
			<linearGradient id="SVGID_00000150782473874513657790000004409207418045292977_" gradientUnits="userSpaceOnUse" x1="9.6586" y1="27.7169" x2="16.5502" y2="27.7169">
			<stop  offset="0.2593" style="stop-color:#FFDB6E"/>
			<stop  offset="1" style="stop-color:#FFBC5E"/>
		</linearGradient>
		
			<linearGradient id="SVGID_00000113348181534384218900000014927589255397903529_" gradientUnits="userSpaceOnUse" x1="9.5336" y1="27.7169" x2="16.6752" y2="27.7169">
			<stop  offset="0.2593" style="stop-color:#FFDB6E"/>
			<stop  offset="1" style="stop-color:#FFBC5E"/>
		</linearGradient>
		
			<path style="fill:url(#SVGID_00000150782473874513657790000004409207418045292977_);stroke:url(#SVGID_00000113348181534384218900000014927589255397903529_);stroke-width:0.25;" d="
			M16.1,15.4h-5.9c-0.3,0-0.5,0.2-0.5,0.5v4.5v2.3v16.9c0,0.3,0.2,0.5,0.5,0.5h5.9c0.3,0,0.5-0.2,0.5-0.5V22.6v-2.3v-4.5
			C16.6,15.6,16.3,15.4,16.1,15.4z M10.7,16.4h4.9v3.5h-4.9V16.4z M10.7,20.9h4.9v1.3h-4.9V20.9z M15.6,39.1h-4.9V23.1h4.9V39.1z"/>
		<g>
			
				<linearGradient id="SVGID_00000102545564515690513660000002412310069865323917_" gradientUnits="userSpaceOnUse" x1="10.6586" y1="31.1051" x2="15.5502" y2="31.1051">
				<stop  offset="0.2593" style="stop-color:#FFDB6E"/>
				<stop  offset="1" style="stop-color:#FFBC5E"/>
			</linearGradient>
			
				<path style="opacity:0.15;fill:url(#SVGID_00000102545564515690513660000002412310069865323917_);enable-background:new    ;" d="
				M10.7,23.1v15.9h4.9V23.1H10.7z M13.1,36.6c-0.9,0-1.6-0.7-1.6-1.6s0.7-1.6,1.6-1.6s1.6,0.7,1.6,1.6S14,36.6,13.1,36.6z"/>
			
				<linearGradient id="SVGID_00000072270323346710460700000004370802756303105689_" gradientUnits="userSpaceOnUse" x1="11.5433" y1="35.0822" x2="14.6644" y2="35.0822">
				<stop  offset="0.2593" style="stop-color:#FFDB6E"/>
				<stop  offset="1" style="stop-color:#FFBC5E"/>
			</linearGradient>
			
				<linearGradient id="SVGID_00000168831652172217426020000013730800830894694565_" gradientUnits="userSpaceOnUse" x1="11.4183" y1="35.0822" x2="14.7894" y2="35.0822">
				<stop  offset="0.2593" style="stop-color:#FFDB6E"/>
				<stop  offset="1" style="stop-color:#FFBC5E"/>
			</linearGradient>
			
				<path style="fill:url(#SVGID_00000072270323346710460700000004370802756303105689_);stroke:url(#SVGID_00000168831652172217426020000013730800830894694565_);stroke-width:0.25;" d="
				M13.1,33.5c-0.9,0-1.6,0.7-1.6,1.6s0.7,1.6,1.6,1.6s1.6-0.7,1.6-1.6S14,33.5,13.1,33.5z M13.1,35.6c-0.3,0-0.6-0.3-0.6-0.6
				s0.3-0.6,0.6-0.6s0.6,0.3,0.6,0.6S13.4,35.6,13.1,35.6z"/>
		</g>
	</g>
	<g>
		
			<linearGradient id="SVGID_00000065034595111021210930000013767366484109682101_" gradientUnits="userSpaceOnUse" x1="5.8694" y1="23.4182" x2="9.598" y2="23.4182">
			<stop  offset="0.2593" style="stop-color:#FFDB6E"/>
			<stop  offset="1" style="stop-color:#FFBC5E"/>
		</linearGradient>
		
			<polygon style="opacity:0.15;fill:url(#SVGID_00000065034595111021210930000013767366484109682101_);enable-background:new    ;" points="
			9.6,22.5 6.2,22 5.9,24.4 9.3,24.8 		"/>
		
			<linearGradient id="SVGID_00000022543639165445293830000003677751051893614985_" gradientUnits="userSpaceOnUse" x1="4.0589" y1="37.6133" x2="7.7396" y2="37.6133">
			<stop  offset="0.2593" style="stop-color:#FFDB6E"/>
			<stop  offset="1" style="stop-color:#FFBC5E"/>
		</linearGradient>
		
			<polygon style="opacity:0.15;fill:url(#SVGID_00000022543639165445293830000003677751051893614985_);enable-background:new    ;" points="
			4.1,38.5 7.4,39 7.7,36.6 4.4,36.2 		"/>
		<path class="st13" d="M3.4,35.6C3.4,35.6,3.4,35.6,3.4,35.6l0.5-3.9L3.4,35.6z"/>
		<polygon class="st13" points="7.9,35.6 9.2,25.8 9.2,25.8 7.9,35.6 		"/>
		<polygon class="st13" points="4.5,35.2 4.5,35.2 4.9,31.9 		"/>
		
			<linearGradient id="SVGID_00000081628688844576446790000002032232690991252356_" gradientUnits="userSpaceOnUse" x1="3.0001" y1="30.5156" x2="10.6588" y2="30.5156">
			<stop  offset="0.2593" style="stop-color:#FFDB6E"/>
			<stop  offset="1" style="stop-color:#FFBC5E"/>
		</linearGradient>
		
			<linearGradient id="SVGID_00000000224746960498982320000009329869593806619040_" gradientUnits="userSpaceOnUse" x1="2.8751" y1="30.5156" x2="10.7838" y2="30.5156">
			<stop  offset="0.2593" style="stop-color:#FFDB6E"/>
			<stop  offset="1" style="stop-color:#FFBC5E"/>
		</linearGradient>
		
			<path style="fill:url(#SVGID_00000081628688844576446790000002032232690991252356_);stroke:url(#SVGID_00000000224746960498982320000009329869593806619040_);stroke-width:0.25;" d="
			M10.2,21.6L5.8,21c-0.1,0-0.3,0-0.4,0.1s-0.2,0.2-0.2,0.3L3.9,31.7l-0.5,4L3,38.9c0,0.3,0.2,0.5,0.4,0.6l4.4,0.6c0,0,0,0,0.1,0
			c0.1,0,0.2,0,0.3-0.1c0.1-0.1,0.2-0.2,0.2-0.3l0.4-3.2l1.5-11.1l0.4-3.2C10.7,21.9,10.5,21.6,10.2,21.6z M9.3,24.8l-3.4-0.4
			L6.2,22l3.4,0.5L9.3,24.8z M9.2,25.8l-1.3,9.8l0,0l-3.4-0.4l0,0l0.4-3.3l0.9-6.5L9.2,25.8L9.2,25.8z M7.4,39l-3.4-0.5l0.3-2.3
			l3.4,0.4L7.4,39z"/>
		
			<linearGradient id="SVGID_00000112623804710459135750000003499895898828848536_" gradientUnits="userSpaceOnUse" x1="5.652" y1="29.1606" x2="8.3595" y2="29.1606">
			<stop  offset="0.2593" style="stop-color:#FFDB6E"/>
			<stop  offset="1" style="stop-color:#FFBC5E"/>
		</linearGradient>
		
			<linearGradient id="SVGID_00000104700979246952770460000001428757571937963443_" gradientUnits="userSpaceOnUse" x1="5.527" y1="29.1606" x2="8.4845" y2="29.1606">
			<stop  offset="0.2593" style="stop-color:#FFDB6E"/>
			<stop  offset="1" style="stop-color:#FFBC5E"/>
		</linearGradient>
		
			<path style="fill:url(#SVGID_00000112623804710459135750000003499895898828848536_);stroke:url(#SVGID_00000104700979246952770460000001428757571937963443_);stroke-width:0.25;" d="
			M6.1,29.6l1.7,0.2c0,0,0,0,0.1,0c0.3,0,0.5-0.2,0.5-0.4c0-0.3-0.2-0.5-0.4-0.5l-1.7-0.2c-0.3,0-0.5,0.2-0.5,0.4
			C5.6,29.3,5.8,29.5,6.1,29.6z"/>
		
			<linearGradient id="SVGID_00000032636657012718615630000002709458889842565034_" gradientUnits="userSpaceOnUse" x1="5.4154" y1="30.9583" x2="8.1243" y2="30.9583">
			<stop  offset="0.2593" style="stop-color:#FFDB6E"/>
			<stop  offset="1" style="stop-color:#FFBC5E"/>
		</linearGradient>
		
			<linearGradient id="SVGID_00000050660285484280253380000012764754369859109275_" gradientUnits="userSpaceOnUse" x1="5.2904" y1="30.9583" x2="8.2493" y2="30.9583">
			<stop  offset="0.2593" style="stop-color:#FFDB6E"/>
			<stop  offset="1" style="stop-color:#FFBC5E"/>
		</linearGradient>
		
			<path style="fill:url(#SVGID_00000032636657012718615630000002709458889842565034_);stroke:url(#SVGID_00000050660285484280253380000012764754369859109275_);stroke-width:0.25;" d="
			M7.7,30.6L6,30.3c-0.3,0-0.5,0.2-0.6,0.4s0.2,0.5,0.4,0.6l1.7,0.2c0,0,0,0,0.1,0c0.2,0,0.5-0.2,0.5-0.4C8.2,30.9,8,30.6,7.7,30.6z
			"/>
		
			<linearGradient id="SVGID_00000080166953369276205730000007542435985500439995_" gradientUnits="userSpaceOnUse" x1="5.1801" y1="32.7259" x2="7.889" y2="32.7259">
			<stop  offset="0.2593" style="stop-color:#FFDB6E"/>
			<stop  offset="1" style="stop-color:#FFBC5E"/>
		</linearGradient>
		
			<linearGradient id="SVGID_00000160881252506073773930000008743104249807271563_" gradientUnits="userSpaceOnUse" x1="5.0551" y1="32.7259" x2="8.014" y2="32.7259">
			<stop  offset="0.2593" style="stop-color:#FFDB6E"/>
			<stop  offset="1" style="stop-color:#FFBC5E"/>
		</linearGradient>
		
			<path style="fill:url(#SVGID_00000080166953369276205730000007542435985500439995_);stroke:url(#SVGID_00000160881252506073773930000008743104249807271563_);stroke-width:0.25;" d="
			M7.5,32.3l-1.7-0.2c-0.3,0-0.5,0.2-0.6,0.4s0.2,0.5,0.4,0.6l1.7,0.2c0,0,0,0,0.1,0c0.2,0,0.5-0.2,0.5-0.4
			C7.9,32.6,7.7,32.4,7.5,32.3z"/>
	</g>
	<g>
		
			<linearGradient id="SVGID_00000109723401252899474330000011278511468526046851_" gradientUnits="userSpaceOnUse" x1="14.9556" y1="29.0133" x2="22.4476" y2="29.0133">
			<stop  offset="0.2593" style="stop-color:#FFDB6E"/>
			<stop  offset="1" style="stop-color:#FFBC5E"/>
		</linearGradient>
		
			<linearGradient id="SVGID_00000175282848747781116920000013721798672595859877_" gradientUnits="userSpaceOnUse" x1="15.4252" y1="29.0133" x2="21.9784" y2="29.0133">
			<stop  offset="0.2593" style="stop-color:#FFDB6E"/>
			<stop  offset="1" style="stop-color:#FFBC5E"/>
		</linearGradient>
		
			<path style="fill:url(#SVGID_00000109723401252899474330000011278511468526046851_);stroke:url(#SVGID_00000175282848747781116920000013721798672595859877_);stroke-width:0.25;" d="
			M21.4,18h-5.3c-0.3,0-0.5,0.2-0.5,0.5v11v1.9v1.9v1.9v4.4c0,0.3,0.2,0.5,0.5,0.5h5.3c0.3,0,0.5-0.2,0.5-0.5v-4.4v-1.9v-1.9v-1.9
			v-11C21.9,18.2,21.6,18,21.4,18z M20.9,31.8v0.9h-4.3v-0.9H20.9z M16.6,30.8v-0.9h4.3v0.9H16.6z M20.9,33.8v0.9h-4.3v-0.9H20.9z
			 M20.9,35.6v3.4h-4.3v-3.4H20.9z M20.9,28.9h-4.3V19h4.3V28.9z"/>
	</g>
	
		<linearGradient id="SVGID_00000152264942352314485530000002728982842708316095_" gradientUnits="userSpaceOnUse" x1="16.5502" y1="37.3509" x2="20.8534" y2="37.3509">
		<stop  offset="0.2593" style="stop-color:#FFDB6E"/>
		<stop  offset="1" style="stop-color:#FFBC5E"/>
	</linearGradient>
	
		<rect x="16.6" y="35.6" style="opacity:0.15;fill:url(#SVGID_00000152264942352314485530000002728982842708316095_);enable-background:new    ;" width="4.3" height="3.4"/>
	<g>
		
			<linearGradient id="SVGID_00000156557442529026036330000008274838769580223636_" gradientUnits="userSpaceOnUse" x1="16.5502" y1="23.9459" x2="20.8534" y2="23.9459">
			<stop  offset="0.2593" style="stop-color:#FFDB6E"/>
			<stop  offset="1" style="stop-color:#FFBC5E"/>
		</linearGradient>
		<path style="opacity:0.15;fill:url(#SVGID_00000156557442529026036330000008274838769580223636_);enable-background:new    ;" d="
			M16.6,19v10h4.3V19H16.6z M18.7,23.3c-0.8,0-1.4-0.6-1.4-1.4c0-0.8,0.6-1.4,1.4-1.4s1.4,0.6,1.4,1.4
			C20.1,22.7,19.5,23.3,18.7,23.3z"/>
		<path class="st21" d="M18.7,20.4c-0.8,0-1.4,0.6-1.4,1.4c0,0.8,0.6,1.4,1.4,1.4s1.4-0.6,1.4-1.4C20.1,21.1,19.5,20.4,18.7,20.4z
			 M18.7,22.3c-0.2,0-0.4-0.2-0.4-0.4s0.2-0.4,0.4-0.4s0.4,0.2,0.4,0.4S18.9,22.3,18.7,22.3z"/>
		
			<linearGradient id="SVGID_00000163765199562537998720000004905132978697746063_" gradientUnits="userSpaceOnUse" x1="17.2591" y1="21.8834" x2="20.1449" y2="21.8834">
			<stop  offset="0.2593" style="stop-color:#FFDB6E"/>
			<stop  offset="1" style="stop-color:#FFBC5E"/>
		</linearGradient>
		<path style="fill:url(#SVGID_00000163765199562537998720000004905132978697746063_);" d="M18.7,20.4c-0.8,0-1.4,0.6-1.4,1.4
			c0,0.8,0.6,1.4,1.4,1.4s1.4-0.6,1.4-1.4C20.1,21.1,19.5,20.4,18.7,20.4z M18.7,22.3c-0.2,0-0.4-0.2-0.4-0.4s0.2-0.4,0.4-0.4
			s0.4,0.2,0.4,0.4S18.9,22.3,18.7,22.3z"/>
	</g>
	
		<linearGradient id="SVGID_00000144297519801455541000000011299363561967120049_" gradientUnits="userSpaceOnUse" x1="16.8164" y1="9.7162" x2="38.4999" y2="9.7162">
		<stop  offset="0.2593" style="stop-color:#FFDB6E"/>
		<stop  offset="1" style="stop-color:#FFBC5E"/>
	</linearGradient>
	<path style="opacity:0.15;fill:url(#SVGID_00000144297519801455541000000011299363561967120049_);enable-background:new    ;" d="
		M38.5,13.2c0,2.1-1.7,3.8-3.8,3.8c-2.1,0-10.6-0.1-13.2-0.1s-4.7-2.1-4.7-4.7c0-2.5,1.9-4.5,4.4-4.7c-0.1-0.3-0.1-0.6-0.1-1
		c0-2.1,1.6-3.7,3.7-3.7c1.1,0,2.1,0.5,2.8,1.2c0.9-1,2.3-1.6,3.8-1.6c2.8,0,5.1,2.3,5.1,5.1c0,0.8-0.2,1.5-0.5,2.1
		C37.4,10.2,38.5,11.6,38.5,13.2z"/>
	
		<linearGradient id="SVGID_00000101796494422199060640000015597181134276467872_" gradientUnits="userSpaceOnUse" x1="16.3163" y1="12.0731" x2="38.9999" y2="12.0731">
		<stop  offset="0.2593" style="stop-color:#FFDB6E"/>
		<stop  offset="1" style="stop-color:#FFBC5E"/>
	</linearGradient>
	
		<linearGradient id="SVGID_00000160901344554780466850000018226757682417648264_" gradientUnits="userSpaceOnUse" x1="16.1913" y1="12.0731" x2="39.1249" y2="12.0731">
		<stop  offset="0.2593" style="stop-color:#FFDB6E"/>
		<stop  offset="1" style="stop-color:#FFBC5E"/>
	</linearGradient>
	
		<path style="fill:url(#SVGID_00000101796494422199060640000015597181134276467872_);stroke:url(#SVGID_00000160901344554780466850000018226757682417648264_);stroke-width:0.25;" d="
		M38.9,12.5c0-0.1,0-0.2-0.1-0.3c0-0.2-0.1-0.3-0.1-0.5c-0.1-0.1-0.1-0.3-0.2-0.4c-0.1-0.1-0.1-0.3-0.2-0.4
		c-0.1-0.1-0.2-0.2-0.2-0.3c-0.1-0.1-0.1-0.1-0.2-0.2c-0.1-0.1-0.2-0.2-0.3-0.3c-0.1,0-0.1-0.1-0.2-0.1c-0.2-0.2-0.4-0.3-0.6-0.4
		c-0.1,0-0.1-0.1-0.2-0.1c0.4-1.2,0.4-2.4,0.1-3.5c-0.5-1.8-2-3.2-3.7-3.7c-0.1,0-0.2-0.1-0.3-0.1c-0.1,0-0.1,0-0.2-0.1
		c-0.1,0-0.1,0-0.2,0C32.3,2,32.1,2,32,2c-0.1,0-0.3,0-0.4,0c-0.1,0-0.2,0-0.2,0c0,0-0.1,0-0.1,0c-0.2,0-0.4,0-0.7,0c0,0,0,0-0.1,0
		c-1.1,0.2-2.2,0.6-3,1.4c-0.7-0.6-1.7-1-2.7-1c-2.1,0-3.9,1.4-4.3,3.6c0,0.3-0.1,0.7,0,1.2c-2.5,0.4-4.2,2.5-4.2,5.1
		c0,2.9,2.3,5.2,5.2,5.2h4.2c1,0,1.7,0.8,1.7,1.7v1.3L27,19.9c-0.2-0.2-0.5-0.2-0.7,0s-0.2,0.5,0,0.7l1.4,1.4c0,0,0,0,0,0
		c0.1,0.1,0.2,0.2,0.4,0.2c0.2,0,0.4-0.2,0.5-0.4l1.2-1.2c0.2-0.2,0.2-0.5,0-0.7c-0.2-0.2-0.5-0.2-0.7,0l-0.5,0.5v-1.2
		c0-1.5-1.2-2.7-2.7-2.7h-4.2c-2.3,0-4.2-1.9-4.2-4.2c0-0.9,0.3-1.7,0.8-2.4c0,0,0,0,0.1,0c0.9-1.1,2.1-1.7,3.4-1.7
		c0.6,0,1.2,0.1,1.9,0.4c0.3,0.1,0.5,0,0.7-0.2c0.1-0.3,0-0.5-0.2-0.7c-0.8-0.3-1.5-0.5-2.2-0.5c0-0.3-0.1-0.6,0-1
		c0.3-1.6,1.6-2.8,3.3-2.8c0.8,0,1.5,0.3,2.1,0.8c-0.2,0.3-0.4,0.6-0.6,0.9c-0.1,0.2,0,0.5,0.2,0.7c0.2,0.1,0.5,0,0.7-0.2
		c0.6-1.2,1.6-2,2.8-2.4c0,0,0.1,0,0.1,0c0.2,0,0.3-0.1,0.5-0.1c0.1,0,0.2,0,0.3,0c0.1,0,0.2,0,0.3,0c0.1,0,0.3,0,0.4,0
		c0.1,0,0.1,0,0.2,0C32,3,32.1,3,32.2,3c0.1,0,0.2,0,0.3,0.1c0.1,0,0.2,0,0.2,0.1c1.2,0.4,2.2,1.2,2.8,2.4c0,0,0,0,0,0
		c0.1,0.2,0.2,0.4,0.2,0.6c0.3,0.9,0.3,1.9-0.1,2.9C35.4,9,35.1,9,34.7,9c-0.3,0-0.5,0.2-0.5,0.5s0.2,0.5,0.5,0.5
		c0.4,0,0.8,0.1,1.2,0.2c0,0,0.1,0,0.1,0.1c0.1,0.1,0.3,0.1,0.4,0.2c0,0,0.1,0,0.1,0.1c0.5,0.3,0.9,0.8,1.1,1.4c0,0,0,0.1,0,0.1
		c0.1,0.1,0.1,0.3,0.1,0.4c0,0.1,0,0.1,0,0.2c0,0.2,0.1,0.4,0.1,0.6c0,1.8-1.5,3.3-3.3,3.3l-3.3,0c-1,0-1.7-0.8-1.7-1.7v-3l0.6,0.5
		c0.1,0.1,0.2,0.1,0.3,0.1c0.1,0,0.3-0.1,0.4-0.2c0.2-0.2,0.2-0.5,0-0.7l-1.4-1.3c0,0,0,0,0,0l0,0c0,0,0,0-0.1,0
		c0,0-0.1-0.1-0.1-0.1c0,0-0.1,0-0.1,0c0,0,0,0-0.1,0c0,0,0,0,0,0c-0.1,0-0.1,0-0.2,0c-0.1,0-0.1,0.1-0.2,0.1l-1.4,1.4
		c-0.2,0.2-0.2,0.5,0,0.7s0.5,0.2,0.7,0l0.5-0.5v3c0,1.5,1.2,2.7,2.7,2.7h3.3c2.4,0,4.3-1.9,4.3-4.3C39,13,39,12.7,38.9,12.5z"/>
</g>
</svg>
