<?xml version="1.0" encoding="utf-8"?>
<!-- Generator: Adobe Illustrator 28.1.0, SVG Export Plug-In . SVG Version: 6.00 Build 0)  -->
<svg version="1.1" id="Layer_1" xmlns="http://www.w3.org/2000/svg" xmlns:xlink="http://www.w3.org/1999/xlink" x="0px" y="0px"
	 viewBox="0 0 209 131" style="enable-background:new 0 0 209 131;" xml:space="preserve">
<style type="text/css">
	.st0{fill:none;}
	.st1{fill:#FDC010;}
	.st2{fill:#1971B9;}
</style>
<g>
	<g>
		<rect class="st0" width="209" height="131"/>
	</g>
	<g>
		<g>
			<polygon class="st1" points="49.3,81 43.7,81 43.7,67.9 43.4,66.2 42.9,64.8 42.7,64.6 42.6,64.4 41.6,63.6 40.5,63.3 39.5,63.3 
				38,63.9 37.8,63.9 37.6,64 35.8,65.4 35.7,65.6 35.5,65.7 34.4,67.8 34.3,68 34.3,81 28.6,81 28.6,58.7 33.7,58.7 33.7,62.8 
				33.9,62.6 35.7,60.6 35.9,60.4 36.1,60.2 38.7,59 39,58.8 39.3,58.7 41.8,58.3 43.1,58.3 44.5,58.5 45.9,59 46.1,59.1 46.3,59.2 
				47.2,59.9 48,60.8 48.1,61 48.2,61.2 49,63.6 49.1,63.9 49.1,64.2 49.3,66.4 			"/>
			<polygon class="st1" points="75.1,81 69.4,81 69.4,67.9 69.1,66.2 68.6,64.8 68.4,64.6 68.3,64.4 67.3,63.6 66.2,63.3 65.3,63.3 
				63.7,63.9 63.5,63.9 63.3,64 61.6,65.4 61.4,65.6 61.2,65.7 60.1,67.8 60,68 60,81 54.4,81 54.4,58.7 59.5,58.7 59.5,62.8 
				59.6,62.6 61.5,60.6 61.7,60.4 61.9,60.2 64.4,59 64.7,58.8 65,58.7 67.5,58.3 68.8,58.3 70.2,58.5 71.5,59 71.8,59.1 72,59.2 
				72.9,59.9 73.7,60.8 73.8,61 73.9,61.2 74.8,63.6 74.8,63.9 74.8,64.2 75.1,66.4 			"/>
			<path class="st2" d="M125.7,81.3l1.5-0.2c0.1,0,0.3-0.1,0.4-0.1l1.7-0.4l0.2-0.1l0.2-0.1l1-0.4l0.1-0.1l-0.8-4.6
				c-0.3,0.1-1,0.4-1.3,0.4l-1.1,0.2h-0.7l-0.9-0.5l-0.1-0.1l-0.1-0.1l-0.3-0.7l-0.1-0.9V57l-0.6-2.6l-1.4-2.3l-0.4-0.4l-0.3-0.3
				l-1-0.7L120,50l-1.9-0.4l-1.7-0.2h-1.3l-2,0.3l-1.9,0.6l-0.4,0.2l-0.4,0.2l-1.5,1l-1.2,1.4l-0.2,0.3l-0.2,0.3l-0.7,1.8l-0.3,1.9
				v2.5h-2.9v4.3h2.9V81h5.7V64.2h3.7v-4.3h-3.7v-1.4l0.3-1.7l0.1-0.2l0.1-0.2l1-1.4l0.2-0.1l0.2-0.1l0.8-0.4l0.9-0.2h0.6l0.9,0.2
				l0.8,0.4l0.1,0.1l0.1,0.1l0.9,1.4l0.1,0.2l0.1,0.2l0.3,1.6v18.5l0.4,1.5l0.9,1.4l0.3,0.3l0.3,0.2l1.5,0.8l1.7,0.4H125.7z"/>
			<polygon class="st2" points="186.6,58.7 192,58.7 182.7,81 177.9,81 174.2,71.4 170.5,81 165.7,81 156.4,58.7 161.7,58.7 
				168.4,75.5 171,68.3 167.1,58.7 171.9,58.7 174.2,65.6 176.5,58.7 181.2,58.7 177.3,68.3 180,75.5 			"/>
			<rect x="17" y="50.8" class="st1" width="5.9" height="30.2"/>
			<path class="st2" d="M155.1,69.9c0,6.5-5.2,11.7-11.7,11.7c-6.5,0-11.7-5.2-11.7-11.7s5.2-11.7,11.7-11.7
				C149.8,58.2,155.1,63.4,155.1,69.9z M143.4,63.3c-3.2,0-5.8,3-5.8,6.7c0,3.7,2.6,6.7,5.8,6.7s5.8-3,5.8-6.7
				C149.2,66.3,146.6,63.3,143.4,63.3z"/>
			<path class="st1" d="M102,69.9c0,6.5-5.2,11.7-11.7,11.7c-6.5,0-11.7-5.2-11.7-11.7s5.2-11.7,11.7-11.7
				C96.8,58.2,102,63.4,102,69.9z M90.3,63.3c-3.2,0-5.8,3-5.8,6.7c0,3.7,2.6,6.7,5.8,6.7s5.8-3,5.8-6.7
				C96.2,66.3,93.5,63.3,90.3,63.3z"/>
		</g>
	</g>
</g>
</svg>
