<?xml version="1.0" encoding="utf-8"?>
<!-- Generator: Adobe Illustrator 28.1.0, SVG Export Plug-In . SVG Version: 6.00 Build 0)  -->
<svg version="1.1" id="Layer_1" xmlns="http://www.w3.org/2000/svg" xmlns:xlink="http://www.w3.org/1999/xlink" x="0px" y="0px"
	 viewBox="0 0 209 131" style="enable-background:new 0 0 209 131;" xml:space="preserve">
<style type="text/css">
	.st0{fill:none;}
	.st1{fill:#2E3690;}
	.st2{fill:#ED2224;}
</style>
<g>
	<g>
		<rect class="st0" width="209" height="131"/>
	</g>
	<g>
		<path class="st1" d="M83.2,48.5v3.4h6.2v12.4h3.4V51.9H99v-3.4H83.2z"/>
		<path class="st1" d="M125.4,51.9v-3.4h-15.8v15.8h15.8v-3.4h-12.4v-2.8h11.3v-3.4h-11.3v-2.8H125.4z"/>
		<path class="st1" d="M146.1,60.9h-4.5c-1.5,0-2.3-0.8-2.3-2.3v-4.5c0-1.5,0.8-2.3,2.3-2.3h4.5c1.5,0,2.3,0.8,2.3,2.3h3.4
			c0-3.8-1.9-5.6-5.6-5.6h-4.5c-3.8,0-5.6,1.9-5.6,5.6v4.5c0,3.8,1.9,5.6,5.6,5.6h4.5c3.8,0,5.6-1.9,5.6-5.6h-3.4
			C148.4,60.1,147.6,60.9,146.1,60.9z"/>
		<path class="st1" d="M174.7,48.5v6.2h-9v-6.2h-3.4v15.8h3.4v-6.2h9v6.2h3.4V48.5H174.7z"/>
		<path class="st2" d="M204.5,53c0-3-1.5-4.5-4.5-4.5h-6.8c-3,0-4.5,1.5-4.5,4.5v0.6c0,1.2,0.2,2.1,0.7,2.8
			c-0.5,0.7-0.7,1.7-0.7,2.8v0.6c0,3,1.5,4.5,4.5,4.5h6.8c3,0,4.5-1.5,4.5-4.5v-0.6c0-1.2-0.2-2.1-0.7-2.8c0.4-0.7,0.7-1.7,0.7-2.8
			V53z M201.1,59.8c0,0.7-0.4,1.1-1.1,1.1h-6.8c-0.7,0-1.1-0.4-1.1-1.1v-0.6c0-0.7,0.4-1.1,1.1-1.1h6.8c0.8,0,1.1,0.4,1.1,1.1V59.8z
			 M201.1,53.6c0,0.8-0.4,1.1-1.1,1.1h-6.8c-0.7,0-1.1-0.4-1.1-1.1V53c0-0.8,0.4-1.1,1.1-1.1h6.8c0.8,0,1.1,0.4,1.1,1.1V53.6z"/>
		<g>
			<path class="st1" d="M95.6,71.4v10.2c0,1.5-0.8,2.3-2.3,2.3h-4.5c-1.5,0-2.3-0.8-2.3-2.3V71.4h-3.4v10.2c0,3.8,1.9,5.6,5.6,5.6
				h4.5c3.8,0,5.6-1.9,5.6-5.6V71.4H95.6z"/>
			<path class="st1" d="M120.8,77.6h-6.8c-0.8,0-1.1-0.4-1.1-1.1v-0.6c0-0.8,0.4-1.1,1.1-1.1h6.8c0.7,0,1.1,0.4,1.1,1.1h3.4
				c0-3-1.5-4.5-4.5-4.5h-6.8c-3,0-4.5,1.5-4.5,4.5v0.6c0,3,1.5,4.5,4.5,4.5h6.8c0.7,0,1.1,0.4,1.1,1.1v0.6c0,0.7-0.4,1.1-1.1,1.1
				h-6.8c-0.8,0-1.1-0.4-1.1-1.1h-3.4c0,3,1.5,4.5,4.5,4.5h6.8c3,0,4.5-1.5,4.5-4.5v-0.6C125.4,79.1,123.9,77.6,120.8,77.6z"/>
		</g>
		<g>
			<rect x="44.4" y="49.5" class="st2" width="25.2" height="8"/>
			<rect x="44.4" y="65.5" class="st2" width="25.2" height="8"/>
			<rect x="12.5" y="81.5" class="st2" width="16.5" height="8"/>
			<rect x="37.1" y="81.5" class="st2" width="32.6" height="8"/>
			<rect x="4.5" y="41.5" class="st1" width="8" height="8"/>
			<rect x="69.6" y="73.5" class="st2" width="8" height="8"/>
			<path class="st1" d="M12.5,49.5v24h24.7v-24H12.5z M26.6,54.2l0.5-1.7l0.5,1.7h1.8l-1.4,1l0.5,1.7l-1.4-1l-1.4,1l0.5-1.7l-1.4-1
				H26.6z M22.6,57l0.5,1.7h1.8l-1.4,1l0.5,1.7l-1.4-1l-1.4,1l0.5-1.7l-1.4-1H22L22.6,57z M17.4,54.2l0.5-1.7l0.5,1.7h1.8l-1.4,1
				l0.5,1.7l-1.4-1l-1.4,1l0.5-1.7l-1.4-1H17.4z M17.9,64.9l-1.4,1l0.5-1.7l-1.4-1h1.8l0.5-1.7l0.5,1.7h1.8l-1.4,1l0.5,1.7
				L17.9,64.9z M24,70.4l-1.4-1l-1.4,1l0.5-1.7l-1.4-1H22l0.5-1.7l0.5,1.7h1.8l-1.4,1L24,70.4z M27.2,64.9l-1.4,1l0.5-1.7l-1.4-1
				h1.8l0.5-1.7l0.5,1.7h1.8l-1.4,1l0.5,1.7L27.2,64.9z M33.2,70.4l-1.4-1l-1.4,1l0.5-1.7l-1.4-1h1.8l0.5-1.7l0.5,1.7h1.8l-1.4,1
				L33.2,70.4z M32.7,59.8l0.5,1.7l-1.4-1l-1.4,1l0.5-1.7l-1.4-1h1.8l0.5-1.7l0.5,1.7h1.8L32.7,59.8z"/>
		</g>
		<path class="st1" d="M143.8,70.2l-9.8,17h3.9l1.3-2.3l0.1-0.1h9l0.1,0.1l1.3,2.3h3.9L143.8,70.2z M146.4,81.4h-5.1l2.6-4.4
			L146.4,81.4z"/>
	</g>
</g>
</svg>
