<?xml version="1.0" encoding="utf-8"?>
<!-- Generator: Adobe Illustrator 28.1.0, SVG Export Plug-In . SVG Version: 6.00 Build 0)  -->
<svg version="1.1" id="Layer_1" xmlns="http://www.w3.org/2000/svg" xmlns:xlink="http://www.w3.org/1999/xlink" x="0px" y="0px"
	 viewBox="0 0 42 42" style="enable-background:new 0 0 42 42;" xml:space="preserve">
<style type="text/css">
	.st0{opacity:0;fill:url(#SVGID_1_);enable-background:new    ;}
	.st1{opacity:0.7;fill:url(#SVGID_00000177455092391204939760000004088991585053889930_);enable-background:new    ;}
	.st2{opacity:0.3;fill:url(#SVGID_00000087375548100407265670000018308718907264774320_);enable-background:new    ;}
	.st3{opacity:0.3;fill:url(#SVGID_00000066489771356580397430000002964234266416457391_);enable-background:new    ;}
	.st4{opacity:0.3;fill:url(#SVGID_00000141457272698353517430000005460054974725778355_);enable-background:new    ;}
	.st5{opacity:0.3;fill:url(#SVGID_00000075140590896561492660000003451536437115766718_);enable-background:new    ;}
	.st6{opacity:0.3;fill:url(#SVGID_00000150061249859574626070000014801602165087148720_);enable-background:new    ;}
	.st7{opacity:0.15;fill:url(#SVGID_00000156560189552040811980000012721837428122941117_);enable-background:new    ;}
	
		.st8{fill:url(#SVGID_00000090271830751203197080000004026481810342311320_);stroke:url(#SVGID_00000036944967915239388010000005009984076424500925_);stroke-width:0.25;}
	
		.st9{fill:url(#SVGID_00000134961681924769406280000014583048350949904261_);stroke:url(#SVGID_00000088855786685915031710000000672498115754158014_);stroke-width:0.25;}
	
		.st10{fill:url(#SVGID_00000138553670461613818570000015907150713433573799_);stroke:url(#SVGID_00000005224881287913401040000007363181107796075444_);stroke-width:0.25;}
	
		.st11{fill:url(#SVGID_00000076574176741035276020000010686076470566250630_);stroke:url(#SVGID_00000152965069145291647680000011659045046272590985_);stroke-width:0.25;}
	
		.st12{fill:url(#SVGID_00000082355987207778377030000012553310159389230483_);stroke:url(#SVGID_00000162328672269345422340000004709789997312615569_);stroke-width:0.25;}
	
		.st13{fill:url(#SVGID_00000054975667278760872880000012329590035892248468_);stroke:url(#SVGID_00000099621016197197810190000002173004572960013975_);stroke-width:0.25;}
	
		.st14{fill:url(#SVGID_00000103233680174783816750000001215681891439210159_);stroke:url(#SVGID_00000139996997561158988310000015092653398034606268_);stroke-width:0.25;}
	
		.st15{fill:url(#SVGID_00000096061716574080189380000007170594958668071069_);stroke:url(#SVGID_00000127017341280103915100000014295849199050949783_);stroke-width:0.25;}
	
		.st16{fill:url(#SVGID_00000131342275341530892790000003942073859511148972_);stroke:url(#SVGID_00000062177215497829189970000009651666284255346101_);stroke-width:0.25;}
	
		.st17{fill:url(#SVGID_00000054953684613438355290000009845949965034233245_);stroke:url(#SVGID_00000065787938731440058340000000969155831211141779_);stroke-width:0.25;}
	
		.st18{fill:url(#SVGID_00000051380380318478263340000008497947383114131343_);stroke:url(#SVGID_00000109725983476373505560000011679239759744440712_);stroke-width:0.25;}
	
		.st19{fill:url(#SVGID_00000053525214586458106860000014594553622153297565_);stroke:url(#SVGID_00000116218174041996821760000011605496974799997625_);stroke-width:0.25;}
	
		.st20{fill:url(#SVGID_00000017516496539177784970000001560178355735375752_);stroke:url(#SVGID_00000124126729620517057590000018157148823123201964_);stroke-width:0.25;}
	
		.st21{fill:url(#SVGID_00000158741162890545532120000011935076762121212839_);stroke:url(#SVGID_00000135691631217191171930000009789024602550845353_);stroke-width:0.25;}
	
		.st22{fill:url(#SVGID_00000056409729138951882140000018132598342311611065_);stroke:url(#SVGID_00000001633488603130047230000005911547589528248981_);stroke-width:0.25;}
</style>
<g>
	<linearGradient id="SVGID_1_" gradientUnits="userSpaceOnUse" x1="27.0247" y1="13.9864" x2="28.8194" y2="13.9864">
		<stop  offset="0.2593" style="stop-color:#FFDB6E"/>
		<stop  offset="1" style="stop-color:#FFBC5E"/>
	</linearGradient>
	<circle class="st0" cx="27.9" cy="14" r="0.9"/>
	
		<linearGradient id="SVGID_00000028313559035904418590000013536301183998817943_" gradientUnits="userSpaceOnUse" x1="21.3938" y1="17.6007" x2="32.5615" y2="17.6007">
		<stop  offset="0.2593" style="stop-color:#FFDB6E"/>
		<stop  offset="1" style="stop-color:#FFBC5E"/>
	</linearGradient>
	
		<polygon style="opacity:0.7;fill:url(#SVGID_00000028313559035904418590000013536301183998817943_);enable-background:new    ;" points="
		27.3,18.1 29.5,15.8 32.6,18.9 32.6,20 28.6,20 21.4,20 21.4,18.4 24.5,15.2 	"/>
	
		<linearGradient id="SVGID_00000163792594599112455570000000936138904006058400_" gradientUnits="userSpaceOnUse" x1="21.3938" y1="15.2991" x2="32.5615" y2="15.2991">
		<stop  offset="0.2593" style="stop-color:#FFDB6E"/>
		<stop  offset="1" style="stop-color:#FFBC5E"/>
	</linearGradient>
	<path style="opacity:0.3;fill:url(#SVGID_00000163792594599112455570000000936138904006058400_);enable-background:new    ;" d="
		M32.6,11.7v7.2l-3-3.1l-2.2,2.3l-2.8-2.8l-3.1,3.2v-5v-1.8L32.6,11.7L32.6,11.7z M28.8,14c0-0.5-0.4-0.9-0.9-0.9
		c-0.5,0-0.9,0.4-0.9,0.9s0.4,0.9,0.9,0.9S28.8,14.5,28.8,14z"/>
	
		<linearGradient id="SVGID_00000052099184599922369080000003529314429332679097_" gradientUnits="userSpaceOnUse" x1="9.4385" y1="17.9837" x2="19.7192" y2="17.9837">
		<stop  offset="0.2593" style="stop-color:#FFDB6E"/>
		<stop  offset="1" style="stop-color:#FFBC5E"/>
	</linearGradient>
	
		<polygon style="opacity:0.3;fill:url(#SVGID_00000052099184599922369080000003529314429332679097_);enable-background:new    ;" points="
		19.7,15.4 19.7,20.5 11.3,20.5 9.4,20.5 9.4,15.4 11.2,15.4 	"/>
	
		<linearGradient id="SVGID_00000159453160249829556850000010439126607727639742_" gradientUnits="userSpaceOnUse" x1="11.2495" y1="19.4601" x2="28.6484" y2="19.4601">
		<stop  offset="0.2593" style="stop-color:#FFDB6E"/>
		<stop  offset="1" style="stop-color:#FFBC5E"/>
	</linearGradient>
	
		<polygon style="opacity:0.3;fill:url(#SVGID_00000159453160249829556850000010439126607727639742_);enable-background:new    ;" points="
		28.6,20 28.6,25.5 11.3,25.5 11.3,20.5 19.7,20.5 19.7,15.4 11.2,15.4 11.2,13.5 21.3,13.5 21.4,13.5 21.4,18.4 21.4,20 	"/>
	
		<linearGradient id="SVGID_00000090990783289321223750000016385227120630773681_" gradientUnits="userSpaceOnUse" x1="11.3238" y1="30.9435" x2="28.6484" y2="30.9435">
		<stop  offset="0.2593" style="stop-color:#FFDB6E"/>
		<stop  offset="1" style="stop-color:#FFBC5E"/>
	</linearGradient>
	
		<rect x="11.3" y="27.7" style="opacity:0.3;fill:url(#SVGID_00000090990783289321223750000016385227120630773681_);enable-background:new    ;" width="17.3" height="6.4"/>
	
		<linearGradient id="SVGID_00000152248002094185128390000015546725546080548779_" gradientUnits="userSpaceOnUse" x1="2.4318" y1="19.974" x2="39.5682" y2="19.974">
		<stop  offset="0.2593" style="stop-color:#FFDB6E"/>
		<stop  offset="1" style="stop-color:#FFBC5E"/>
	</linearGradient>
	<path style="opacity:0.3;fill:url(#SVGID_00000152248002094185128390000015546725546080548779_);enable-background:new    ;" d="
		M39.6,8.5v26.9c0-1.1-0.9-2.1-2.1-2.1h-2.1c0,0,0,0,0,0V8.5V4.6c0,0,0,0,0,0H37c1.4,0,2.5,1.1,2.5,2.5V8.5L39.6,8.5z M6.6,8.5v24.8
		c0,0,0,0,0,0H4.5c-1.1,0-2.1,0.9-2.1,2.1V8.5V7.1c0-1.4,1.1-2.5,2.5-2.5h1.7c0,0,0,0,0,0V8.5z"/>
	
		<linearGradient id="SVGID_00000158028295583473986700000013648792846327662724_" gradientUnits="userSpaceOnUse" x1="2.4318" y1="22.9298" x2="39.5682" y2="22.9298">
		<stop  offset="0.2593" style="stop-color:#FFDB6E"/>
		<stop  offset="1" style="stop-color:#FFBC5E"/>
	</linearGradient>
	<path style="opacity:0.15;fill:url(#SVGID_00000158028295583473986700000013648792846327662724_);enable-background:new    ;" d="
		M39.6,35.3C39.6,35.4,39.6,35.4,39.6,35.3c0,0.6-0.2,1.1-0.6,1.5c-0.4,0.4-0.9,0.6-1.5,0.6h-33c-0.6,0-1.1-0.2-1.5-0.6
		c-0.4-0.4-0.6-0.8-0.6-1.4c0,0,0-0.1,0-0.1c0-1.1,0.9-2.1,2.1-2.1h2.1c0,0,0,0,0,0V8.5h28.7v24.8c0,0,0,0,0,0h2.1
		C38.6,33.3,39.6,34.2,39.6,35.3z M32.6,20v-1.1v-7.2H21.4v1.8h-0.1H11.2v2H9.4v5.1h1.9v4.9h17.3V20H32.6z M28.6,34.2v-6.4H11.3v6.4
		L28.6,34.2L28.6,34.2z"/>
	<g>
		
			<linearGradient id="SVGID_00000062154829825590689400000001715241973707322030_" gradientUnits="userSpaceOnUse" x1="2" y1="21" x2="40" y2="21">
			<stop  offset="0.2593" style="stop-color:#FFDB6E"/>
			<stop  offset="1" style="stop-color:#FFBC5E"/>
		</linearGradient>
		
			<linearGradient id="SVGID_00000137814792619263077310000011632166890213635514_" gradientUnits="userSpaceOnUse" x1="1.875" y1="21" x2="40.125" y2="21">
			<stop  offset="0.2593" style="stop-color:#FFDB6E"/>
			<stop  offset="1" style="stop-color:#FFBC5E"/>
		</linearGradient>
		
			<path style="fill:url(#SVGID_00000062154829825590689400000001715241973707322030_);stroke:url(#SVGID_00000137814792619263077310000011632166890213635514_);stroke-width:0.25;" d="
			M37,4.2h-1.7c-0.2,0-0.4,0.2-0.4,0.4V8H7.1V4.6c0-0.2-0.2-0.4-0.4-0.4H5c-1.6,0-3,1.3-3,3v28.2c0,0,0,0.1,0,0.1
			c0,0.6,0.3,1.2,0.7,1.6c0.5,0.5,1.1,0.7,1.8,0.7h33c0.7,0,1.3-0.3,1.8-0.7c0.4-0.4,0.7-1,0.7-1.6c0,0,0-0.1,0-0.1V7.1
			C40,5.5,38.7,4.2,37,4.2z M2.9,7.1C2.9,6,3.8,5,5,5h1.2v27.8H4.5c-0.6,0-1.2,0.2-1.6,0.6V7.1z M38.7,36.5
			c-0.3,0.3-0.7,0.5-1.1,0.5h-33c-0.4,0-0.8-0.2-1.1-0.5c-0.3-0.3-0.5-0.7-0.5-1.1c0-0.4,0.1-0.9,0.4-1.2c0.3-0.3,0.7-0.5,1.2-0.5
			h2.1c0.2,0,0.4-0.2,0.4-0.4V8.9h27.9v24.4c0,0.2,0.2,0.4,0.4,0.4h2.1c0.5,0,0.9,0.2,1.2,0.5c0.3,0.3,0.5,0.7,0.4,1.2
			C39.1,35.8,38.9,36.2,38.7,36.5z M39.1,33.5c-0.5-0.4-1-0.6-1.6-0.6h-1.7V5H37c1.2,0,2.1,0.9,2.1,2.1V33.5z"/>
		
			<linearGradient id="SVGID_00000057869062278146692800000004444725704492970412_" gradientUnits="userSpaceOnUse" x1="26.5929" y1="13.9864" x2="29.2512" y2="13.9864">
			<stop  offset="0.2593" style="stop-color:#FFDB6E"/>
			<stop  offset="1" style="stop-color:#FFBC5E"/>
		</linearGradient>
		
			<linearGradient id="SVGID_00000137121021823419242350000015966958387887331518_" gradientUnits="userSpaceOnUse" x1="26.4679" y1="13.9864" x2="29.3762" y2="13.9864">
			<stop  offset="0.2593" style="stop-color:#FFDB6E"/>
			<stop  offset="1" style="stop-color:#FFBC5E"/>
		</linearGradient>
		
			<path style="fill:url(#SVGID_00000057869062278146692800000004444725704492970412_);stroke:url(#SVGID_00000137121021823419242350000015966958387887331518_);stroke-width:0.25;" d="
			M27.9,15.3c0.7,0,1.3-0.6,1.3-1.3c0-0.7-0.6-1.3-1.3-1.3s-1.3,0.6-1.3,1.3C26.6,14.7,27.2,15.3,27.9,15.3z M27.9,13.5
			c0.3,0,0.5,0.2,0.5,0.5c0,0.3-0.2,0.5-0.5,0.5c-0.3,0-0.5-0.2-0.5-0.5C27.5,13.7,27.7,13.5,27.9,13.5z"/>
		
			<linearGradient id="SVGID_00000080894325945167088530000003334098717049273770_" gradientUnits="userSpaceOnUse" x1="9.0067" y1="18.5762" x2="32.9934" y2="18.5762">
			<stop  offset="0.2593" style="stop-color:#FFDB6E"/>
			<stop  offset="1" style="stop-color:#FFBC5E"/>
		</linearGradient>
		
			<linearGradient id="SVGID_00000075144921571593370340000009461731110800680894_" gradientUnits="userSpaceOnUse" x1="8.8817" y1="18.5762" x2="33.1184" y2="18.5762">
			<stop  offset="0.2593" style="stop-color:#FFDB6E"/>
			<stop  offset="1" style="stop-color:#FFBC5E"/>
		</linearGradient>
		
			<path style="fill:url(#SVGID_00000080894325945167088530000003334098717049273770_);stroke:url(#SVGID_00000075144921571593370340000009461731110800680894_);stroke-width:0.25;" d="
			M33,18.9v-7.2c0-0.2-0.2-0.4-0.4-0.4H21.4c-0.2,0-0.4,0.2-0.4,0.4V13h-9.7c-0.2,0-0.4,0.2-0.4,0.4V15H9.4C9.2,15,9,15.2,9,15.4
			v5.1C9,20.8,9.2,21,9.4,21h1.5v4.5c0,0.2,0.2,0.4,0.4,0.4h17.3c0.2,0,0.4-0.2,0.4-0.4v-5h3.5c0.2,0,0.4-0.2,0.4-0.4V18.9
			C33,18.9,33,18.9,33,18.9z M32.1,12.1v5.7l-2.3-2.4c-0.1-0.1-0.2-0.1-0.3-0.1s-0.2,0-0.3,0.1l-1.9,2l-2.5-2.5
			c-0.1-0.1-0.2-0.1-0.3-0.1c-0.1,0-0.2,0-0.3,0.1l-2.4,2.4v-5.2H32.1z M9.9,15.9h1.4c0,0,0,0,0,0s0,0,0,0h8v4.3H9.9V15.9z M28.2,25
			H11.8v-4h8c0.2,0,0.4-0.2,0.4-0.4v-5.1c0-0.2-0.2-0.4-0.4-0.4h-8v-1.1H21v4.5c0,0,0,0,0,0V20c0,0.2,0.2,0.4,0.4,0.4h6.8V25z
			 M21.8,19.5v-0.9l2.7-2.8l2.2,2.2l-0.3,0.3c-0.2,0.2-0.2,0.4,0,0.6c0.2,0.2,0.4,0.2,0.6,0l0.6-0.6c0,0,0,0,0,0c0,0,0,0,0,0l1.9-2
			l2.6,2.7v0.5H21.8z"/>
		
			<linearGradient id="SVGID_00000075841152090669311690000013287202468790086334_" gradientUnits="userSpaceOnUse" x1="10.892" y1="30.9439" x2="29.0802" y2="30.9439">
			<stop  offset="0.2593" style="stop-color:#FFDB6E"/>
			<stop  offset="1" style="stop-color:#FFBC5E"/>
		</linearGradient>
		
			<linearGradient id="SVGID_00000134950929851166958170000000298407735494410921_" gradientUnits="userSpaceOnUse" x1="10.767" y1="30.9439" x2="29.2052" y2="30.9439">
			<stop  offset="0.2593" style="stop-color:#FFDB6E"/>
			<stop  offset="1" style="stop-color:#FFBC5E"/>
		</linearGradient>
		
			<path style="fill:url(#SVGID_00000075841152090669311690000013287202468790086334_);stroke:url(#SVGID_00000134950929851166958170000000298407735494410921_);stroke-width:0.25;" d="
			M28.6,27.3H11.3c-0.2,0-0.4,0.2-0.4,0.4v6.4c0,0.2,0.2,0.4,0.4,0.4h17.3c0.2,0,0.4-0.2,0.4-0.4v-6.4
			C29.1,27.5,28.9,27.3,28.6,27.3z M28.2,33.7H11.8v-5.6h16.5V33.7z"/>
		
			<linearGradient id="SVGID_00000104680495035522984320000011734543305095890854_" gradientUnits="userSpaceOnUse" x1="16.5307" y1="30.9438" x2="18.9283" y2="30.9438">
			<stop  offset="0.2593" style="stop-color:#FFDB6E"/>
			<stop  offset="1" style="stop-color:#FFBC5E"/>
		</linearGradient>
		
			<linearGradient id="SVGID_00000075138924109388911310000002093068876220675458_" gradientUnits="userSpaceOnUse" x1="16.4057" y1="30.9438" x2="19.0533" y2="30.9438">
			<stop  offset="0.2593" style="stop-color:#FFDB6E"/>
			<stop  offset="1" style="stop-color:#FFBC5E"/>
		</linearGradient>
		
			<path style="fill:url(#SVGID_00000104680495035522984320000011734543305095890854_);stroke:url(#SVGID_00000075138924109388911310000002093068876220675458_);stroke-width:0.25;" d="
			M18.2,32.5c0.1,0.1,0.2,0.1,0.3,0.1c0.1,0,0.3-0.1,0.3-0.2c0.1-0.2,0.1-0.5-0.1-0.6l-1.1-0.8l1.1-0.8c0.2-0.1,0.2-0.4,0.1-0.6
			c-0.1-0.2-0.4-0.2-0.6-0.1l-1.5,1.2c-0.1,0.1-0.2,0.2-0.2,0.3s0.1,0.3,0.2,0.3L18.2,32.5z"/>
		
			<linearGradient id="SVGID_00000061447025226570817720000013509600954993604515_" gradientUnits="userSpaceOnUse" x1="18.5663" y1="22.1573" x2="27.0765" y2="22.1573">
			<stop  offset="0.2593" style="stop-color:#FFDB6E"/>
			<stop  offset="1" style="stop-color:#FFBC5E"/>
		</linearGradient>
		
			<linearGradient id="SVGID_00000103231994962960905480000003198594295886743459_" gradientUnits="userSpaceOnUse" x1="18.4413" y1="22.1573" x2="27.2015" y2="22.1573">
			<stop  offset="0.2593" style="stop-color:#FFDB6E"/>
			<stop  offset="1" style="stop-color:#FFBC5E"/>
		</linearGradient>
		
			<path style="fill:url(#SVGID_00000061447025226570817720000013509600954993604515_);stroke:url(#SVGID_00000103231994962960905480000003198594295886743459_);stroke-width:0.25;" d="
			M18.6,22.2c0,0.2,0.2,0.4,0.4,0.4h7.6c0.2,0,0.4-0.2,0.4-0.4c0-0.2-0.2-0.4-0.4-0.4H19C18.8,21.7,18.6,21.9,18.6,22.2z"/>
		
			<linearGradient id="SVGID_00000157309225662578545920000000142131918415552421_" gradientUnits="userSpaceOnUse" x1="18.9947" y1="30.9436" x2="20.9758" y2="30.9436">
			<stop  offset="0.2593" style="stop-color:#FFDB6E"/>
			<stop  offset="1" style="stop-color:#FFBC5E"/>
		</linearGradient>
		
			<linearGradient id="SVGID_00000102531970432074591080000012654810832738317715_" gradientUnits="userSpaceOnUse" x1="18.8697" y1="30.9436" x2="21.1008" y2="30.9436">
			<stop  offset="0.2593" style="stop-color:#FFDB6E"/>
			<stop  offset="1" style="stop-color:#FFBC5E"/>
		</linearGradient>
		
			<path style="fill:url(#SVGID_00000157309225662578545920000000142131918415552421_);stroke:url(#SVGID_00000102531970432074591080000012654810832738317715_);stroke-width:0.25;" d="
			M19.3,33.4c0,0,0.1,0,0.1,0c0.2,0,0.4-0.1,0.4-0.3L21,29c0.1-0.2-0.1-0.5-0.3-0.5c-0.2-0.1-0.5,0.1-0.5,0.3L19,32.9
			C18.9,33.1,19.1,33.4,19.3,33.4z"/>
		
			<linearGradient id="SVGID_00000006683678134108648520000017184202076207740043_" gradientUnits="userSpaceOnUse" x1="12.8956" y1="22.1573" x2="17.9012" y2="22.1573">
			<stop  offset="0.2593" style="stop-color:#FFDB6E"/>
			<stop  offset="1" style="stop-color:#FFBC5E"/>
		</linearGradient>
		
			<linearGradient id="SVGID_00000135681833356470740680000002275439635567723138_" gradientUnits="userSpaceOnUse" x1="12.7706" y1="22.1573" x2="18.0262" y2="22.1573">
			<stop  offset="0.2593" style="stop-color:#FFDB6E"/>
			<stop  offset="1" style="stop-color:#FFBC5E"/>
		</linearGradient>
		
			<path style="fill:url(#SVGID_00000006683678134108648520000017184202076207740043_);stroke:url(#SVGID_00000135681833356470740680000002275439635567723138_);stroke-width:0.25;" d="
			M13.3,22.6h4.1c0.2,0,0.4-0.2,0.4-0.4c0-0.2-0.2-0.4-0.4-0.4h-4.1c-0.2,0-0.4,0.2-0.4,0.4C12.9,22.4,13.1,22.6,13.3,22.6z"/>
		
			<linearGradient id="SVGID_00000170280268988511920220000000541745306795621272_" gradientUnits="userSpaceOnUse" x1="21.0439" y1="30.944" x2="23.4415" y2="30.944">
			<stop  offset="0.2593" style="stop-color:#FFDB6E"/>
			<stop  offset="1" style="stop-color:#FFBC5E"/>
		</linearGradient>
		
			<linearGradient id="SVGID_00000088841594642083791080000009942141669972010405_" gradientUnits="userSpaceOnUse" x1="20.9189" y1="30.944" x2="23.5665" y2="30.944">
			<stop  offset="0.2593" style="stop-color:#FFDB6E"/>
			<stop  offset="1" style="stop-color:#FFBC5E"/>
		</linearGradient>
		
			<path style="fill:url(#SVGID_00000170280268988511920220000000541745306795621272_);stroke:url(#SVGID_00000088841594642083791080000009942141669972010405_);stroke-width:0.25;" d="
			M21.1,32.4c0.1,0.1,0.2,0.2,0.3,0.2c0.1,0,0.2,0,0.3-0.1l1.5-1.2c0.1-0.1,0.2-0.2,0.2-0.3s-0.1-0.3-0.2-0.3l-1.5-1.2
			c-0.2-0.1-0.5-0.1-0.6,0.1C21,29.7,21,30,21.2,30.1l1.1,0.8l-1.1,0.8C21,31.9,21,32.2,21.1,32.4z"/>
		
			<linearGradient id="SVGID_00000129202449838217029460000006588425098315646095_" gradientUnits="userSpaceOnUse" x1="10.4291" y1="17.1301" x2="12.8577" y2="17.1301">
			<stop  offset="0.2593" style="stop-color:#FFDB6E"/>
			<stop  offset="1" style="stop-color:#FFBC5E"/>
		</linearGradient>
		
			<linearGradient id="SVGID_00000163071519675855029840000002257609560073352870_" gradientUnits="userSpaceOnUse" x1="10.3041" y1="17.1301" x2="12.9827" y2="17.1301">
			<stop  offset="0.2593" style="stop-color:#FFDB6E"/>
			<stop  offset="1" style="stop-color:#FFBC5E"/>
		</linearGradient>
		
			<path style="fill:url(#SVGID_00000129202449838217029460000006588425098315646095_);stroke:url(#SVGID_00000163071519675855029840000002257609560073352870_);stroke-width:0.25;" d="
			M10.9,17.6h1.6c0.2,0,0.4-0.2,0.4-0.4c0-0.2-0.2-0.4-0.4-0.4h-1.6c-0.2,0-0.4,0.2-0.4,0.4C10.4,17.4,10.6,17.6,10.9,17.6z"/>
		
			<linearGradient id="SVGID_00000134927863790904831030000006388695787390009256_" gradientUnits="userSpaceOnUse" x1="13.5952" y1="17.1301" x2="18.7278" y2="17.1301">
			<stop  offset="0.2593" style="stop-color:#FFDB6E"/>
			<stop  offset="1" style="stop-color:#FFBC5E"/>
		</linearGradient>
		
			<linearGradient id="SVGID_00000178183413840692944350000000951177711795099810_" gradientUnits="userSpaceOnUse" x1="13.4702" y1="17.1301" x2="18.8528" y2="17.1301">
			<stop  offset="0.2593" style="stop-color:#FFDB6E"/>
			<stop  offset="1" style="stop-color:#FFBC5E"/>
		</linearGradient>
		
			<path style="fill:url(#SVGID_00000134927863790904831030000006388695787390009256_);stroke:url(#SVGID_00000178183413840692944350000000951177711795099810_);stroke-width:0.25;" d="
			M14,17.6h4.3c0.2,0,0.4-0.2,0.4-0.4c0-0.2-0.2-0.4-0.4-0.4H14c-0.2,0-0.4,0.2-0.4,0.4C13.6,17.4,13.8,17.6,14,17.6z"/>
		
			<linearGradient id="SVGID_00000140727991898118162130000011746169506916487812_" gradientUnits="userSpaceOnUse" x1="10.4291" y1="18.8375" x2="15.7042" y2="18.8375">
			<stop  offset="0.2593" style="stop-color:#FFDB6E"/>
			<stop  offset="1" style="stop-color:#FFBC5E"/>
		</linearGradient>
		
			<linearGradient id="SVGID_00000016041976276021750280000016786043138337746602_" gradientUnits="userSpaceOnUse" x1="10.3041" y1="18.8375" x2="15.8292" y2="18.8375">
			<stop  offset="0.2593" style="stop-color:#FFDB6E"/>
			<stop  offset="1" style="stop-color:#FFBC5E"/>
		</linearGradient>
		
			<path style="fill:url(#SVGID_00000140727991898118162130000011746169506916487812_);stroke:url(#SVGID_00000016041976276021750280000016786043138337746602_);stroke-width:0.25;" d="
			M15.7,18.8c0-0.2-0.2-0.4-0.4-0.4h-4.4c-0.2,0-0.4,0.2-0.4,0.4s0.2,0.4,0.4,0.4h4.4C15.5,19.3,15.7,19.1,15.7,18.8z"/>
		
			<linearGradient id="SVGID_00000127044818092523141470000002054614549718987961_" gradientUnits="userSpaceOnUse" x1="16.2629" y1="18.8375" x2="18.7278" y2="18.8375">
			<stop  offset="0.2593" style="stop-color:#FFDB6E"/>
			<stop  offset="1" style="stop-color:#FFBC5E"/>
		</linearGradient>
		
			<linearGradient id="SVGID_00000075852931220713905210000002527167739123054527_" gradientUnits="userSpaceOnUse" x1="16.1379" y1="18.8375" x2="18.8528" y2="18.8375">
			<stop  offset="0.2593" style="stop-color:#FFDB6E"/>
			<stop  offset="1" style="stop-color:#FFBC5E"/>
		</linearGradient>
		
			<path style="fill:url(#SVGID_00000127044818092523141470000002054614549718987961_);stroke:url(#SVGID_00000075852931220713905210000002527167739123054527_);stroke-width:0.25;" d="
			M18.3,18.4h-1.6c-0.2,0-0.4,0.2-0.4,0.4s0.2,0.4,0.4,0.4h1.6c0.2,0,0.4-0.2,0.4-0.4S18.5,18.4,18.3,18.4z"/>
		
			<linearGradient id="SVGID_00000149350584181128492220000010353684879729689766_" gradientUnits="userSpaceOnUse" x1="12.8956" y1="23.8655" x2="22.697" y2="23.8655">
			<stop  offset="0.2593" style="stop-color:#FFDB6E"/>
			<stop  offset="1" style="stop-color:#FFBC5E"/>
		</linearGradient>
		
			<linearGradient id="SVGID_00000071529812044711615100000014957960467461102990_" gradientUnits="userSpaceOnUse" x1="12.7706" y1="23.8655" x2="22.822" y2="23.8655">
			<stop  offset="0.2593" style="stop-color:#FFDB6E"/>
			<stop  offset="1" style="stop-color:#FFBC5E"/>
		</linearGradient>
		
			<path style="fill:url(#SVGID_00000149350584181128492220000010353684879729689766_);stroke:url(#SVGID_00000071529812044711615100000014957960467461102990_);stroke-width:0.25;" d="
			M22.3,23.4h-8.9c-0.2,0-0.4,0.2-0.4,0.4s0.2,0.4,0.4,0.4h8.9c0.2,0,0.4-0.2,0.4-0.4S22.5,23.4,22.3,23.4z"/>
		
			<linearGradient id="SVGID_00000165227438746107356440000015262858923533733015_" gradientUnits="userSpaceOnUse" x1="23.3456" y1="23.8655" x2="27.0765" y2="23.8655">
			<stop  offset="0.2593" style="stop-color:#FFDB6E"/>
			<stop  offset="1" style="stop-color:#FFBC5E"/>
		</linearGradient>
		
			<linearGradient id="SVGID_00000085221644325080454120000003977703774404629182_" gradientUnits="userSpaceOnUse" x1="23.2206" y1="23.8655" x2="27.2015" y2="23.8655">
			<stop  offset="0.2593" style="stop-color:#FFDB6E"/>
			<stop  offset="1" style="stop-color:#FFBC5E"/>
		</linearGradient>
		
			<path style="fill:url(#SVGID_00000165227438746107356440000015262858923533733015_);stroke:url(#SVGID_00000085221644325080454120000003977703774404629182_);stroke-width:0.25;" d="
			M26.6,23.4h-2.9c-0.2,0-0.4,0.2-0.4,0.4s0.2,0.4,0.4,0.4h2.9c0.2,0,0.4-0.2,0.4-0.4S26.9,23.4,26.6,23.4z"/>
	</g>
</g>
</svg>
