<?xml version="1.0" encoding="utf-8"?>
<!-- Generator: Adobe Illustrator 28.1.0, SVG Export Plug-In . SVG Version: 6.00 Build 0)  -->
<svg version="1.1" id="Layer_1" xmlns="http://www.w3.org/2000/svg" xmlns:xlink="http://www.w3.org/1999/xlink" x="0px" y="0px"
	 viewBox="0 0 42 42" style="enable-background:new 0 0 42 42;" xml:space="preserve">
<style type="text/css">
	.st0{opacity:0.15;fill:url(#SVGID_1_);enable-background:new    ;}
	
		.st1{fill:url(#SVGID_00000002367088450417979760000007547482920415523486_);stroke:url(#SVGID_00000109024013525158012190000009589443592582399901_);stroke-width:0.25;}
	
		.st2{fill:url(#SVGID_00000046335413529005066050000011601777562298438326_);stroke:url(#SVGID_00000118387014084982691970000011631090059740112272_);stroke-width:0.25;}
	.st3{opacity:0.15;fill:url(#SVGID_00000091715039932721443790000016818016532452327351_);enable-background:new    ;}
	
		.st4{fill:url(#SVGID_00000075868669290730338920000004486949795010612626_);stroke:url(#SVGID_00000160908255279135151200000016936540428736465323_);stroke-width:0.25;}
	.st5{opacity:0.15;fill:url(#SVGID_00000135665134859693139970000001899570884844455606_);enable-background:new    ;}
	
		.st6{fill:url(#SVGID_00000018222848829385264970000005353763382799229620_);stroke:url(#SVGID_00000116933726799946728300000002394105288000290738_);stroke-width:0.25;}
	.st7{opacity:0.15;fill:url(#SVGID_00000078024029450140123830000005515645634235466423_);enable-background:new    ;}
	.st8{opacity:0.15;fill:url(#SVGID_00000142177734674523063150000008406902353218719626_);enable-background:new    ;}
	.st9{opacity:0.15;fill:url(#SVGID_00000119839114393540949720000015825711354515342222_);enable-background:new    ;}
</style>
<g>
	<linearGradient id="SVGID_1_" gradientUnits="userSpaceOnUse" x1="2.25" y1="19.75" x2="39.75" y2="19.75">
		<stop  offset="0.2593" style="stop-color:#FFDB6E"/>
		<stop  offset="1" style="stop-color:#FFBC5E"/>
	</linearGradient>
	<path class="st0" d="M2.9,8.8h36.2c0.3,0,0.6,0.3,0.6,0.6v20.6c0,0.3-0.3,0.6-0.6,0.6H2.9c-0.3,0-0.6-0.3-0.6-0.6V9.4
		C2.2,9.1,2.5,8.8,2.9,8.8z"/>
	
		<linearGradient id="SVGID_00000150801474131453697800000000590489755442172339_" gradientUnits="userSpaceOnUse" x1="1" y1="21" x2="41" y2="21">
		<stop  offset="0.2593" style="stop-color:#FFDB6E"/>
		<stop  offset="1" style="stop-color:#FFBC5E"/>
	</linearGradient>
	
		<linearGradient id="SVGID_00000031886162902611393040000000678400316333202055_" gradientUnits="userSpaceOnUse" x1="0.875" y1="21" x2="41.125" y2="21">
		<stop  offset="0.2593" style="stop-color:#FFDB6E"/>
		<stop  offset="1" style="stop-color:#FFBC5E"/>
	</linearGradient>
	
		<path style="fill:url(#SVGID_00000150801474131453697800000000590489755442172339_);stroke:url(#SVGID_00000031886162902611393040000000678400316333202055_);stroke-width:0.25;" d="
		M39.1,7.6H2.9C1.8,7.6,1,8.4,1,9.4v20.6c0,1,0.8,1.9,1.9,1.9h14.1v1.2h-5c-0.3,0-0.6,0.3-0.6,0.6s0.3,0.6,0.6,0.6h18.1
		c0.3,0,0.6-0.3,0.6-0.6s-0.3-0.6-0.6-0.6h-5v-1.2h14.1c1,0,1.9-0.8,1.9-1.9V9.4C41,8.4,40.2,7.6,39.1,7.6z M23.8,33.2h-5.6v-1.2
		h5.6V33.2z M39.8,30.1c0,0.3-0.3,0.6-0.6,0.6H2.9c-0.3,0-0.6-0.3-0.6-0.6V9.4c0-0.3,0.3-0.6,0.6-0.6h36.2c0.3,0,0.6,0.3,0.6,0.6
		V30.1z"/>
	
		<linearGradient id="SVGID_00000038412659454704278470000007326731939637482880_" gradientUnits="userSpaceOnUse" x1="4.125" y1="19.75" x2="14.125" y2="19.75">
		<stop  offset="0.2593" style="stop-color:#FFDB6E"/>
		<stop  offset="1" style="stop-color:#FFBC5E"/>
	</linearGradient>
	
		<linearGradient id="SVGID_00000109007579331511979830000002265360224950096806_" gradientUnits="userSpaceOnUse" x1="4" y1="19.75" x2="14.25" y2="19.75">
		<stop  offset="0.2593" style="stop-color:#FFDB6E"/>
		<stop  offset="1" style="stop-color:#FFBC5E"/>
	</linearGradient>
	
		<path style="fill:url(#SVGID_00000038412659454704278470000007326731939637482880_);stroke:url(#SVGID_00000109007579331511979830000002265360224950096806_);stroke-width:0.25;" d="
		M9.1,14.8c-2.8,0-5,2.2-5,5s2.2,5,5,5s5-2.2,5-5C14.1,17,11.9,14.8,9.1,14.8z M9.1,23.5c-2.1,0-3.8-1.7-3.8-3.8S7.1,16,9.1,16
		s3.8,1.7,3.8,3.8C12.9,21.8,11.2,23.5,9.1,23.5z"/>
	
		<linearGradient id="SVGID_00000023261984590701185900000001597016200155819412_" gradientUnits="userSpaceOnUse" x1="5.375" y1="19.75" x2="12.875" y2="19.75">
		<stop  offset="0.2593" style="stop-color:#FFDB6E"/>
		<stop  offset="1" style="stop-color:#FFBC5E"/>
	</linearGradient>
	<path style="opacity:0.15;fill:url(#SVGID_00000023261984590701185900000001597016200155819412_);enable-background:new    ;" d="
		M9.1,16c-2.1,0-3.8,1.7-3.8,3.8s1.7,3.8,3.8,3.8s3.8-1.7,3.8-3.8C12.9,17.7,11.2,16,9.1,16z M9.1,21.9c-1.2,0-2.2-1-2.2-2.2
		s1-2.2,2.2-2.2s2.2,1,2.2,2.2C11.3,21,10.3,21.9,9.1,21.9z"/>
	
		<linearGradient id="SVGID_00000063593604155528182910000009773029287723717539_" gradientUnits="userSpaceOnUse" x1="6.9375" y1="19.4375" x2="37.875" y2="19.4375">
		<stop  offset="0.2593" style="stop-color:#FFDB6E"/>
		<stop  offset="1" style="stop-color:#FFBC5E"/>
	</linearGradient>
	
		<linearGradient id="SVGID_00000157310149909142949340000016393961905004506558_" gradientUnits="userSpaceOnUse" x1="6.8125" y1="19.4375" x2="38" y2="19.4375">
		<stop  offset="0.2593" style="stop-color:#FFDB6E"/>
		<stop  offset="1" style="stop-color:#FFBC5E"/>
	</linearGradient>
	
		<path style="fill:url(#SVGID_00000063593604155528182910000009773029287723717539_);stroke:url(#SVGID_00000157310149909142949340000016393961905004506558_);stroke-width:0.25;" d="
		M9.1,17.6c-1.2,0-2.2,1-2.2,2.2s1,2.2,2.2,2.2s2.2-1,2.2-2.2C11.3,18.5,10.3,17.6,9.1,17.6z M9.1,20.7c-0.5,0-0.9-0.4-0.9-0.9
		s0.4-0.9,0.9-0.9s0.9,0.4,0.9,0.9C10.1,20.3,9.6,20.7,9.1,20.7z M37.2,14.4h-2.5c-0.3,0-0.6,0.3-0.6,0.6v5.6h-5.6
		c-0.3,0-0.6,0.3-0.6,0.6v2.5c0,0.3,0.3,0.6,0.6,0.6h8.8c0.3,0,0.6-0.3,0.6-0.6v-8.8C37.9,14.7,37.6,14.4,37.2,14.4z M36.6,23.2
		h-7.5v-1.2h5.6c0.3,0,0.6-0.3,0.6-0.6v-5.6h1.2V23.2z"/>
	
		<linearGradient id="SVGID_00000092446169440031158640000011593910580791872143_" gradientUnits="userSpaceOnUse" x1="29.125" y1="19.4375" x2="36.625" y2="19.4375">
		<stop  offset="0.2593" style="stop-color:#FFDB6E"/>
		<stop  offset="1" style="stop-color:#FFBC5E"/>
	</linearGradient>
	<path style="opacity:0.15;fill:url(#SVGID_00000092446169440031158640000011593910580791872143_);enable-background:new    ;" d="
		M36.6,15.7v7.5h-7.5v-1.2h5.6c0.3,0,0.6-0.3,0.6-0.6v-5.6H36.6z"/>
	
		<linearGradient id="SVGID_00000156570947824459686880000017402062925678571138_" gradientUnits="userSpaceOnUse" x1="15.9984" y1="19.7488" x2="32.875" y2="19.7488">
		<stop  offset="0.2593" style="stop-color:#FFDB6E"/>
		<stop  offset="1" style="stop-color:#FFBC5E"/>
	</linearGradient>
	
		<linearGradient id="SVGID_00000162349161143170235280000004223634095127070640_" gradientUnits="userSpaceOnUse" x1="15.8734" y1="19.7488" x2="33" y2="19.7488">
		<stop  offset="0.2593" style="stop-color:#FFDB6E"/>
		<stop  offset="1" style="stop-color:#FFBC5E"/>
	</linearGradient>
	
		<path style="fill:url(#SVGID_00000156570947824459686880000017402062925678571138_);stroke:url(#SVGID_00000162349161143170235280000004223634095127070640_);stroke-width:0.25;" d="
		M28.5,19.4h0.6c0.3,0,0.6-0.3,0.6-0.6s-0.3-0.6-0.6-0.6h-0.6c-0.3,0-0.6,0.3-0.6,0.6S28.2,19.4,28.5,19.4z M28.5,16.9h0.6
		c0.3,0,0.6-0.3,0.6-0.6c0-0.3-0.3-0.6-0.6-0.6h-0.6c-0.3,0-0.6,0.3-0.6,0.6C27.9,16.7,28.2,16.9,28.5,16.9z M31.6,19.4h0.6
		c0.3,0,0.6-0.3,0.6-0.6s-0.3-0.6-0.6-0.6h-0.6c-0.3,0-0.6,0.3-0.6,0.6S31.3,19.4,31.6,19.4z M31.6,16.9h0.6c0.3,0,0.6-0.3,0.6-0.6
		c0-0.3-0.3-0.6-0.6-0.6h-0.6c-0.3,0-0.6,0.3-0.6,0.6C31,16.7,31.3,16.9,31.6,16.9z M25.5,16.6l-4.1-2.3c-0.3-0.2-0.6-0.2-0.9,0
		c0,0-4.1,2.3-4.1,2.3c-0.3,0.2-0.5,0.5-0.5,0.8v4.7c0,0.3,0.2,0.6,0.5,0.8l4.1,2.3c0.3,0.2,0.6,0.2,0.9,0l4.1-2.3
		c0.3-0.2,0.5-0.5,0.5-0.8v-4.7C26,17.1,25.8,16.8,25.5,16.6z M20.4,23.7l-3.1-1.8v-3.6l3.1,1.8V23.7z M21,19.1l-3.2-1.8l3.2-1.8
		l3.2,1.8L21,19.1z M24.8,21.9l-3.1,1.8v-3.6l3.1-1.8V21.9z"/>
	
		<linearGradient id="SVGID_00000129176028287472775470000013862002034571297968_" gradientUnits="userSpaceOnUse" x1="21.625" y1="21.0266" x2="24.75" y2="21.0266">
		<stop  offset="0.2593" style="stop-color:#FFDB6E"/>
		<stop  offset="1" style="stop-color:#FFBC5E"/>
	</linearGradient>
	
		<polygon style="opacity:0.15;fill:url(#SVGID_00000129176028287472775470000013862002034571297968_);enable-background:new    ;" points="
		24.8,18.3 24.8,21.9 21.6,23.7 21.6,20.2 	"/>
	
		<linearGradient id="SVGID_00000030487155488388167410000009280362506859429504_" gradientUnits="userSpaceOnUse" x1="17.25" y1="21.0266" x2="20.375" y2="21.0266">
		<stop  offset="0.2593" style="stop-color:#FFDB6E"/>
		<stop  offset="1" style="stop-color:#FFBC5E"/>
	</linearGradient>
	
		<polygon style="opacity:0.15;fill:url(#SVGID_00000030487155488388167410000009280362506859429504_);enable-background:new    ;" points="
		20.4,20.2 20.4,23.7 17.2,21.9 17.2,18.3 	"/>
	
		<linearGradient id="SVGID_00000079467822016602239120000002838758302850696876_" gradientUnits="userSpaceOnUse" x1="17.85" y1="17.2484" x2="24.15" y2="17.2484">
		<stop  offset="0.2593" style="stop-color:#FFDB6E"/>
		<stop  offset="1" style="stop-color:#FFBC5E"/>
	</linearGradient>
	
		<polygon style="opacity:0.15;fill:url(#SVGID_00000079467822016602239120000002838758302850696876_);enable-background:new    ;" points="
		24.2,17.2 21,19.1 17.8,17.2 21,15.4 	"/>
</g>
</svg>
