<svg xmlns="http://www.w3.org/2000/svg" xmlns:xlink="http://www.w3.org/1999/xlink" viewBox="0 0 155.91 155.91"><defs><style>.cls-1{fill:none;}.cls-2{clip-path:url(#clip-path);}.cls-3{fill:url(#radial-gradient);}.cls-4{opacity:0.15;}.cls-5,.cls-6{fill:#fff;}.cls-6{fill-rule:evenodd;}</style><clipPath id="clip-path"><path class="cls-1" d="M78,3.21C73.39,3.21,68.64-.65,64.42.1S56.9,6.16,52.74,7.7a18.29,18.29,0,0,1-6.47.66C43.62,8.33,41,8.3,39,9.49c-3.78,2.22-5,8.29-8.39,11.2S21,23.76,18.24,27.14s-1.88,9.5-4.14,13.44S6.18,46.74,4.69,50.91s1.44,9.53.66,14S0,73.46,0,78s4.59,8.59,5.35,13-2.14,10-.66,14.06,7.19,6.42,9.41,10.33,1.35,10.07,4.14,13.43,8.91,3.53,12.34,6.45,4.61,9,8.39,11.21c2,1.19,4.65,1.16,7.3,1.12a18.52,18.52,0,0,1,6.47.67c4.16,1.54,7.34,6.83,11.68,7.6a5,5,0,0,0,.94.09h.38c3.88-.09,8.12-3.2,12.21-3.2s8.34,3.11,12.22,3.2h.38a4.91,4.91,0,0,0,.94-.09c4.34-.77,7.52-6.06,11.68-7.6a18.52,18.52,0,0,1,6.47-.67c2.65,0,5.27.07,7.3-1.12,3.78-2.22,5-8.29,8.39-11.21s9.54-3.06,12.34-6.45,1.88-9.49,4.13-13.43,7.93-6.16,9.43-10.33-1.45-9.53-.67-14.06c.75-4.34,5.22-8.38,5.35-12.8v-.37c-.13-4.42-4.6-8.46-5.35-12.81-.78-4.52,2.14-9.95.67-14s-7.2-6.42-9.43-10.33-1.33-10.07-4.13-13.44-8.9-3.52-12.34-6.45-4.61-9-8.39-11.2c-2-1.19-4.65-1.16-7.3-1.13a18.29,18.29,0,0,1-6.47-.66C99,6.16,95.83.87,91.49.1A6.09,6.09,0,0,0,90.36,0C86.43,0,82.11,3.21,78,3.21"/></clipPath><radialGradient id="radial-gradient" cx="586.35" cy="700.32" r="1" gradientTransform="matrix(0, 113.08, 113.08, 0, -79115.91, -66257.18)" gradientUnits="userSpaceOnUse"><stop offset="0" stop-color="#c4d2d9"/><stop offset="0.56" stop-color="#8c969d"/><stop offset="1" stop-color="#43525a"/></radialGradient></defs><g id="Layer_2" data-name="Layer 2"><g id="Layer_1-2" data-name="Layer 1"><g class="cls-2"><rect class="cls-3" x="-32.29" y="-32.64" width="220.48" height="220.54" transform="translate(-31.85 70.94) rotate(-41.4)"/></g><g class="cls-4"><path class="cls-5" d="M109.71,147.54C103.14,89.17,74.57,55,13.19,41.88c-2.58,3.15-7.18,5.34-8.5,9-1.48,4.1,1.44,9.53.66,14S0,73.46,0,78s4.59,8.59,5.35,13-2.14,10-.66,14.06,7.19,6.42,9.41,10.33,1.35,10.07,4.14,13.43,8.91,3.53,12.33,6.45,4.62,9,8.4,11.21,9.53.22,13.77,1.79,7.34,6.83,11.68,7.6,9-3.11,13.53-3.11,9.32,3.86,13.54,3.11,7.52-6.06,11.68-7.6a18.68,18.68,0,0,1,6.54-.67"/></g><path class="cls-5" d="M36,36.08c-.35.26-.73.57-1.13.93s-.75.73-1.06,1.08A4.42,4.42,0,0,0,33,39.38a2.28,2.28,0,0,0-.1,1.32,3.84,3.84,0,0,0,.7,1.45,10.87,10.87,0,0,0,1.63,1.7,11.06,11.06,0,0,0,2,1.41,3.86,3.86,0,0,0,1.57.49,2.26,2.26,0,0,0,1.3-.31,4.65,4.65,0,0,0,1.17-1,10.29,10.29,0,0,0,.9-1.21q.44-.69.78-1.32l1.2.85a10.09,10.09,0,0,1-.82,1.39,15.6,15.6,0,0,1-1,1.29A7.65,7.65,0,0,1,40.59,47a4.06,4.06,0,0,1-1.92.61,4.77,4.77,0,0,1-2.19-.47A10.63,10.63,0,0,1,34,45.39a10.81,10.81,0,0,1-2.05-2.26,4.76,4.76,0,0,1-.76-2.1,4,4,0,0,1,.36-2,8.37,8.37,0,0,1,1.31-2,15.29,15.29,0,0,1,1.13-1.15c.4-.37.78-.69,1.13-1Z"/><path class="cls-5" d="M45.52,26.48l.85,1.18L42,30.85l2.23,3.08,4-2.87L49,32.24l-4,2.87,1.56,2.16a1.26,1.26,0,0,0,1,.64,2.05,2.05,0,0,0,1.17-.46l3.23-2.34.86,1.18-3.29,2.38a4.31,4.31,0,0,1-2.52,1,2.56,2.56,0,0,1-2.06-1.25l-5.5-7.58Z"/><path class="cls-5" d="M55,21.73a10.58,10.58,0,0,1,1.95-.6,3.88,3.88,0,0,1,1.6,0,2.67,2.67,0,0,1,1.26.76,4.68,4.68,0,0,1,1,1.57,4.17,4.17,0,0,1,.32,1.26A3.17,3.17,0,0,1,61,25.8a3,3,0,0,1-.45.89,4.6,4.6,0,0,1-.72.75,2.21,2.21,0,0,1,1.27.32,5.65,5.65,0,0,1,1.15,1l2.16,2.39-1.87.76-1.87-2.05c-.22-.23-.42-.43-.63-.61a2.67,2.67,0,0,0-.65-.42,1.61,1.61,0,0,0-.73-.14,2.33,2.33,0,0,0-.88.19c-.27.11-.55.22-.85.32a6.81,6.81,0,0,1-.94.25l1.79,4.4L56,34.6,51.35,23.22Zm.42,6.41c.36-.08.69-.17,1-.27a9,9,0,0,0,.88-.32,3.14,3.14,0,0,0,1.8-1.37A2.46,2.46,0,0,0,59,24.23a3.81,3.81,0,0,0-.58-1,1.61,1.61,0,0,0-.73-.48,1.92,1.92,0,0,0-.93,0,6,6,0,0,0-1.18.37l-1.88.76Z"/><path class="cls-5" d="M73.74,17.18,74,18.63l-4,.6,1.62,10.7-1.92.29-1.62-10.7-4,.6-.22-1.44Z"/><path class="cls-5" d="M81.16,17.32,80.71,29.6l-1.94-.07.45-12.28Z"/><path class="cls-5" d="M95.45,19.65l-.32,1.43-5.39-1.21-.88,3.92,4.72,1.07-.32,1.42-4.72-1.06-1.17,5.21L85.48,30l2.69-12Z"/><path class="cls-5" d="M102.88,22.58,98,33.86l-1.78-.77,4.87-11.28Z"/><path class="cls-5" d="M115.15,29.81,114.33,31l-4.5-3-2.13,3.15,4.06,2.75-.82,1.2-4-2.74-1.5,2.21a1.28,1.28,0,0,0-.25,1.18,2.06,2.06,0,0,0,.84,1l3.31,2.24-.82,1.21-3.37-2.28a4.31,4.31,0,0,1-1.77-2,2.58,2.58,0,0,1,.47-2.38L109,25.68Z"/><path class="cls-5" d="M123,37.22a7.1,7.1,0,0,1,1.3,2,4,4,0,0,1,.34,2,4.78,4.78,0,0,1-.68,2,9,9,0,0,1-1.76,2.08,11.78,11.78,0,0,1-2.22,1.6,5,5,0,0,1-2.17.62,4.25,4.25,0,0,1-2.14-.47,7.31,7.31,0,0,1-2.14-1.72,17.81,17.81,0,0,1-1.18-1.48c-.38-.54-.73-1.11-1.08-1.73l9-8Zm-9.56,5.61a10.85,10.85,0,0,0,1.22,1.61,3.29,3.29,0,0,0,2.78,1.3,6.47,6.47,0,0,0,3.41-1.87,7.89,7.89,0,0,0,1.41-1.59,4,4,0,0,0,.61-1.46,2.7,2.7,0,0,0-.14-1.35,4.24,4.24,0,0,0-.81-1.27l-1.48-1.65Z"/><path class="cls-5" d="M35.28,103.21a8,8,0,0,1,.77,1.65,3.3,3.3,0,0,1,.17,1.43,2.59,2.59,0,0,1-.52,1.22,4.48,4.48,0,0,1-1.29,1.07,4.34,4.34,0,0,1-1.57.6,2.73,2.73,0,0,1-1.37-.13,3.53,3.53,0,0,1-1.18-.8,7.11,7.11,0,0,1-1-1.35,12,12,0,0,1-.82-1.75l-3.54,2.09L24,105.75l9.44-5.59Zm-5.72,1.28a9.77,9.77,0,0,0,.74,1.59,2.73,2.73,0,0,0,1.48,1.39,2.28,2.28,0,0,0,1.74-.38,3.28,3.28,0,0,0,.83-.65,1.45,1.45,0,0,0,.36-.72,1.92,1.92,0,0,0-.08-.84,5.15,5.15,0,0,0-.47-1l-.93-1.56Z"/><path class="cls-5" d="M40.9,110.9A8.92,8.92,0,0,1,42,112.36a3.17,3.17,0,0,1,.45,1.35,2.45,2.45,0,0,1-.25,1.29,4.47,4.47,0,0,1-1,1.28,3.31,3.31,0,0,1-1,.64,2.65,2.65,0,0,1-.92.23,2.58,2.58,0,0,1-.87-.12,3.76,3.76,0,0,1-.85-.38,2,2,0,0,1,.11,1.17,5.16,5.16,0,0,1-.52,1.27l-1.37,2.53-1.19-1.34,1.16-2.19c.13-.25.24-.49.33-.71a2.42,2.42,0,0,0,.16-.67,1.76,1.76,0,0,0-.1-.67,2.17,2.17,0,0,0-.42-.67c-.18-.2-.35-.41-.53-.63a7.41,7.41,0,0,1-.49-.71l-3.17,2.82-1.15-1.3,8.19-7.3Zm-5.27,2.27a9.17,9.17,0,0,0,.52.76c.18.23.35.45.53.64a2.81,2.81,0,0,0,1.69,1.1A2.16,2.16,0,0,0,40,115a3.09,3.09,0,0,0,.68-.79,1.41,1.41,0,0,0,.19-.76,1.64,1.64,0,0,0-.26-.78,5.46,5.46,0,0,0-.66-.89l-1.21-1.36Z"/><path class="cls-5" d="M49.22,125.18a9.83,9.83,0,0,1-1.78,1.91,4.62,4.62,0,0,1-1.77.89,3.48,3.48,0,0,1-1.78-.07,6.16,6.16,0,0,1-1.81-.94,6.3,6.3,0,0,1-1.46-1.46,3.49,3.49,0,0,1-.6-1.68,4.51,4.51,0,0,1,.31-2,11.21,11.21,0,0,1,3.07-4.18,4.48,4.48,0,0,1,1.76-.88,3.37,3.37,0,0,1,1.78.07,5.74,5.74,0,0,1,1.83,1,6,6,0,0,1,1.44,1.45,3.23,3.23,0,0,1,.6,1.67,4.47,4.47,0,0,1-.31,2A9.69,9.69,0,0,1,49.22,125.18Zm-1.47-1.07a10,10,0,0,0,1.07-1.76,3.76,3.76,0,0,0,.36-1.41,2.15,2.15,0,0,0-.3-1.13,3.45,3.45,0,0,0-.88-.92,3.17,3.17,0,0,0-1.15-.57,2.13,2.13,0,0,0-1.17.06,3.7,3.7,0,0,0-1.24.75,10.6,10.6,0,0,0-1.36,1.55A10,10,0,0,0,42,122.45a3.73,3.73,0,0,0-.35,1.41A2.15,2.15,0,0,0,42,125a3.21,3.21,0,0,0,.89.92,3.39,3.39,0,0,0,1.14.57,2.13,2.13,0,0,0,1.17-.06,3.65,3.65,0,0,0,1.23-.76A9.59,9.59,0,0,0,47.75,124.11Z"/><path class="cls-5" d="M60.47,124.52l-.55,1.19-4.47-2.09-1.52,3.26,3.92,1.83-.55,1.18-3.92-1.83-2,4.33-1.57-.74,4.64-9.94Z"/><path class="cls-5" d="M68.9,126.84l-.32,1.26-4.7-1.21L63,130.18l4.24,1.09-.33,1.27-4.23-1.1-.6,2.3a1.16,1.16,0,0,0,.14,1.08,2,2,0,0,0,1,.55l3.46.89-.33,1.26-3.51-.91a3.87,3.87,0,0,1-2.1-1.18,2.3,2.3,0,0,1-.32-2.14l2.09-8.09Z"/><path class="cls-5" d="M77.37,129c-.16,0-.35-.09-.57-.14l-.67-.14-.71-.11c-.23,0-.44-.06-.63-.07s-.63,0-.91,0a2.58,2.58,0,0,0-.72.12,1.13,1.13,0,0,0-.48.34,1.08,1.08,0,0,0-.21.61,1.22,1.22,0,0,0,.34.88,6.49,6.49,0,0,0,1,.89c.38.31.8.62,1.25,1a10,10,0,0,1,1.25,1.07,5.16,5.16,0,0,1,.94,1.23,2.54,2.54,0,0,1,.3,1.44,2.62,2.62,0,0,1-.36,1.24,2.12,2.12,0,0,1-.82.78,3.37,3.37,0,0,1-1.22.38,8.71,8.71,0,0,1-1.55,0,9.16,9.16,0,0,1-1.91-.33,15.08,15.08,0,0,1-1.48-.49l.31-1.27c.4.15.88.31,1.41.47a7.26,7.26,0,0,0,1.74.31,3.45,3.45,0,0,0,1.46-.16,1,1,0,0,0,.64-.95,1.48,1.48,0,0,0-.34-1,6.24,6.24,0,0,0-1-1c-.39-.33-.81-.66-1.26-1a14.68,14.68,0,0,1-1.26-1.06,5.9,5.9,0,0,1-1-1.16,2.22,2.22,0,0,1-.31-1.31,2.19,2.19,0,0,1,.41-1.22,2.35,2.35,0,0,1,.92-.75,4.12,4.12,0,0,1,1.31-.35,9.3,9.3,0,0,1,1.59,0c.24,0,.49,0,.75.08l.77.11c.24,0,.47.08.67.13s.39.09.54.13Z"/><path class="cls-5" d="M86.35,128.36l-.58,0-.69,0h-.71l-.64,0c-.33,0-.63.08-.9.14a2,2,0,0,0-.68.25,1,1,0,0,0-.42.41,1,1,0,0,0-.1.64,1.23,1.23,0,0,0,.49.81,7.1,7.1,0,0,0,1.09.71l1.41.72a12.2,12.2,0,0,1,1.41.84,5.48,5.48,0,0,1,1.14,1,2.64,2.64,0,0,1,.55,1.36,2.75,2.75,0,0,1-.14,1.28,2.14,2.14,0,0,1-.68.92,3.23,3.23,0,0,1-1.14.59,8,8,0,0,1-1.52.3,8.91,8.91,0,0,1-1.93,0c-.6-.06-1.11-.14-1.54-.22l.08-1.31c.42.08.92.15,1.47.22a8,8,0,0,0,1.77,0,3.51,3.51,0,0,0,1.41-.42,1,1,0,0,0,.46-1,1.46,1.46,0,0,0-.51-.93,5.86,5.86,0,0,0-1.11-.79c-.44-.26-.91-.51-1.41-.77a14,14,0,0,1-1.43-.82,6.08,6.08,0,0,1-1.13-1,2.21,2.21,0,0,1-.54-1.24,2.36,2.36,0,0,1,.19-1.27,2.41,2.41,0,0,1,.78-.9,4.11,4.11,0,0,1,1.23-.57,9.38,9.38,0,0,1,1.56-.29c.24,0,.5,0,.76-.06l.77,0c.25,0,.48,0,.69,0l.55,0Z"/><path class="cls-5" d="M90.84,125.86l2.65,10.64-1.68.42-2.65-10.64Z"/><path class="cls-5" d="M104.05,126.7a9.3,9.3,0,0,1,.74,2.5,4.52,4.52,0,0,1-.13,2,3.34,3.34,0,0,1-1,1.5,6,6,0,0,1-1.73,1.09,6.51,6.51,0,0,1-2,.52,3.37,3.37,0,0,1-1.75-.34,4.5,4.5,0,0,1-1.52-1.26,9.34,9.34,0,0,1-1.31-2.25,9.79,9.79,0,0,1-.74-2.5,4.51,4.51,0,0,1,.13-2,3.34,3.34,0,0,1,1-1.5,6.68,6.68,0,0,1,3.73-1.61,3.47,3.47,0,0,1,1.75.33,4.65,4.65,0,0,1,1.52,1.26A9.62,9.62,0,0,1,104.05,126.7Zm-1.67.72a9.68,9.68,0,0,0-1-1.82,3.67,3.67,0,0,0-1-1,2.09,2.09,0,0,0-1.12-.31,3.14,3.14,0,0,0-1.25.29,3.26,3.26,0,0,0-1.07.7,2.12,2.12,0,0,0-.54,1,3.58,3.58,0,0,0,0,1.45,9.39,9.39,0,0,0,.64,2,9.56,9.56,0,0,0,1,1.81,3.56,3.56,0,0,0,1,1,2.22,2.22,0,0,0,1.12.32,3.39,3.39,0,0,0,1.25-.3,3.32,3.32,0,0,0,1.06-.7,2.07,2.07,0,0,0,.55-1,3.76,3.76,0,0,0,0-1.45A10.13,10.13,0,0,0,102.38,127.42Z"/><path class="cls-5" d="M104.94,119.67l8.64,1.59-3.83-5.16,1.34-1,6.54,8.81-1.34,1-1.47-2-8.19-1.45,5.08,6.84-1.34,1-6.54-8.81Z"/><path class="cls-5" d="M122.22,119.35l-1.11,1.28-5.4-4.65a5.84,5.84,0,0,1-1.09-1.22,3.1,3.1,0,0,1-.51-1.35,3.13,3.13,0,0,1,.21-1.51,7,7,0,0,1,2.6-3,3.17,3.17,0,0,1,1.48-.45,3.08,3.08,0,0,1,1.41.31,6.09,6.09,0,0,1,1.37.9l5.39,4.66-1.13,1.31L122.37,113l-3.22,3.74Zm-.84-7.24L120,110.92a4.64,4.64,0,0,0-.89-.6,2,2,0,0,0-.9-.25,1.91,1.91,0,0,0-.91.22,3.61,3.61,0,0,0-1.55,1.8,1.87,1.87,0,0,0-.08.93,2,2,0,0,0,.38.86,4.06,4.06,0,0,0,.73.78l1.37,1.19Z"/><path class="cls-5" d="M120.69,103.13l8.4,4.78,2.32-4.07,1.13.64-3.17,5.58-9.54-5.42Z"/><polygon class="cls-5" points="88.75 93.85 90.69 99.82 97.01 99.82 91.91 103.52 93.85 109.52 88.75 105.81 83.66 109.49 85.6 103.53 80.53 99.82 86.81 99.82 88.75 93.85"/><polygon class="cls-5" points="67.01 93.85 68.95 99.82 75.27 99.82 70.17 103.52 72.11 109.52 67.01 105.81 61.93 109.49 63.86 103.53 58.79 99.82 65.07 99.82 67.01 93.85"/><path class="cls-6" d="M36.49,56.17c3.07-.13,6.71.48,7.39,2.51C45,62,39.36,66.85,34.45,69.23a5.1,5.1,0,0,1-2.23.7.32.32,0,0,1-.24-.49,8.3,8.3,0,0,1,2-1.84c5.53-4,7.32-7,6.28-8.19-.67-.77-3.47-1.3-6.38-1.3-.79,0-2.86.17-3.07-.51s2.61-1.29,5.66-1.43"/><path class="cls-6" d="M29.62,71.33c2.55-.14,5.66.26,7.4,1.46a2.63,2.63,0,0,1,1.12,2.94c-1,3.55-4.76,7.85-13.1,11.16-2.65,1-4.74,1.45-5.18,1.17s.9-2.65,1.31-3.43a62.9,62.9,0,0,1,4.62-7.22c.6-.83,1.52-2.27,2.36-2.15s-.13,1.63-.71,2.6c-1,1.62-3.63,6.14-2.75,6.41,1.94.6,11.06-5.62,9.72-9.08-.63-1.61-4.59-1.76-7.08-1.76-1.14,0-3.61.24-3.75-.54s3.76-1.44,6-1.56"/><path class="cls-6" d="M49.54,67.13c1.54.25,2.8.44,3.09,1s-1.36.71-2.21.73c-4.06.07-6.52.14-6.64,1.39-.16,1.61,1.74,3.23,3.61,5.5,1.72,2.07,3.66,4.11,3.1,6-.7,2.38-3.92,2.88-7,2.88a42.77,42.77,0,0,1-6.89-.63c-1.45-.26-1.24-.92-.85-1.13a31.1,31.1,0,0,1,4.63-.33c1.42-.07,5.53-.07,6.17-1,.79-1.17-1.14-3.16-2.91-5.25-2.2-2.61-4.62-5.3-3.34-7.27,1.66-2.54,6.51-2.37,9.23-1.92"/><path class="cls-5" d="M97.38,74.35h1.49l.43-2.08h4.61l-.43,2.08H105a.39.39,0,0,0,.43-.32l.77-3.61c.57-2.75-1.13-3.33-3.41-3.33-2.74,0-4.3.62-4.9,3.33L97.08,74c0,.25.11.32.3.32m2.37-4.15c.29-1.4,1.18-1.91,2.77-1.91s2.11.58,1.84,1.91c0,0-.06.33-.09.43a.56.56,0,0,1-.54.53H99.54ZM68.6,74.35h1.48l.43-2.08h4.62l-.43,2.08h1.48a.39.39,0,0,0,.43-.32l.77-3.61c.57-2.75-1.13-3.33-3.41-3.33-2.74,0-4.3.62-4.9,3.33L68.31,74c-.06.25.1.32.29.32M71,70.2c.29-1.4,1.18-1.91,2.77-1.91s2.12.58,1.84,1.91l-.09.43a.56.56,0,0,1-.54.53H70.76Zm21.58,7.59.14-.67h-7.5c-.39,0-.61.12-.67.39l-.15.72h3.08l-1.28,6h1.38a.6.6,0,0,0,.69-.51l1.18-5.54H92a.48.48,0,0,0,.56-.44m-20.68-.43-.69,3.26c-1.21.34-4.36,1-3.87-1.34l.46-2.16H66.12a.38.38,0,0,0-.37.24l-.42,2c-.79,3.74,3.08,3.23,5.59,2.52l-.52,2.43h1.39a.6.6,0,0,0,.69-.51l1.41-6.65H72.22a.37.37,0,0,0-.35.24m43.41.22-1.43,6.7h7.24l.15-.71c.06-.3,0-.39-.38-.39h-4.81l.42-1.93h4.24a.21.21,0,0,0,.23-.17l.17-.76c0-.1,0-.17-.16-.17H116.7l.41-1.92h4.63c.22,0,.44,0,.5-.27l.18-.84h-6.54a.53.53,0,0,0-.6.46m-21.49,0-1.42,6.7H99.6l.15-.71c.07-.3,0-.39-.37-.39H94.57L95,81.25h4.25a.22.22,0,0,0,.23-.17l.16-.76c0-.1,0-.17-.16-.17H95.21l.41-1.92h4.64c.22,0,.43,0,.49-.27l.18-.84H94.4a.54.54,0,0,0-.61.46m18.76-.46h-1.77l-3.43,2.79-2.25-2.79h-1.77a.5.5,0,0,0-.52.46l-1.42,6.7h1.51a.48.48,0,0,0,.54-.41l1.07-5,1.73,2.26a.47.47,0,0,0,.42.22h.77a.74.74,0,0,0,.51-.22l2.69-2.26-1.07,5c0,.27.06.41.38.41h1.5l1.43-6.7c.06-.29,0-.46-.32-.46m12.52-3.44c.06-.32-.06-.44-.37-.44h-4.2l1.23-5.81a.22.22,0,0,0-.24-.25h-1.67l-1.53,7.17h6.63ZM59,69.18a.35.35,0,0,0-.36.24l-1,4.93H62.2c2.59,0,4.4-.88,5-3.63.42-2-.55-3.54-3.2-3.54H58.35l0,.1c-.13.48-.06,1,.82,1h4.08c2,0,2.24.9,1.85,2.48s-1,2.35-2.53,2.47H59.76l.86-4.06Zm67.2-2c-.39,0-.61.13-.67.39l-.15.73h3.08l-1.28,6h1.38a.61.61,0,0,0,.69-.51l1.18-5.54H133a.49.49,0,0,0,.56-.44l.14-.68Zm-40,6a1.39,1.39,0,0,0-.31-1.64,4.66,4.66,0,0,0-1.23-.81c-2.45-1.28-3.1-1.42-2.94-2,.09-.34.35-.36,1.27-.36h2.89c.39,0,.61-.14.68-.46l.14-.67H83c-2.07,0-3.31,0-3.62,1.37-.24,1,.63,1.5,2.38,2.49,1.91,1.09,2.35,1.17,2.17,1.75s-.64.48-1.5.48H79c-.39,0-.61.14-.68.46l-.14.64h4.3c2,0,3.2-.11,3.65-1.21m9.17,0A1.41,1.41,0,0,0,95,71.5a4.58,4.58,0,0,0-1.22-.81c-2.46-1.28-3.1-1.42-3-2,.09-.34.35-.36,1.28-.36H95c.39,0,.62-.14.68-.46l.14-.67H92.17c-2.06,0-3.3,0-3.62,1.37-.23,1,.63,1.5,2.38,2.49,1.92,1.09,2.35,1.17,2.18,1.75s-.65.48-1.51.48H88.19c-.39,0-.61.14-.68.46l-.14.64h4.31c2,0,3.2-.11,3.65-1.21m28.38,5.33c-.23,1,.63,1.49,2.38,2.49,1.91,1.08,2.35,1.17,2.17,1.74s-.64.48-1.5.48h-3.41c-.39,0-.61.15-.68.46l-.14.64h4.3c2,0,3.21-.11,3.65-1.21a1.4,1.4,0,0,0-.31-1.64,4.74,4.74,0,0,0-1.23-.81c-2.45-1.27-3.1-1.42-2.94-2,.09-.35.35-.36,1.28-.36h2.88c.39,0,.61-.15.68-.46l.14-.67h-3.65c-2.06,0-3.3,0-3.62,1.37m-48.07,0c-.23,1,.63,1.49,2.38,2.49,1.92,1.08,2.35,1.17,2.17,1.74s-.64.48-1.5.48H75.28c-.39,0-.62.15-.68.46l-.14.64h4.3c2,0,3.2-.11,3.65-1.21a1.4,1.4,0,0,0-.31-1.64,4.83,4.83,0,0,0-1.22-.81c-2.46-1.27-3.1-1.42-2.95-2,.09-.35.35-.36,1.28-.36h2.88c.39,0,.61-.15.68-.46l.14-.67H79.26c-2.06,0-3.3,0-3.62,1.37m-19,0c-.23,1,.63,1.49,2.38,2.49C61,82,61.4,82.13,61.23,82.7s-.65.48-1.51.48H56.31c-.39,0-.61.15-.68.46l-.14.64h4.3c2,0,3.21-.11,3.66-1.21a1.42,1.42,0,0,0-.32-1.64,4.83,4.83,0,0,0-1.22-.81c-2.46-1.27-3.1-1.42-2.95-2,.09-.35.35-.36,1.28-.36h2.88c.39,0,.61-.15.68-.46l.14-.67H60.3c-2.07,0-3.31,0-3.63,1.37m55-4c3.24,0,4.49-1,5-3.36l.77-3.65c.05-.24-.11-.32-.31-.32h-1.56l-.44,2.1-.24,1.12-.21,1c-.28,1.33-1.22,1.92-2.81,1.92s-2.21-.58-1.94-1.92l.09-.43.37-1.66.43-2.1h-1.57a.42.42,0,0,0-.45.32l-.76,3.65c-.53,2.58.87,3.36,3.63,3.36"/></g></g></svg>